<?xml version="1.0" encoding="UTF-8" standalone="no"?>
<!DOCTYPE svg PUBLIC "-//W3C//DTD SVG 1.1//EN" "http://www.w3.org/Graphics/SVG/1.1/DTD/svg11.dtd">
<svg width="100%" height="100%" viewBox="0 0 200 130" version="1.1" xmlns="http://www.w3.org/2000/svg" xmlns:xlink="http://www.w3.org/1999/xlink" xml:space="preserve" xmlns:serif="http://www.serif.com/" style="fill-rule:evenodd;clip-rule:evenodd;stroke-linejoin:round;stroke-miterlimit:2;">
    <g transform="matrix(25.0564,0,0,25.0578,0,0)">
        <rect x="0" y="3.459" width="7.982" height="1.729" style="fill:rgb(102,153,204);"/>
    </g>
    <g transform="matrix(25.0564,0,0,25.0578,0,0)">
        <rect x="0" y="0" width="7.982" height="1.729" style="fill:rgb(102,153,204);"/>
    </g>
    <g transform="matrix(25.0564,0,0,25.0578,0,0)">
        <path d="M0,3.459L7.982,3.459L7.982,1.729L0,1.729L0,3.459ZM3.676,2.561L3.667,2.56C3.643,2.558 3.631,2.557 3.622,2.557L3.601,2.555C3.577,2.553 3.555,2.544 3.535,2.531C3.518,2.52 3.499,2.513 3.479,2.51C3.467,2.508 3.455,2.508 3.443,2.509C3.423,2.51 3.404,2.508 3.385,2.504C3.363,2.503 3.343,2.492 3.33,2.475C3.323,2.462 3.32,2.443 3.329,2.438C3.335,2.433 3.342,2.438 3.35,2.445C3.358,2.452 3.368,2.457 3.378,2.461C3.392,2.466 3.406,2.466 3.419,2.461C3.436,2.456 3.453,2.454 3.47,2.455C3.495,2.459 3.52,2.466 3.544,2.475L3.577,2.486C3.586,2.49 3.596,2.494 3.607,2.496C3.628,2.5 3.65,2.502 3.671,2.504L3.709,2.507C3.351,2.348 3.354,2.339 3.357,2.332C3.36,2.325 3.364,2.316 3.712,2.443L3.704,2.439C3.683,2.428 3.672,2.423 3.664,2.419L3.645,2.409C3.624,2.397 3.606,2.381 3.593,2.361C3.582,2.344 3.567,2.33 3.55,2.32C3.54,2.314 3.529,2.309 3.517,2.305C3.499,2.299 3.481,2.29 3.465,2.279C3.444,2.264 3.429,2.25 3.426,2.231C3.424,2.216 3.429,2.198 3.439,2.196C3.446,2.194 3.451,2.201 3.456,2.21C3.461,2.22 3.468,2.229 3.476,2.237C3.486,2.246 3.5,2.251 3.514,2.252C3.531,2.254 3.548,2.258 3.564,2.266C3.586,2.28 3.606,2.295 3.625,2.313L3.65,2.336C3.658,2.343 3.666,2.35 3.674,2.356C3.692,2.368 3.711,2.378 3.731,2.388L3.764,2.405C3.494,2.122 3.501,2.115 3.507,2.109C3.512,2.104 3.519,2.097 3.792,2.348L3.786,2.341C3.771,2.322 3.763,2.313 3.757,2.307L3.743,2.291C3.728,2.272 3.718,2.25 3.713,2.227C3.709,2.207 3.701,2.188 3.689,2.172C3.681,2.163 3.673,2.154 3.664,2.146C3.65,2.133 3.637,2.118 3.626,2.102C3.612,2.085 3.605,2.064 3.608,2.042C3.612,2.028 3.623,2.013 3.634,2.015C3.641,2.016 3.642,2.025 3.644,2.035C3.644,2.046 3.647,2.057 3.652,2.067C3.658,2.08 3.668,2.09 3.681,2.095C3.696,2.104 3.71,2.115 3.721,2.128C3.736,2.148 3.749,2.17 3.76,2.194L3.775,2.225C3.779,2.235 3.784,2.244 3.789,2.253C3.801,2.271 3.815,2.288 3.829,2.304L3.853,2.333C3.712,1.968 3.721,1.964 3.728,1.961C3.736,1.958 3.744,1.954 3.901,2.29L3.898,2.282C3.891,2.259 3.887,2.248 3.884,2.239L3.878,2.219C3.871,2.196 3.87,2.172 3.874,2.148C3.879,2.128 3.878,2.108 3.873,2.088C3.869,2.077 3.865,2.066 3.86,2.055C3.852,2.038 3.846,2.019 3.842,2C3.835,1.98 3.837,1.957 3.848,1.938C3.857,1.926 3.873,1.917 3.882,1.923C3.888,1.927 3.886,1.935 3.884,1.945C3.88,1.956 3.879,1.967 3.879,1.978C3.88,1.992 3.886,2.005 3.895,2.015C3.906,2.028 3.915,2.044 3.92,2.06C3.926,2.085 3.929,2.11 3.93,2.136L3.932,2.171C3.932,2.181 3.933,2.192 3.935,2.202C3.939,2.223 3.945,2.244 3.952,2.265L3.963,2.3C3.973,1.909 3.983,1.909 3.99,1.909C3.998,1.909 4.007,1.909 4.024,2.279L4.025,2.27C4.027,2.247 4.027,2.234 4.028,2.225L4.03,2.204C4.033,2.181 4.041,2.158 4.054,2.138C4.066,2.121 4.073,2.102 4.075,2.082C4.077,2.07 4.077,2.058 4.077,2.046C4.076,2.027 4.077,2.007 4.081,1.988C4.082,1.966 4.093,1.946 4.11,1.933C4.123,1.926 4.141,1.923 4.147,1.932C4.151,1.938 4.146,1.945 4.14,1.953C4.133,1.962 4.127,1.971 4.123,1.982C4.119,1.995 4.119,2.009 4.124,2.022C4.129,2.039 4.131,2.056 4.13,2.073C4.126,2.099 4.119,2.124 4.11,2.148L4.099,2.18C4.095,2.19 4.092,2.2 4.09,2.21C4.086,2.231 4.083,2.253 4.082,2.275L4.078,2.312C4.237,1.954 4.246,1.958 4.253,1.961C4.26,1.964 4.269,1.967 4.142,2.315L4.147,2.307C4.158,2.287 4.163,2.276 4.167,2.267L4.177,2.249C4.188,2.228 4.204,2.21 4.224,2.196C4.241,2.185 4.255,2.17 4.265,2.153C4.271,2.143 4.276,2.132 4.28,2.121C4.286,2.102 4.295,2.085 4.307,2.069C4.321,2.047 4.335,2.032 4.355,2.029C4.369,2.027 4.387,2.032 4.389,2.042C4.391,2.05 4.384,2.054 4.375,2.059C4.365,2.064 4.356,2.071 4.348,2.079C4.339,2.089 4.334,2.103 4.333,2.117C4.332,2.134 4.327,2.151 4.319,2.167C4.306,2.189 4.29,2.209 4.272,2.228L4.249,2.253C4.242,2.261 4.235,2.269 4.229,2.277C4.217,2.295 4.207,2.314 4.197,2.334L4.18,2.367C4.464,2.097 4.47,2.104 4.476,2.11C4.482,2.115 4.488,2.121 4.238,2.395L4.245,2.389C4.263,2.374 4.272,2.366 4.278,2.36L4.294,2.346C4.313,2.331 4.335,2.321 4.359,2.316C4.378,2.312 4.397,2.304 4.413,2.292C4.423,2.284 4.431,2.276 4.439,2.267C4.452,2.253 4.467,2.24 4.484,2.229C4.5,2.215 4.522,2.208 4.543,2.211C4.558,2.215 4.572,2.226 4.57,2.237C4.569,2.244 4.56,2.245 4.55,2.247C4.539,2.248 4.528,2.25 4.518,2.255C4.506,2.261 4.496,2.271 4.49,2.284C4.482,2.299 4.471,2.313 4.458,2.324C4.437,2.339 4.415,2.352 4.391,2.363L4.36,2.378C4.35,2.382 4.341,2.387 4.332,2.392C4.314,2.405 4.297,2.418 4.281,2.432L4.252,2.456C4.617,2.316 4.621,2.325 4.624,2.332C4.627,2.339 4.631,2.347 4.295,2.504L4.304,2.501C4.326,2.495 4.338,2.49 4.346,2.487L4.366,2.481C4.389,2.474 4.413,2.473 4.437,2.478C4.457,2.482 4.477,2.481 4.497,2.476C4.508,2.473 4.519,2.469 4.53,2.464C4.548,2.455 4.566,2.449 4.586,2.445C4.606,2.438 4.629,2.441 4.647,2.451C4.659,2.461 4.669,2.477 4.663,2.485C4.659,2.492 4.651,2.489 4.641,2.487C4.63,2.484 4.619,2.482 4.608,2.482C4.594,2.483 4.581,2.489 4.571,2.498C4.557,2.509 4.542,2.518 4.525,2.523C4.5,2.529 4.475,2.533 4.449,2.533L4.415,2.535C4.404,2.535 4.394,2.536 4.383,2.538C4.362,2.543 4.341,2.548 4.321,2.556L4.285,2.567C4.676,2.577 4.676,2.586 4.676,2.594C4.676,2.601 4.676,2.611 4.306,2.627L4.315,2.628C4.339,2.63 4.351,2.631 4.36,2.631L4.381,2.633C4.405,2.635 4.427,2.644 4.447,2.657C4.464,2.668 4.483,2.676 4.503,2.678C4.515,2.68 4.527,2.68 4.539,2.679C4.558,2.678 4.578,2.68 4.597,2.684C4.619,2.685 4.639,2.696 4.652,2.713C4.66,2.726 4.662,2.745 4.653,2.75L4.648,2.752C4.642,2.751 4.637,2.748 4.632,2.743C4.624,2.736 4.614,2.731 4.604,2.727C4.59,2.722 4.576,2.722 4.563,2.727C4.546,2.732 4.529,2.734 4.512,2.733C4.486,2.729 4.461,2.722 4.438,2.713L4.405,2.702C4.395,2.698 4.385,2.695 4.375,2.693C4.353,2.689 4.332,2.686 4.31,2.685L4.273,2.681C4.63,2.84 4.627,2.849 4.624,2.856L4.617,2.86C4.499,2.831 4.382,2.793 4.27,2.745L4.278,2.75C4.299,2.761 4.31,2.766 4.318,2.77L4.337,2.78C4.358,2.791 4.376,2.807 4.389,2.827C4.4,2.844 4.415,2.858 4.433,2.868C4.443,2.874 4.454,2.879 4.465,2.883C4.484,2.89 4.501,2.899 4.517,2.91C4.539,2.924 4.554,2.938 4.556,2.958C4.558,2.973 4.554,2.99 4.544,2.992L4.542,2.992C4.535,2.992 4.532,2.986 4.527,2.978C4.522,2.968 4.515,2.959 4.507,2.951C4.496,2.942 4.483,2.937 4.469,2.936C4.451,2.935 4.435,2.93 4.419,2.922C4.397,2.909 4.377,2.893 4.358,2.875L4.332,2.852C4.325,2.845 4.316,2.838 4.308,2.832C4.29,2.82 4.271,2.809 4.251,2.8L4.218,2.783C4.488,3.066 4.481,3.073 4.476,3.079L4.472,3.08C4.462,3.08 4.422,3.053 4.191,2.84L4.196,2.847C4.211,2.865 4.219,2.874 4.225,2.881L4.239,2.897C4.254,2.915 4.264,2.937 4.269,2.961C4.273,2.981 4.281,3 4.294,3.016C4.301,3.025 4.309,3.034 4.318,3.042C4.332,3.055 4.345,3.07 4.356,3.086C4.37,3.102 4.377,3.124 4.374,3.145C4.37,3.16 4.36,3.173 4.35,3.173L4.348,3.173C4.341,3.172 4.339,3.163 4.338,3.153C4.337,3.142 4.334,3.131 4.33,3.121C4.324,3.109 4.313,3.099 4.301,3.093C4.286,3.085 4.272,3.074 4.261,3.061C4.246,3.04 4.233,3.018 4.222,2.994L4.207,2.963C4.203,2.953 4.198,2.944 4.193,2.935C4.18,2.917 4.167,2.9 4.153,2.884L4.129,2.855C4.269,3.22 4.26,3.224 4.253,3.227L4.251,3.228C4.243,3.228 4.223,3.202 4.081,2.898L4.084,2.907C4.09,2.929 4.095,2.94 4.098,2.949L4.104,2.969C4.111,2.992 4.112,3.016 4.107,3.04C4.103,3.06 4.104,3.08 4.109,3.1C4.112,3.111 4.116,3.122 4.121,3.133C4.13,3.151 4.136,3.169 4.14,3.189C4.147,3.209 4.144,3.232 4.134,3.251C4.127,3.26 4.117,3.266 4.106,3.268L4.1,3.266C4.094,3.262 4.096,3.254 4.098,3.244C4.102,3.233 4.103,3.222 4.103,3.211C4.102,3.197 4.096,3.184 4.087,3.173C4.076,3.16 4.067,3.145 4.062,3.128C4.056,3.103 4.052,3.078 4.052,3.052L4.05,3.018C4.05,3.007 4.049,2.997 4.047,2.986C4.043,2.965 4.037,2.944 4.03,2.924L4.018,2.888C4.008,3.279 3.999,3.279 3.991,3.279C3.983,3.279 3.974,3.274 3.958,2.909L3.957,2.919C3.955,2.942 3.954,2.954 3.954,2.963L3.952,2.984C3.95,3.008 3.941,3.031 3.928,3.051C3.917,3.067 3.909,3.086 3.907,3.106C3.905,3.118 3.905,3.13 3.906,3.142C3.907,3.162 3.905,3.181 3.901,3.2C3.899,3.222 3.889,3.242 3.871,3.255C3.864,3.259 3.856,3.261 3.848,3.262C3.843,3.262 3.838,3.26 3.834,3.256C3.83,3.25 3.835,3.243 3.841,3.235C3.849,3.226 3.854,3.217 3.858,3.206C3.863,3.193 3.862,3.179 3.857,3.166C3.853,3.149 3.851,3.132 3.852,3.115C3.856,3.089 3.863,3.064 3.872,3.04L3.883,3.008C3.887,2.998 3.89,2.988 3.892,2.978C3.896,2.957 3.899,2.935 3.9,2.913L3.904,2.876C3.759,3.201 3.739,3.228 3.731,3.228L3.729,3.227C3.722,3.224 3.713,3.221 3.84,2.873L3.835,2.881C3.824,2.902 3.819,2.913 3.815,2.921L3.805,2.939C3.794,2.96 3.778,2.978 3.758,2.992C3.741,3.003 3.727,3.018 3.717,3.035C3.711,3.045 3.706,3.056 3.702,3.068C3.695,3.086 3.686,3.104 3.675,3.12C3.661,3.141 3.647,3.156 3.627,3.159L3.62,3.159C3.607,3.159 3.594,3.154 3.592,3.146C3.591,3.137 3.598,3.134 3.607,3.129C3.617,3.124 3.626,3.117 3.633,3.109C3.643,3.098 3.648,3.085 3.648,3.071C3.65,3.054 3.655,3.037 3.663,3.021C3.676,2.999 3.692,2.979 3.71,2.961L3.733,2.935C3.74,2.928 3.747,2.92 3.753,2.911C3.765,2.893 3.776,2.874 3.785,2.854L3.802,2.821C3.56,3.052 3.52,3.08 3.51,3.08L3.507,3.078C3.501,3.073 3.495,3.066 3.745,2.793L3.738,2.799C3.72,2.814 3.711,2.822 3.704,2.828L3.688,2.842C3.669,2.857 3.647,2.867 3.624,2.872C3.604,2.876 3.585,2.884 3.569,2.896C3.56,2.904 3.551,2.912 3.543,2.921C3.53,2.935 3.515,2.948 3.499,2.959C3.485,2.97 3.468,2.976 3.451,2.978L3.439,2.977C3.425,2.973 3.41,2.962 3.412,2.952C3.413,2.944 3.422,2.943 3.432,2.942C3.443,2.941 3.454,2.938 3.464,2.933C3.476,2.927 3.486,2.917 3.492,2.904C3.5,2.889 3.511,2.875 3.524,2.864C3.545,2.849 3.567,2.836 3.591,2.826L3.622,2.811C3.632,2.807 3.641,2.802 3.65,2.796C3.668,2.784 3.685,2.77 3.701,2.756L3.73,2.732C3.612,2.784 3.49,2.827 3.365,2.86L3.358,2.856C3.355,2.849 3.351,2.841 3.687,2.684L3.679,2.687C3.656,2.694 3.645,2.698 3.636,2.701L3.616,2.707C3.593,2.714 3.569,2.715 3.545,2.71C3.526,2.706 3.505,2.707 3.485,2.712C3.474,2.715 3.463,2.719 3.452,2.725C3.434,2.733 3.416,2.739 3.396,2.743C3.387,2.745 3.376,2.746 3.366,2.746C3.355,2.747 3.343,2.743 3.334,2.736C3.322,2.727 3.313,2.711 3.319,2.702C3.323,2.696 3.331,2.698 3.341,2.701C3.352,2.704 3.363,2.706 3.374,2.705C3.388,2.705 3.401,2.699 3.412,2.69C3.425,2.679 3.44,2.671 3.457,2.665C3.482,2.659 3.507,2.656 3.533,2.655L3.567,2.653C3.578,2.653 3.588,2.652 3.599,2.65C3.62,2.646 3.641,2.64 3.661,2.632L3.662,2.633L3.697,2.622C3.306,2.612 3.306,2.602 3.306,2.595C3.306,2.587 3.306,2.577 3.676,2.561Z" style="fill:white;fill-rule:nonzero;"/>
    </g>
    <g transform="matrix(25.0564,0,0,25.0578,0,0)">
        <path d="M4.048,2.29C4.05,2.275 4.05,2.26 4.051,2.245C4.051,2.229 4.054,2.214 4.059,2.199C4.064,2.184 4.07,2.17 4.078,2.157C4.071,2.171 4.066,2.185 4.062,2.2C4.058,2.215 4.057,2.23 4.057,2.245C4.057,2.26 4.058,2.276 4.057,2.291C4.057,2.307 4.055,2.321 4.053,2.336L4.066,2.339L4.067,2.337L4.073,2.274C4.074,2.252 4.077,2.23 4.081,2.208C4.083,2.198 4.087,2.187 4.091,2.177L4.102,2.145C4.111,2.122 4.118,2.097 4.122,2.073C4.123,2.056 4.121,2.04 4.116,2.024C4.111,2.01 4.111,1.993 4.116,1.979C4.12,1.967 4.127,1.957 4.134,1.948L4.14,1.937C4.138,1.934 4.126,1.934 4.114,1.941C4.1,1.949 4.094,1.966 4.089,1.99C4.085,2.008 4.084,2.027 4.085,2.046C4.086,2.058 4.085,2.071 4.083,2.083C4.081,2.104 4.073,2.125 4.061,2.142C4.048,2.161 4.041,2.183 4.038,2.206L4.037,2.226C4.037,2.235 4.036,2.247 4.033,2.271C4.031,2.291 4.029,2.311 4.026,2.331L4.04,2.333C4.044,2.319 4.046,2.305 4.048,2.29Z" style="fill:rgb(246,180,14);fill-rule:nonzero;"/>
    </g>
    <g transform="matrix(25.0564,0,0,25.0578,0,0)">
        <path d="M3.985,2.328L3.991,2.157L3.997,2.328L4.017,2.33C4.016,2.194 4.007,2.058 3.991,1.923C3.977,2.057 3.971,2.192 3.971,2.326L3.972,2.329L3.985,2.328Z" style="fill:rgb(246,180,14);fill-rule:nonzero;"/>
    </g>
    <g transform="matrix(25.0564,0,0,25.0578,0,0)">
        <path d="M4.076,2.342L4.087,2.346L4.158,2.191L4.099,2.351L4.117,2.36C4.167,2.233 4.211,2.105 4.248,1.974C4.184,2.093 4.127,2.214 4.076,2.339L4.076,2.342Z" style="fill:rgb(246,180,14);fill-rule:nonzero;"/>
    </g>
    <g transform="matrix(25.0564,0,0,25.0578,0,0)">
        <path d="M4.137,2.372C4.145,2.36 4.153,2.348 4.16,2.335C4.167,2.323 4.173,2.308 4.18,2.294C4.186,2.28 4.194,2.267 4.204,2.255C4.214,2.244 4.226,2.233 4.238,2.224C4.226,2.234 4.216,2.245 4.207,2.257C4.198,2.27 4.191,2.283 4.185,2.297C4.18,2.311 4.174,2.326 4.168,2.34C4.161,2.354 4.155,2.367 4.147,2.379L4.158,2.388L4.16,2.386L4.19,2.33C4.2,2.31 4.21,2.291 4.222,2.273C4.229,2.264 4.236,2.255 4.243,2.247L4.266,2.222C4.283,2.204 4.298,2.184 4.311,2.163C4.319,2.148 4.323,2.132 4.325,2.116C4.326,2.1 4.332,2.085 4.342,2.073C4.35,2.065 4.36,2.057 4.37,2.052L4.38,2.044C4.379,2.041 4.368,2.036 4.355,2.038C4.338,2.04 4.327,2.053 4.313,2.073C4.302,2.089 4.294,2.106 4.287,2.123C4.283,2.135 4.278,2.146 4.272,2.157C4.261,2.176 4.246,2.192 4.228,2.203C4.209,2.216 4.194,2.233 4.183,2.253L4.174,2.271C4.17,2.28 4.165,2.291 4.154,2.311C4.144,2.329 4.135,2.347 4.124,2.364L4.137,2.372Z" style="fill:rgb(246,180,14);fill-rule:nonzero;"/>
    </g>
    <g transform="matrix(25.0564,0,0,25.0578,0,0)">
        <path d="M3.923,2.337L3.937,2.334C3.934,2.32 3.931,2.306 3.927,2.292C3.923,2.278 3.918,2.263 3.912,2.249C3.907,2.234 3.904,2.219 3.902,2.203C3.901,2.188 3.902,2.173 3.904,2.157C3.903,2.173 3.903,2.188 3.906,2.203C3.908,2.218 3.912,2.232 3.918,2.246C3.925,2.26 3.931,2.274 3.936,2.289C3.942,2.303 3.946,2.317 3.949,2.331L3.963,2.33L3.963,2.327L3.944,2.267C3.937,2.246 3.931,2.225 3.927,2.203C3.925,2.192 3.924,2.182 3.924,2.171L3.922,2.137C3.921,2.112 3.918,2.087 3.912,2.063C3.907,2.047 3.899,2.033 3.888,2.02C3.878,2.008 3.871,1.994 3.87,1.978C3.87,1.966 3.872,1.954 3.875,1.942L3.877,1.93C3.875,1.928 3.863,1.933 3.855,1.943C3.846,1.96 3.844,1.98 3.851,1.998C3.854,2.017 3.86,2.035 3.868,2.052C3.874,2.063 3.878,2.074 3.881,2.087C3.887,2.107 3.888,2.129 3.883,2.15C3.879,2.172 3.88,2.195 3.886,2.217L3.892,2.236C3.895,2.245 3.9,2.256 3.907,2.279C3.913,2.298 3.918,2.318 3.923,2.337Z" style="fill:rgb(246,180,14);fill-rule:nonzero;"/>
    </g>
    <g transform="matrix(25.0564,0,0,25.0578,0,0)">
        <path d="M3.769,2.448C3.757,2.44 3.745,2.432 3.732,2.425C3.719,2.418 3.705,2.412 3.691,2.405C3.677,2.399 3.664,2.39 3.652,2.38C3.64,2.37 3.63,2.359 3.621,2.347C3.631,2.358 3.642,2.369 3.654,2.378C3.666,2.387 3.68,2.394 3.694,2.399C3.708,2.405 3.723,2.41 3.737,2.417C3.751,2.424 3.764,2.43 3.777,2.438L3.785,2.427L3.783,2.425L3.727,2.395C3.708,2.386 3.688,2.375 3.67,2.363C3.661,2.357 3.652,2.35 3.645,2.342L3.619,2.32C3.6,2.303 3.581,2.288 3.559,2.275C3.545,2.267 3.529,2.263 3.512,2.261C3.497,2.26 3.482,2.254 3.47,2.244C3.461,2.236 3.454,2.226 3.448,2.216L3.441,2.206C3.437,2.206 3.433,2.218 3.435,2.231C3.437,2.247 3.45,2.259 3.47,2.273C3.486,2.283 3.503,2.292 3.52,2.298C3.532,2.302 3.543,2.307 3.554,2.314C3.573,2.324 3.588,2.339 3.6,2.357C3.613,2.376 3.63,2.392 3.65,2.403L3.668,2.412C3.676,2.415 3.688,2.421 3.708,2.432C3.726,2.442 3.744,2.451 3.761,2.462L3.769,2.448Z" style="fill:rgb(246,180,14);fill-rule:nonzero;"/>
    </g>
    <g transform="matrix(25.0564,0,0,25.0578,0,0)">
        <path d="M3.791,2.42L3.799,2.411L3.682,2.286L3.808,2.402L3.823,2.389C3.726,2.294 3.623,2.204 3.517,2.12C3.602,2.224 3.692,2.324 3.788,2.418L3.791,2.42Z" style="fill:rgb(246,180,14);fill-rule:nonzero;"/>
    </g>
    <g transform="matrix(25.0564,0,0,25.0578,0,0)">
        <path d="M3.873,2.356L3.883,2.351L3.823,2.191L3.895,2.346L3.914,2.34C3.861,2.215 3.801,2.093 3.734,1.975C3.773,2.104 3.818,2.23 3.87,2.354L3.873,2.356Z" style="fill:rgb(246,180,14);fill-rule:nonzero;"/>
    </g>
    <g transform="matrix(25.0564,0,0,25.0578,0,0)">
        <path d="M4.166,2.394L4.174,2.402L4.3,2.285L4.184,2.411L4.197,2.426C4.292,2.329 4.381,2.227 4.465,2.12C4.361,2.205 4.262,2.296 4.167,2.391L4.166,2.394Z" style="fill:rgb(246,180,14);fill-rule:nonzero;"/>
    </g>
    <g transform="matrix(25.0564,0,0,25.0578,0,0)">
        <path d="M3.83,2.383L3.842,2.374C3.834,2.362 3.826,2.35 3.817,2.339C3.807,2.328 3.797,2.316 3.787,2.305C3.776,2.293 3.767,2.281 3.76,2.267C3.753,2.253 3.748,2.239 3.744,2.224C3.749,2.238 3.755,2.252 3.763,2.265C3.771,2.278 3.78,2.29 3.791,2.3C3.802,2.31 3.813,2.321 3.824,2.333C3.834,2.344 3.844,2.355 3.852,2.367L3.864,2.36L3.863,2.358L3.823,2.309C3.808,2.293 3.795,2.276 3.782,2.257C3.776,2.248 3.771,2.238 3.767,2.228L3.752,2.198C3.742,2.175 3.73,2.153 3.715,2.133C3.704,2.121 3.691,2.11 3.677,2.102C3.663,2.096 3.651,2.085 3.644,2.071C3.639,2.06 3.636,2.048 3.635,2.036L3.632,2.023C3.629,2.023 3.62,2.032 3.617,2.044C3.614,2.063 3.621,2.082 3.634,2.097C3.644,2.113 3.656,2.127 3.67,2.14C3.679,2.148 3.688,2.157 3.695,2.167C3.708,2.184 3.717,2.204 3.721,2.225C3.726,2.247 3.736,2.268 3.75,2.286L3.763,2.301C3.769,2.308 3.777,2.317 3.793,2.335C3.805,2.351 3.818,2.367 3.83,2.383Z" style="fill:rgb(246,180,14);fill-rule:nonzero;"/>
    </g>
    <g transform="matrix(25.0564,0,0,25.0578,0,0)">
        <path d="M4.011,2.687L4.004,2.69C4,2.693 3.995,2.694 3.99,2.694L3.979,2.691C3.976,2.688 3.972,2.687 3.969,2.687C3.968,2.687 3.964,2.687 3.952,2.695L3.932,2.709C3.941,2.712 3.95,2.717 3.958,2.722L3.966,2.728L3.977,2.734C3.986,2.737 3.995,2.737 4.003,2.734L4.014,2.727L4.024,2.719C4.031,2.715 4.039,2.712 4.047,2.71C4.033,2.692 4.021,2.684 4.011,2.687ZM4.024,2.71C4.017,2.709 4.011,2.709 4.005,2.711L3.997,2.715L3.988,2.718L3.987,2.718L3.978,2.713L3.972,2.71C3.965,2.707 3.958,2.707 3.951,2.71L3.948,2.709L3.95,2.705C3.958,2.702 3.967,2.702 3.974,2.705L3.98,2.71L3.987,2.713L3.995,2.711L4.003,2.707C4.01,2.705 4.017,2.705 4.024,2.706L4.025,2.709L4.024,2.71Z" style="fill:rgb(246,180,14);fill-rule:nonzero;"/>
    </g>
    <g transform="matrix(25.0564,0,0,25.0578,0,0)">
        <path d="M3.894,2.542C3.881,2.543 3.869,2.547 3.858,2.554C3.868,2.562 3.881,2.566 3.894,2.566C3.89,2.563 3.888,2.559 3.888,2.554C3.888,2.549 3.89,2.545 3.894,2.542Z" style="fill:rgb(246,180,14);fill-rule:nonzero;"/>
    </g>
    <g transform="matrix(25.0564,0,0,25.0578,0,0)">
        <path d="M3.942,2.557C3.932,2.549 3.921,2.544 3.909,2.542C3.912,2.545 3.914,2.55 3.914,2.554C3.914,2.559 3.912,2.563 3.908,2.566C3.929,2.565 3.941,2.561 3.942,2.557Z" style="fill:rgb(246,180,14);fill-rule:nonzero;"/>
    </g>
    <g transform="matrix(25.0564,0,0,25.0578,0,0)">
        <path d="M4.251,2.54C4.265,2.537 4.279,2.534 4.293,2.53C4.307,2.526 4.322,2.521 4.336,2.515C4.351,2.51 4.366,2.507 4.382,2.505C4.397,2.504 4.412,2.505 4.428,2.507C4.412,2.506 4.397,2.506 4.382,2.509C4.367,2.511 4.353,2.515 4.339,2.522C4.325,2.528 4.311,2.534 4.296,2.539C4.282,2.545 4.268,2.549 4.254,2.553L4.255,2.566L4.258,2.566L4.318,2.547C4.339,2.54 4.36,2.534 4.382,2.53C4.393,2.528 4.403,2.527 4.414,2.527L4.449,2.525C4.473,2.524 4.498,2.521 4.523,2.515C4.538,2.51 4.552,2.502 4.565,2.492C4.577,2.481 4.591,2.475 4.607,2.474C4.619,2.473 4.631,2.475 4.643,2.479L4.656,2.481C4.657,2.478 4.652,2.466 4.642,2.458C4.625,2.449 4.605,2.447 4.587,2.454C4.569,2.457 4.55,2.463 4.533,2.471C4.522,2.477 4.511,2.481 4.499,2.484C4.478,2.49 4.456,2.491 4.435,2.486C4.413,2.482 4.39,2.483 4.368,2.489L4.349,2.496C4.34,2.499 4.329,2.503 4.306,2.51C4.287,2.516 4.267,2.521 4.248,2.526L4.251,2.54Z" style="fill:rgb(246,180,14);fill-rule:nonzero;"/>
    </g>
    <g transform="matrix(25.0564,0,0,25.0578,0,0)">
        <path d="M4.124,2.554C4.113,2.547 4.101,2.542 4.088,2.542C4.092,2.545 4.094,2.549 4.094,2.554C4.094,2.559 4.091,2.563 4.088,2.566C4.101,2.566 4.114,2.562 4.124,2.554Z" style="fill:rgb(246,180,14);fill-rule:nonzero;"/>
    </g>
    <g transform="matrix(25.0564,0,0,25.0578,0,0)">
        <path d="M3.729,2.594C3.729,2.738 3.847,2.855 3.991,2.855C4.134,2.855 4.252,2.737 4.252,2.594C4.252,2.462 4.153,2.35 4.022,2.334L3.991,2.332C3.847,2.332 3.729,2.451 3.729,2.594ZM3.836,2.558L3.834,2.557L3.834,2.55C3.85,2.531 3.874,2.52 3.899,2.52C3.922,2.521 3.944,2.532 3.959,2.549L3.959,2.556L3.954,2.556C3.94,2.539 3.919,2.529 3.897,2.529C3.874,2.529 3.853,2.539 3.839,2.557L3.836,2.558ZM3.946,2.556C3.946,2.57 3.913,2.571 3.9,2.571C3.883,2.573 3.866,2.567 3.854,2.555L3.854,2.552C3.867,2.542 3.883,2.536 3.9,2.537C3.923,2.537 3.946,2.551 3.946,2.556ZM3.9,2.587C3.883,2.587 3.866,2.582 3.851,2.571L3.851,2.568L3.854,2.568C3.867,2.578 3.884,2.583 3.901,2.583C3.92,2.582 3.938,2.575 3.952,2.563L3.955,2.563L3.955,2.566C3.94,2.579 3.921,2.586 3.902,2.586L3.9,2.587ZM4.051,2.714C4.042,2.715 4.033,2.719 4.025,2.724L4.015,2.731L4.003,2.739L3.991,2.741C4.008,2.743 4.022,2.755 4.027,2.771L4.025,2.774L4.023,2.773C4.019,2.757 4.005,2.746 3.988,2.745C3.972,2.747 3.958,2.759 3.954,2.775L3.953,2.776L3.952,2.774C3.955,2.756 3.97,2.743 3.988,2.741L3.976,2.739L3.963,2.732L3.956,2.726C3.947,2.72 3.937,2.716 3.927,2.713L3.923,2.712L3.926,2.709C3.933,2.702 3.942,2.696 3.95,2.691C3.961,2.684 3.965,2.683 3.968,2.683C3.973,2.683 3.977,2.684 3.98,2.687L3.99,2.69C3.995,2.69 3.999,2.689 4.002,2.686L4.011,2.682C4.022,2.68 4.036,2.689 4.052,2.71L4.055,2.713L4.051,2.714ZM4.13,2.571C4.116,2.582 4.099,2.587 4.081,2.587L4.08,2.587C4.061,2.587 4.042,2.58 4.027,2.567L4.027,2.564L4.029,2.564C4.044,2.576 4.062,2.583 4.08,2.584C4.098,2.584 4.114,2.578 4.128,2.568L4.131,2.569L4.13,2.571ZM4.036,2.556C4.036,2.551 4.059,2.537 4.082,2.537C4.099,2.537 4.115,2.542 4.128,2.552L4.128,2.555C4.116,2.567 4.099,2.573 4.082,2.571C4.068,2.571 4.036,2.57 4.036,2.556ZM4.146,2.558L4.143,2.556C4.128,2.539 4.106,2.53 4.083,2.529C4.062,2.53 4.042,2.54 4.028,2.556L4.023,2.556L4.023,2.55C4.038,2.533 4.06,2.522 4.083,2.521C4.108,2.521 4.132,2.532 4.148,2.551L4.148,2.557L4.146,2.558ZM3.999,2.544C4,2.533 4.004,2.523 4.01,2.514C4.016,2.506 4.024,2.5 4.033,2.496C4.041,2.492 4.05,2.489 4.06,2.488C4.069,2.487 4.078,2.487 4.087,2.488C4.096,2.489 4.105,2.492 4.113,2.496C4.13,2.504 4.144,2.517 4.154,2.533C4.141,2.522 4.125,2.514 4.109,2.509C4.101,2.506 4.093,2.505 4.085,2.504L4.074,2.504L4.061,2.506C4.053,2.506 4.046,2.508 4.038,2.511C4.031,2.514 4.024,2.519 4.019,2.524C4.014,2.529 4.011,2.535 4.008,2.541C4.005,2.553 4.005,2.565 4.007,2.577C4.008,2.585 4.01,2.593 4.014,2.6C4.017,2.608 4.021,2.616 4.026,2.623L4.025,2.63L4.023,2.63L4.02,2.629C4.015,2.621 4.01,2.612 4.007,2.603C4.004,2.595 4.001,2.587 4,2.578C3.998,2.568 3.998,2.558 4,2.548L3.999,2.544ZM3.999,2.651L4.007,2.645L4.015,2.642L4.022,2.645L4.03,2.653L4.032,2.654L4.035,2.653L4.04,2.646C4.042,2.639 4.04,2.631 4.035,2.627L4.044,2.634C4.046,2.638 4.046,2.643 4.045,2.648L4.039,2.66L4.033,2.664L4.025,2.663L4.017,2.655L4.015,2.654L4.003,2.663L3.991,2.665C3.987,2.665 3.983,2.665 3.979,2.664L3.968,2.657L3.964,2.654L3.963,2.654L3.957,2.66L3.95,2.663L3.943,2.661L3.935,2.651C3.933,2.646 3.933,2.641 3.935,2.637L3.943,2.629L3.938,2.638L3.94,2.648L3.946,2.654L3.949,2.654L3.951,2.653L3.954,2.648L3.96,2.643L3.964,2.642L3.969,2.644L3.974,2.647L3.982,2.651L3.99,2.652L3.999,2.651ZM3.869,2.496C3.877,2.492 3.886,2.489 3.895,2.488C3.904,2.486 3.913,2.486 3.922,2.487C3.932,2.489 3.941,2.491 3.949,2.495C3.958,2.5 3.966,2.506 3.972,2.514C3.977,2.521 3.98,2.529 3.982,2.537C3.985,2.55 3.986,2.564 3.984,2.578C3.982,2.587 3.98,2.595 3.977,2.603C3.973,2.612 3.969,2.62 3.963,2.628L3.96,2.63L3.958,2.629L3.957,2.623C3.962,2.616 3.966,2.608 3.97,2.6C3.973,2.593 3.975,2.585 3.977,2.577C3.978,2.568 3.978,2.559 3.977,2.55L3.976,2.546C3.974,2.538 3.97,2.53 3.964,2.524C3.958,2.518 3.951,2.514 3.944,2.511C3.936,2.508 3.929,2.506 3.921,2.506L3.909,2.504L3.897,2.504C3.889,2.505 3.881,2.506 3.873,2.509C3.857,2.514 3.842,2.522 3.828,2.532C3.838,2.517 3.852,2.504 3.869,2.496Z" style="fill:rgb(246,180,14);fill-rule:nonzero;"/>
    </g>
    <g transform="matrix(25.0564,0,0,25.0578,0,0)">
        <path d="M4.073,2.542C4.061,2.544 4.049,2.549 4.04,2.557C4.041,2.561 4.053,2.565 4.074,2.566C4.07,2.563 4.068,2.559 4.068,2.554C4.068,2.549 4.07,2.545 4.073,2.542Z" style="fill:rgb(246,180,14);fill-rule:nonzero;"/>
    </g>
    <g transform="matrix(25.0564,0,0,25.0578,0,0)">
        <path d="M3.739,2.51L3.743,2.499L3.588,2.427L3.748,2.487L3.756,2.468C3.63,2.418 3.502,2.374 3.371,2.337C3.489,2.401 3.611,2.458 3.736,2.509L3.739,2.51Z" style="fill:rgb(246,180,14);fill-rule:nonzero;"/>
    </g>
    <g transform="matrix(25.0564,0,0,25.0578,0,0)">
        <path d="M4.229,2.476L4.234,2.486L4.394,2.427L4.239,2.498L4.245,2.517C4.37,2.464 4.492,2.404 4.61,2.337C4.482,2.376 4.355,2.422 4.231,2.474L4.229,2.476Z" style="fill:rgb(246,180,14);fill-rule:nonzero;"/>
    </g>
    <g transform="matrix(25.0564,0,0,25.0578,0,0)">
        <path d="M4.211,2.445C4.223,2.437 4.235,2.429 4.246,2.419C4.257,2.41 4.269,2.399 4.28,2.39C4.292,2.379 4.304,2.37 4.318,2.363C4.332,2.356 4.346,2.35 4.361,2.347C4.347,2.352 4.333,2.358 4.32,2.366C4.307,2.374 4.295,2.383 4.285,2.394C4.275,2.405 4.264,2.417 4.252,2.427C4.241,2.437 4.229,2.447 4.218,2.455L4.225,2.467L4.227,2.466L4.276,2.426C4.292,2.412 4.309,2.398 4.327,2.386C4.337,2.38 4.346,2.374 4.356,2.37L4.387,2.355C4.41,2.345 4.432,2.333 4.452,2.318C4.464,2.307 4.474,2.294 4.482,2.28C4.488,2.266 4.5,2.254 4.514,2.247C4.525,2.242 4.536,2.239 4.548,2.238L4.561,2.235C4.562,2.232 4.553,2.223 4.54,2.22C4.521,2.218 4.502,2.224 4.488,2.237C4.472,2.247 4.457,2.259 4.445,2.273C4.437,2.283 4.427,2.291 4.418,2.299C4.401,2.312 4.381,2.321 4.36,2.325C4.338,2.329 4.317,2.339 4.299,2.353L4.284,2.366C4.277,2.372 4.268,2.381 4.249,2.396C4.234,2.409 4.218,2.422 4.202,2.434L4.211,2.445Z" style="fill:rgb(246,180,14);fill-rule:nonzero;"/>
    </g>
    <g transform="matrix(25.0564,0,0,25.0578,0,0)">
        <path d="M4.213,2.74C4.225,2.748 4.237,2.756 4.25,2.763C4.262,2.77 4.277,2.777 4.291,2.783C4.305,2.789 4.318,2.798 4.33,2.808C4.341,2.818 4.352,2.829 4.361,2.841C4.351,2.83 4.34,2.819 4.328,2.81C4.315,2.801 4.302,2.794 4.288,2.789C4.273,2.783 4.259,2.778 4.245,2.771C4.231,2.765 4.218,2.758 4.205,2.75L4.197,2.761L4.199,2.763L4.255,2.793C4.275,2.802 4.294,2.813 4.312,2.825C4.321,2.831 4.33,2.838 4.337,2.846L4.363,2.869C4.381,2.886 4.401,2.901 4.422,2.914C4.437,2.922 4.453,2.926 4.469,2.928C4.484,2.928 4.499,2.934 4.511,2.945C4.52,2.953 4.527,2.963 4.533,2.973L4.541,2.983C4.544,2.983 4.548,2.971 4.547,2.958C4.544,2.942 4.531,2.93 4.511,2.916C4.496,2.905 4.479,2.897 4.461,2.891C4.449,2.887 4.438,2.881 4.427,2.875C4.409,2.864 4.393,2.85 4.381,2.832C4.368,2.813 4.351,2.797 4.331,2.786L4.313,2.777C4.305,2.773 4.294,2.768 4.273,2.757C4.255,2.747 4.237,2.738 4.22,2.727L4.213,2.74Z" style="fill:rgb(246,180,14);fill-rule:nonzero;"/>
    </g>
    <g transform="matrix(25.0564,0,0,25.0578,0,0)">
        <path d="M4.191,2.769L4.183,2.777L4.3,2.903L4.175,2.786L4.159,2.8C4.256,2.895 4.358,2.984 4.465,3.069C4.38,2.964 4.29,2.865 4.194,2.77L4.191,2.769Z" style="fill:rgb(246,180,14);fill-rule:nonzero;"/>
    </g>
    <g transform="matrix(25.0564,0,0,25.0578,0,0)">
        <path d="M4.243,2.679L4.239,2.69L4.394,2.761L4.234,2.702L4.225,2.72C4.351,2.77 4.48,2.814 4.611,2.851C4.492,2.787 4.37,2.73 4.246,2.679L4.243,2.679Z" style="fill:rgb(246,180,14);fill-rule:nonzero;"/>
    </g>
    <g transform="matrix(25.0564,0,0,25.0578,0,0)">
        <path d="M4.152,2.805L4.14,2.814C4.148,2.826 4.156,2.838 4.165,2.849C4.174,2.86 4.185,2.872 4.195,2.883C4.206,2.895 4.215,2.907 4.222,2.921C4.229,2.935 4.234,2.949 4.238,2.964C4.233,2.95 4.227,2.936 4.219,2.923C4.211,2.91 4.201,2.898 4.19,2.888C4.179,2.878 4.168,2.867 4.158,2.855C4.148,2.844 4.139,2.833 4.13,2.821L4.118,2.828L4.119,2.83L4.16,2.879C4.174,2.895 4.188,2.913 4.2,2.931C4.206,2.94 4.211,2.949 4.215,2.959L4.23,2.99C4.24,3.013 4.253,3.034 4.267,3.055C4.278,3.067 4.291,3.077 4.306,3.085C4.32,3.091 4.331,3.103 4.338,3.117C4.343,3.128 4.346,3.139 4.347,3.151L4.35,3.164C4.353,3.165 4.362,3.155 4.366,3.143C4.368,3.124 4.362,3.105 4.349,3.09C4.338,3.075 4.326,3.06 4.312,3.048C4.303,3.039 4.294,3.03 4.287,3.02C4.274,3.003 4.265,2.984 4.261,2.963C4.256,2.94 4.246,2.919 4.232,2.902L4.219,2.887C4.213,2.88 4.205,2.871 4.19,2.853C4.177,2.837 4.164,2.821 4.152,2.805Z" style="fill:rgb(246,180,14);fill-rule:nonzero;"/>
    </g>
    <g transform="matrix(25.0564,0,0,25.0578,0,0)">
        <path d="M4.252,2.644C4.266,2.647 4.28,2.649 4.295,2.651C4.309,2.653 4.325,2.653 4.34,2.654C4.356,2.655 4.371,2.657 4.386,2.662C4.4,2.667 4.414,2.673 4.428,2.681C4.414,2.674 4.4,2.669 4.385,2.665C4.37,2.661 4.355,2.66 4.34,2.66C4.325,2.66 4.309,2.661 4.294,2.66C4.279,2.659 4.264,2.658 4.249,2.656L4.246,2.67L4.248,2.671L4.311,2.677C4.333,2.678 4.355,2.681 4.377,2.685C4.387,2.687 4.398,2.691 4.408,2.695L4.44,2.706C4.463,2.715 4.488,2.722 4.512,2.725C4.529,2.727 4.545,2.725 4.561,2.72C4.575,2.715 4.591,2.714 4.606,2.719C4.618,2.724 4.628,2.73 4.637,2.738L4.648,2.744C4.651,2.743 4.651,2.73 4.644,2.719C4.636,2.704 4.619,2.699 4.595,2.694C4.577,2.69 4.558,2.688 4.539,2.689C4.527,2.69 4.514,2.689 4.502,2.688C4.481,2.685 4.46,2.677 4.443,2.665C4.424,2.653 4.402,2.645 4.379,2.642L4.359,2.641C4.351,2.641 4.338,2.64 4.315,2.638C4.295,2.636 4.275,2.633 4.255,2.631L4.252,2.644Z" style="fill:rgb(246,180,14);fill-rule:nonzero;"/>
    </g>
    <g transform="matrix(25.0564,0,0,25.0578,0,0)">
        <path d="M3.73,2.544C3.716,2.541 3.702,2.539 3.688,2.537C3.673,2.536 3.658,2.535 3.642,2.534C3.626,2.534 3.611,2.531 3.596,2.526C3.582,2.521 3.568,2.515 3.554,2.507C3.568,2.514 3.582,2.519 3.597,2.523C3.612,2.527 3.627,2.528 3.642,2.528C3.657,2.527 3.673,2.527 3.688,2.528C3.704,2.529 3.718,2.53 3.733,2.532L3.736,2.519L3.734,2.518L3.671,2.512C3.649,2.511 3.627,2.508 3.605,2.504C3.595,2.502 3.584,2.498 3.574,2.494L3.542,2.483C3.519,2.474 3.495,2.467 3.47,2.464C3.454,2.462 3.437,2.464 3.422,2.469C3.407,2.474 3.391,2.475 3.376,2.469C3.365,2.465 3.354,2.459 3.345,2.452L3.334,2.445C3.331,2.447 3.331,2.459 3.338,2.47C3.346,2.485 3.363,2.49 3.387,2.496C3.405,2.499 3.424,2.501 3.443,2.5C3.455,2.499 3.468,2.5 3.48,2.501C3.501,2.504 3.521,2.512 3.539,2.524C3.558,2.536 3.58,2.544 3.602,2.547L3.622,2.548C3.631,2.549 3.643,2.549 3.667,2.552C3.687,2.554 3.707,2.556 3.727,2.559L3.73,2.544Z" style="fill:rgb(246,180,14);fill-rule:nonzero;"/>
    </g>
    <g transform="matrix(25.0564,0,0,25.0578,0,0)">
        <path d="M4.256,2.576L4.257,2.588L4.428,2.594L4.257,2.601L4.256,2.621C4.391,2.619 4.527,2.61 4.662,2.594C4.528,2.58 4.393,2.574 4.259,2.575L4.256,2.576Z" style="fill:rgb(246,180,14);fill-rule:nonzero;"/>
    </g>
    <g transform="matrix(25.0564,0,0,25.0578,0,0)">
        <path d="M4.109,2.832L4.099,2.837L4.159,2.997L4.087,2.842L4.068,2.848C4.122,2.973 4.182,3.095 4.248,3.213C4.209,3.085 4.164,2.958 4.112,2.834L4.109,2.832Z" style="fill:rgb(246,180,14);fill-rule:nonzero;"/>
    </g>
    <g transform="matrix(25.0564,0,0,25.0578,0,0)">
        <path d="M4.059,2.851L4.045,2.855C4.048,2.869 4.051,2.883 4.055,2.896C4.059,2.91 4.064,2.925 4.069,2.94C4.075,2.954 4.078,2.969 4.079,2.985C4.081,3 4.08,3.016 4.078,3.031C4.079,3.016 4.079,3 4.076,2.985C4.074,2.97 4.07,2.956 4.063,2.942C4.057,2.928 4.051,2.914 4.046,2.899C4.04,2.885 4.036,2.871 4.032,2.857L4.019,2.858L4.019,2.861L4.038,2.922C4.045,2.942 4.051,2.963 4.055,2.985C4.057,2.996 4.058,3.007 4.058,3.017L4.06,3.052C4.061,3.077 4.064,3.101 4.07,3.126C4.075,3.141 4.083,3.156 4.094,3.168C4.104,3.18 4.111,3.195 4.112,3.21C4.112,3.222 4.11,3.234 4.107,3.246L4.105,3.259C4.108,3.26 4.119,3.255 4.127,3.245C4.136,3.228 4.138,3.208 4.131,3.19C4.128,3.171 4.122,3.153 4.114,3.136C4.108,3.125 4.104,3.113 4.101,3.101C4.095,3.081 4.094,3.059 4.099,3.038C4.103,3.016 4.102,2.993 4.096,2.971L4.09,2.952C4.087,2.944 4.083,2.932 4.076,2.909C4.069,2.89 4.064,2.87 4.059,2.851Z" style="fill:rgb(246,180,14);fill-rule:nonzero;"/>
    </g>
    <g transform="matrix(25.0564,0,0,25.0578,0,0)">
        <path d="M3.753,2.713L3.748,2.702L3.588,2.761L3.743,2.69L3.736,2.671C3.612,2.724 3.49,2.784 3.371,2.851C3.5,2.812 3.627,2.767 3.751,2.715L3.753,2.713Z" style="fill:rgb(246,180,14);fill-rule:nonzero;"/>
    </g>
    <g transform="matrix(25.0564,0,0,25.0578,0,0)">
        <path d="M3.771,2.744C3.759,2.752 3.747,2.76 3.736,2.769C3.725,2.778 3.713,2.789 3.702,2.799C3.69,2.809 3.677,2.818 3.664,2.825C3.65,2.832 3.636,2.838 3.621,2.841C3.635,2.837 3.649,2.83 3.662,2.822C3.675,2.814 3.687,2.805 3.697,2.794C3.707,2.783 3.718,2.772 3.73,2.761C3.741,2.751 3.752,2.741 3.764,2.733L3.757,2.721L3.755,2.722L3.706,2.762C3.69,2.777 3.673,2.79 3.654,2.803C3.645,2.809 3.636,2.814 3.625,2.818L3.595,2.833C3.572,2.843 3.55,2.855 3.53,2.87C3.518,2.881 3.508,2.894 3.5,2.908C3.494,2.922 3.482,2.934 3.468,2.941C3.457,2.946 3.445,2.949 3.433,2.95L3.42,2.953C3.419,2.956 3.429,2.965 3.441,2.969C3.46,2.971 3.479,2.965 3.493,2.952C3.509,2.941 3.524,2.929 3.536,2.915C3.545,2.906 3.554,2.897 3.564,2.89C3.581,2.877 3.601,2.868 3.622,2.864C3.644,2.86 3.665,2.85 3.683,2.836L3.698,2.822C3.705,2.816 3.714,2.808 3.732,2.793C3.748,2.78 3.764,2.768 3.78,2.756L3.771,2.744Z" style="fill:rgb(246,180,14);fill-rule:nonzero;"/>
    </g>
    <g transform="matrix(25.0564,0,0,25.0578,0,0)">
        <path d="M3.845,2.816C3.837,2.828 3.829,2.84 3.822,2.853C3.815,2.866 3.809,2.88 3.802,2.894C3.796,2.908 3.787,2.921 3.777,2.933C3.767,2.945 3.756,2.955 3.744,2.964C3.755,2.954 3.766,2.943 3.775,2.931C3.784,2.919 3.791,2.905 3.796,2.891C3.802,2.877 3.807,2.862 3.814,2.848C3.82,2.835 3.827,2.821 3.835,2.808L3.824,2.8L3.822,2.802L3.792,2.858C3.783,2.878 3.772,2.897 3.76,2.915C3.754,2.924 3.747,2.933 3.739,2.94L3.716,2.966C3.699,2.984 3.684,3.004 3.671,3.025C3.663,3.04 3.659,3.056 3.657,3.072C3.656,3.088 3.651,3.103 3.64,3.114C3.632,3.123 3.622,3.13 3.612,3.136L3.602,3.144C3.602,3.147 3.614,3.151 3.627,3.15C3.643,3.147 3.655,3.134 3.669,3.114C3.68,3.099 3.688,3.082 3.694,3.064C3.698,3.052 3.704,3.041 3.71,3.031C3.721,3.012 3.736,2.996 3.753,2.985C3.772,2.972 3.788,2.955 3.799,2.935L3.808,2.916C3.812,2.908 3.817,2.897 3.828,2.876C3.838,2.859 3.847,2.841 3.858,2.824L3.845,2.816Z" style="fill:rgb(246,180,14);fill-rule:nonzero;"/>
    </g>
    <g transform="matrix(25.0564,0,0,25.0578,0,0)">
        <path d="M3.816,2.794L3.808,2.786L3.682,2.903L3.799,2.777L3.785,2.762C3.69,2.859 3.601,2.962 3.517,3.068C3.621,2.983 3.72,2.893 3.815,2.797L3.816,2.794Z" style="fill:rgb(246,180,14);fill-rule:nonzero;"/>
    </g>
    <g transform="matrix(25.0564,0,0,25.0578,0,0)">
        <path d="M3.726,2.612L3.726,2.601L3.555,2.594L3.726,2.588L3.727,2.568C3.591,2.569 3.455,2.578 3.32,2.594C3.454,2.607 3.588,2.614 3.723,2.613L3.726,2.612Z" style="fill:rgb(246,180,14);fill-rule:nonzero;"/>
    </g>
    <g transform="matrix(25.0564,0,0,25.0578,0,0)">
        <path d="M3.731,2.648C3.716,2.651 3.702,2.654 3.689,2.658C3.675,2.662 3.66,2.667 3.645,2.673C3.631,2.678 3.616,2.681 3.6,2.683C3.585,2.684 3.569,2.683 3.554,2.681C3.569,2.682 3.585,2.682 3.6,2.679C3.615,2.677 3.63,2.673 3.643,2.666C3.657,2.66 3.671,2.654 3.686,2.649C3.7,2.643 3.714,2.639 3.729,2.635L3.727,2.622L3.724,2.622L3.665,2.64L3.664,2.64C3.643,2.648 3.622,2.654 3.6,2.658C3.589,2.66 3.578,2.661 3.568,2.661L3.533,2.663C3.508,2.664 3.484,2.667 3.459,2.673C3.444,2.678 3.429,2.686 3.417,2.697C3.405,2.707 3.39,2.714 3.375,2.715C3.363,2.715 3.351,2.713 3.339,2.71L3.326,2.708C3.325,2.711 3.33,2.722 3.34,2.73C3.357,2.739 3.377,2.741 3.395,2.735C3.413,2.731 3.431,2.725 3.448,2.717C3.46,2.712 3.471,2.707 3.483,2.704C3.504,2.699 3.526,2.698 3.547,2.702C3.569,2.707 3.592,2.706 3.614,2.699L3.633,2.693C3.641,2.69 3.653,2.686 3.676,2.679C3.695,2.673 3.715,2.667 3.734,2.662L3.731,2.648Z" style="fill:rgb(246,180,14);fill-rule:nonzero;"/>
    </g>
    <g transform="matrix(25.0564,0,0,25.0578,0,0)">
        <path d="M3.997,2.86L3.991,3.031L3.985,2.86L3.965,2.859C3.966,2.995 3.975,3.13 3.991,3.265C4.005,3.131 4.011,2.997 4.01,2.862L4.009,2.859L3.997,2.86Z" style="fill:rgb(246,180,14);fill-rule:nonzero;"/>
    </g>
    <g transform="matrix(25.0564,0,0,25.0578,0,0)">
        <path d="M3.934,2.898C3.932,2.913 3.932,2.928 3.931,2.943C3.93,2.959 3.928,2.974 3.923,2.989C3.918,3.004 3.912,3.018 3.904,3.031C3.911,3.017 3.916,3.003 3.92,2.988C3.923,2.973 3.925,2.958 3.925,2.943C3.925,2.928 3.924,2.912 3.925,2.897C3.926,2.882 3.927,2.867 3.929,2.852L3.916,2.849L3.915,2.851L3.909,2.914C3.907,2.936 3.905,2.958 3.901,2.98C3.898,2.99 3.895,3.001 3.891,3.011L3.88,3.043C3.871,3.067 3.864,3.091 3.861,3.115C3.859,3.132 3.861,3.148 3.866,3.164C3.872,3.178 3.872,3.195 3.867,3.209C3.862,3.221 3.856,3.231 3.849,3.24L3.842,3.252C3.844,3.254 3.856,3.254 3.867,3.247C3.882,3.239 3.887,3.223 3.893,3.198C3.896,3.18 3.898,3.161 3.897,3.142C3.896,3.13 3.897,3.117 3.898,3.105C3.901,3.084 3.908,3.064 3.92,3.046C3.933,3.027 3.941,3.005 3.943,2.983L3.945,2.963C3.945,2.954 3.946,2.942 3.948,2.918C3.95,2.898 3.952,2.878 3.955,2.858L3.941,2.855C3.938,2.869 3.936,2.884 3.934,2.898Z" style="fill:rgb(246,180,14);fill-rule:nonzero;"/>
    </g>
    <g transform="matrix(25.0564,0,0,25.0578,0,0)">
        <path d="M3.906,2.846L3.895,2.842L3.824,2.998L3.884,2.838L3.866,2.829C3.815,2.955 3.772,3.083 3.735,3.214C3.798,3.096 3.856,2.974 3.907,2.849L3.906,2.846Z" style="fill:rgb(246,180,14);fill-rule:nonzero;"/>
    </g>
    <g transform="matrix(25.0564,0,0,25.0578,0,0)">
        <path d="M3.697,2.621L3.662,2.632L3.661,2.632C3.641,2.639 3.62,2.645 3.599,2.649C3.588,2.651 3.578,2.652 3.567,2.652L3.533,2.654C3.507,2.655 3.482,2.658 3.457,2.664C3.44,2.67 3.425,2.678 3.412,2.689C3.401,2.699 3.388,2.704 3.374,2.705C3.363,2.706 3.352,2.704 3.341,2.701C3.331,2.698 3.323,2.696 3.319,2.702C3.313,2.711 3.323,2.727 3.335,2.736C3.344,2.743 3.355,2.746 3.367,2.746C3.377,2.746 3.387,2.745 3.397,2.742C3.416,2.739 3.435,2.733 3.452,2.724C3.463,2.719 3.474,2.715 3.486,2.712C3.505,2.707 3.526,2.706 3.546,2.71C3.569,2.715 3.594,2.714 3.617,2.707L3.637,2.7C3.645,2.697 3.657,2.693 3.679,2.686L3.688,2.684C3.352,2.84 3.356,2.849 3.358,2.856L3.365,2.859C3.49,2.827 3.612,2.784 3.73,2.731L3.701,2.755C3.685,2.77 3.668,2.783 3.65,2.795C3.642,2.801 3.632,2.806 3.623,2.81L3.591,2.825C3.568,2.835 3.546,2.848 3.525,2.863C3.512,2.875 3.501,2.888 3.493,2.903C3.487,2.916 3.477,2.926 3.465,2.933C3.455,2.937 3.444,2.94 3.433,2.941C3.423,2.942 3.414,2.943 3.413,2.951C3.411,2.961 3.425,2.972 3.44,2.976L3.451,2.978C3.469,2.976 3.485,2.969 3.499,2.958C3.516,2.948 3.531,2.935 3.544,2.92C3.552,2.911 3.56,2.903 3.57,2.896C3.586,2.884 3.604,2.875 3.624,2.871C3.648,2.867 3.67,2.856 3.689,2.841L3.704,2.828C3.711,2.822 3.72,2.814 3.738,2.799L3.745,2.793C3.495,3.066 3.502,3.073 3.507,3.078L3.51,3.08C3.52,3.08 3.56,3.052 3.803,2.821L3.785,2.854C3.776,2.874 3.765,2.893 3.753,2.911C3.747,2.919 3.741,2.927 3.733,2.935L3.71,2.961C3.692,2.98 3.677,3 3.664,3.022C3.656,3.038 3.651,3.054 3.649,3.072C3.649,3.086 3.643,3.099 3.634,3.11C3.627,3.118 3.618,3.125 3.608,3.13C3.599,3.135 3.592,3.139 3.593,3.147C3.595,3.154 3.608,3.16 3.621,3.16L3.628,3.16C3.648,3.157 3.661,3.142 3.676,3.12C3.687,3.104 3.696,3.087 3.702,3.068C3.706,3.057 3.711,3.046 3.717,3.035C3.727,3.017 3.741,3.003 3.758,2.992C3.778,2.978 3.794,2.96 3.806,2.939L3.816,2.921C3.82,2.913 3.825,2.902 3.836,2.881L3.84,2.873C3.713,3.221 3.722,3.224 3.729,3.227L3.731,3.228C3.739,3.228 3.76,3.201 3.904,2.876L3.9,2.913C3.899,2.935 3.896,2.957 3.892,2.978C3.89,2.988 3.887,2.998 3.883,3.008L3.872,3.04C3.862,3.064 3.855,3.089 3.852,3.115C3.85,3.132 3.852,3.149 3.857,3.166C3.862,3.179 3.862,3.193 3.858,3.206C3.854,3.217 3.848,3.227 3.841,3.235C3.835,3.243 3.83,3.25 3.834,3.256C3.837,3.26 3.842,3.262 3.848,3.262C3.856,3.261 3.864,3.259 3.871,3.255C3.889,3.242 3.899,3.222 3.901,3.2C3.905,3.181 3.906,3.161 3.905,3.142C3.905,3.13 3.905,3.118 3.907,3.106C3.909,3.086 3.916,3.067 3.928,3.05C3.941,3.03 3.949,3.007 3.952,2.983L3.954,2.962C3.954,2.954 3.955,2.941 3.957,2.918L3.958,2.909C3.974,3.274 3.983,3.279 3.991,3.279C3.998,3.279 4.008,3.279 4.018,2.887L4.029,2.924C4.036,2.944 4.042,2.965 4.046,2.986C4.048,2.996 4.049,3.007 4.049,3.017L4.051,3.052C4.052,3.077 4.055,3.103 4.061,3.128C4.067,3.144 4.075,3.16 4.086,3.173C4.096,3.183 4.101,3.196 4.102,3.21C4.102,3.221 4.101,3.232 4.098,3.243C4.095,3.253 4.093,3.261 4.099,3.265L4.106,3.267C4.117,3.266 4.127,3.259 4.134,3.25C4.144,3.231 4.147,3.209 4.14,3.189C4.137,3.169 4.13,3.151 4.122,3.133C4.117,3.122 4.112,3.111 4.109,3.1C4.104,3.08 4.103,3.06 4.107,3.04C4.112,3.016 4.111,2.992 4.104,2.969L4.098,2.949C4.095,2.941 4.09,2.929 4.084,2.907L4.081,2.898C4.223,3.202 4.243,3.228 4.251,3.228L4.253,3.227C4.26,3.224 4.269,3.221 4.129,2.856L4.153,2.885C4.167,2.901 4.18,2.918 4.193,2.935C4.198,2.944 4.203,2.954 4.207,2.963L4.222,2.995C4.233,3.018 4.246,3.04 4.261,3.061C4.272,3.074 4.286,3.085 4.301,3.093C4.313,3.099 4.324,3.109 4.33,3.121C4.335,3.131 4.337,3.142 4.338,3.153C4.34,3.163 4.341,3.172 4.348,3.173L4.35,3.173C4.36,3.173 4.37,3.159 4.374,3.146C4.377,3.124 4.37,3.103 4.356,3.086C4.345,3.07 4.332,3.055 4.318,3.042C4.309,3.034 4.301,3.025 4.293,3.016C4.281,3 4.273,2.981 4.269,2.961C4.264,2.938 4.254,2.916 4.239,2.897L4.225,2.881C4.219,2.875 4.211,2.866 4.196,2.847L4.191,2.84C4.423,3.053 4.462,3.08 4.472,3.08L4.476,3.078C4.481,3.073 4.488,3.066 4.218,2.782L4.251,2.8C4.271,2.809 4.29,2.82 4.308,2.832C4.316,2.838 4.325,2.844 4.332,2.852L4.358,2.875C4.376,2.893 4.397,2.908 4.419,2.921C4.434,2.929 4.451,2.934 4.469,2.936C4.483,2.936 4.496,2.941 4.507,2.951C4.515,2.958 4.521,2.967 4.527,2.977C4.531,2.985 4.535,2.992 4.541,2.992L4.543,2.992C4.553,2.99 4.558,2.972 4.556,2.957C4.554,2.938 4.539,2.924 4.517,2.909C4.501,2.898 4.483,2.889 4.465,2.883C4.454,2.879 4.443,2.874 4.432,2.868C4.415,2.858 4.4,2.844 4.389,2.827C4.376,2.807 4.358,2.79 4.337,2.779L4.318,2.769C4.31,2.765 4.299,2.76 4.278,2.749L4.27,2.745C4.383,2.793 4.499,2.831 4.618,2.86L4.624,2.856C4.627,2.849 4.631,2.84 4.273,2.682L4.311,2.685C4.332,2.686 4.354,2.689 4.375,2.693C4.386,2.695 4.396,2.698 4.405,2.702L4.438,2.714C4.462,2.723 4.487,2.73 4.512,2.734C4.529,2.735 4.547,2.733 4.563,2.728C4.576,2.723 4.591,2.723 4.604,2.727C4.614,2.731 4.624,2.737 4.633,2.744C4.637,2.748 4.643,2.751 4.649,2.753L4.654,2.751C4.662,2.745 4.66,2.727 4.652,2.714C4.639,2.697 4.619,2.686 4.597,2.685C4.578,2.68 4.558,2.679 4.539,2.68C4.527,2.681 4.515,2.68 4.503,2.679C4.483,2.676 4.464,2.669 4.447,2.658C4.427,2.644 4.404,2.636 4.381,2.633L4.36,2.631C4.351,2.631 4.339,2.63 4.316,2.628L4.307,2.627C4.677,2.611 4.677,2.602 4.677,2.594C4.677,2.586 4.677,2.577 4.285,2.567L4.321,2.556C4.342,2.549 4.362,2.543 4.384,2.538C4.394,2.536 4.404,2.535 4.415,2.535L4.449,2.534C4.475,2.533 4.501,2.53 4.526,2.524C4.542,2.518 4.557,2.509 4.57,2.499C4.58,2.489 4.593,2.483 4.607,2.482C4.618,2.482 4.629,2.484 4.64,2.487C4.65,2.49 4.658,2.492 4.662,2.485C4.668,2.477 4.659,2.461 4.647,2.452C4.628,2.441 4.605,2.438 4.585,2.445C4.566,2.449 4.547,2.455 4.529,2.464C4.519,2.469 4.508,2.473 4.496,2.476C4.476,2.481 4.456,2.482 4.436,2.478C4.413,2.473 4.388,2.474 4.365,2.481L4.345,2.487C4.337,2.49 4.325,2.495 4.303,2.502L4.294,2.504C4.63,2.348 4.626,2.339 4.623,2.332C4.62,2.325 4.616,2.316 4.251,2.456L4.28,2.432C4.296,2.418 4.314,2.405 4.331,2.392C4.341,2.387 4.35,2.382 4.36,2.378L4.391,2.363C4.415,2.352 4.437,2.339 4.458,2.324C4.471,2.313 4.482,2.299 4.49,2.284C4.496,2.272 4.505,2.261 4.518,2.255C4.528,2.251 4.539,2.248 4.55,2.246C4.56,2.245 4.568,2.244 4.57,2.236C4.572,2.226 4.557,2.215 4.543,2.211C4.521,2.208 4.5,2.215 4.483,2.229C4.467,2.24 4.452,2.253 4.439,2.267C4.431,2.276 4.422,2.284 4.413,2.291C4.397,2.304 4.378,2.312 4.358,2.316C4.335,2.321 4.313,2.331 4.294,2.346L4.278,2.36C4.271,2.366 4.262,2.374 4.244,2.389L4.237,2.395C4.487,2.122 4.481,2.115 4.475,2.11C4.47,2.105 4.463,2.098 4.18,2.367L4.197,2.334C4.206,2.315 4.217,2.296 4.229,2.278C4.235,2.269 4.242,2.261 4.249,2.253L4.272,2.228C4.29,2.209 4.305,2.189 4.318,2.167C4.326,2.151 4.331,2.134 4.333,2.117C4.333,2.103 4.339,2.089 4.348,2.079C4.355,2.071 4.364,2.064 4.374,2.059C4.383,2.054 4.39,2.05 4.389,2.042C4.387,2.032 4.369,2.027 4.354,2.029C4.334,2.032 4.321,2.047 4.306,2.068C4.295,2.085 4.286,2.102 4.28,2.121C4.276,2.132 4.271,2.143 4.265,2.153C4.255,2.171 4.241,2.185 4.224,2.197C4.204,2.21 4.187,2.228 4.176,2.249L4.166,2.268C4.162,2.276 4.157,2.287 4.146,2.308L4.141,2.316C4.268,1.967 4.26,1.964 4.252,1.961C4.245,1.958 4.236,1.955 4.078,2.312L4.081,2.275C4.083,2.253 4.086,2.231 4.09,2.21C4.092,2.2 4.095,2.19 4.099,2.18L4.11,2.148C4.119,2.124 4.126,2.099 4.13,2.073C4.131,2.056 4.129,2.039 4.124,2.022C4.119,2.009 4.119,1.995 4.124,1.982C4.128,1.971 4.133,1.962 4.14,1.953C4.146,1.945 4.151,1.938 4.147,1.932C4.141,1.923 4.123,1.926 4.11,1.933C4.093,1.946 4.082,1.966 4.081,1.988C4.077,2.007 4.075,2.027 4.076,2.046C4.077,2.058 4.076,2.07 4.075,2.082C4.072,2.102 4.065,2.121 4.054,2.138C4.04,2.158 4.032,2.181 4.029,2.204L4.028,2.225C4.028,2.234 4.027,2.246 4.025,2.27L4.024,2.279C4.007,1.909 3.998,1.909 3.99,1.909C3.983,1.909 3.973,1.909 3.963,2.3L3.952,2.264C3.945,2.244 3.939,2.223 3.935,2.202C3.933,2.191 3.932,2.181 3.932,2.17L3.93,2.136C3.929,2.11 3.926,2.085 3.92,2.06C3.914,2.044 3.906,2.028 3.895,2.015C3.886,2.005 3.88,1.992 3.879,1.978C3.879,1.966 3.88,1.955 3.883,1.945C3.886,1.935 3.888,1.927 3.882,1.923C3.873,1.917 3.857,1.926 3.848,1.938C3.837,1.957 3.835,1.979 3.842,2C3.846,2.019 3.852,2.038 3.86,2.056C3.866,2.066 3.87,2.077 3.873,2.089C3.878,2.109 3.879,2.129 3.875,2.149C3.87,2.172 3.871,2.197 3.878,2.22L3.884,2.24C3.887,2.248 3.891,2.26 3.898,2.282L3.901,2.291C3.744,1.955 3.736,1.959 3.729,1.962C3.722,1.965 3.713,1.969 3.853,2.334L3.83,2.304C3.816,2.288 3.802,2.271 3.79,2.253C3.784,2.244 3.779,2.235 3.775,2.225L3.76,2.194C3.75,2.17 3.737,2.148 3.721,2.128C3.71,2.115 3.697,2.104 3.681,2.095C3.669,2.09 3.658,2.08 3.652,2.067C3.648,2.057 3.645,2.046 3.644,2.035C3.643,2.025 3.641,2.017 3.634,2.015C3.624,2.013 3.613,2.028 3.609,2.042C3.606,2.064 3.612,2.085 3.627,2.102C3.637,2.118 3.65,2.133 3.665,2.146C3.674,2.154 3.682,2.163 3.689,2.172C3.701,2.188 3.71,2.207 3.713,2.227C3.718,2.25 3.728,2.272 3.744,2.291L3.757,2.307C3.763,2.313 3.771,2.322 3.786,2.341L3.792,2.348C3.519,2.098 3.512,2.104 3.507,2.11C3.502,2.115 3.495,2.122 3.764,2.405L3.731,2.388C3.712,2.378 3.693,2.368 3.675,2.356C3.666,2.35 3.658,2.343 3.65,2.336L3.625,2.313C3.606,2.295 3.586,2.28 3.564,2.266C3.548,2.259 3.531,2.254 3.514,2.252C3.5,2.252 3.486,2.246 3.476,2.237C3.468,2.229 3.461,2.22 3.456,2.211C3.451,2.202 3.447,2.195 3.439,2.196C3.429,2.198 3.424,2.216 3.426,2.231C3.429,2.251 3.444,2.264 3.466,2.279C3.482,2.29 3.499,2.299 3.518,2.305C3.529,2.309 3.54,2.314 3.55,2.32C3.568,2.33 3.582,2.344 3.593,2.361C3.607,2.381 3.625,2.397 3.646,2.409L3.664,2.419C3.672,2.423 3.683,2.428 3.704,2.439L3.712,2.443C3.364,2.316 3.361,2.325 3.358,2.332C3.355,2.339 3.351,2.348 3.709,2.507L3.672,2.504C3.65,2.502 3.629,2.5 3.607,2.496C3.597,2.494 3.587,2.491 3.577,2.486L3.545,2.475C3.521,2.466 3.496,2.459 3.471,2.455C3.453,2.454 3.436,2.456 3.419,2.461C3.406,2.466 3.392,2.466 3.379,2.461C3.368,2.457 3.359,2.452 3.35,2.445C3.342,2.438 3.335,2.433 3.329,2.438C3.32,2.443 3.323,2.462 3.33,2.475C3.343,2.492 3.363,2.503 3.385,2.504C3.404,2.508 3.424,2.51 3.443,2.508C3.455,2.508 3.467,2.508 3.479,2.51C3.499,2.512 3.518,2.52 3.535,2.531C3.555,2.544 3.578,2.553 3.601,2.555L3.622,2.557C3.631,2.557 3.643,2.558 3.667,2.56L3.676,2.561C3.306,2.577 3.306,2.586 3.306,2.594C3.306,2.602 3.306,2.611 3.697,2.621ZM3.676,2.678C3.653,2.685 3.641,2.69 3.633,2.693L3.614,2.699C3.592,2.705 3.569,2.706 3.546,2.702C3.526,2.698 3.504,2.698 3.483,2.704C3.471,2.707 3.46,2.711 3.448,2.717C3.431,2.725 3.413,2.731 3.395,2.734C3.377,2.741 3.357,2.739 3.34,2.73C3.33,2.722 3.325,2.711 3.326,2.708L3.339,2.71C3.351,2.713 3.363,2.715 3.375,2.715C3.39,2.714 3.405,2.707 3.417,2.697C3.429,2.686 3.444,2.678 3.459,2.673C3.484,2.667 3.509,2.664 3.533,2.663L3.568,2.661C3.578,2.661 3.589,2.66 3.6,2.658C3.622,2.654 3.643,2.648 3.664,2.641L3.665,2.641L3.724,2.622L3.727,2.622L3.728,2.636C3.714,2.64 3.7,2.644 3.686,2.649C3.672,2.654 3.657,2.661 3.643,2.667C3.629,2.673 3.615,2.677 3.6,2.679C3.585,2.681 3.57,2.682 3.554,2.681C3.569,2.683 3.585,2.684 3.6,2.682C3.615,2.681 3.631,2.678 3.645,2.672C3.66,2.667 3.674,2.662 3.689,2.658C3.703,2.653 3.716,2.651 3.73,2.648L3.734,2.662C3.715,2.667 3.695,2.673 3.676,2.678ZM3.371,2.851C3.49,2.784 3.612,2.724 3.736,2.671L3.743,2.69L3.588,2.761L3.748,2.702L3.753,2.713L3.75,2.715C3.626,2.766 3.5,2.812 3.371,2.851ZM3.732,2.793C3.714,2.808 3.705,2.816 3.698,2.822L3.683,2.835C3.665,2.849 3.644,2.859 3.622,2.864C3.601,2.868 3.581,2.877 3.564,2.89C3.554,2.897 3.545,2.906 3.537,2.915C3.524,2.929 3.51,2.941 3.494,2.952C3.48,2.965 3.46,2.971 3.441,2.969C3.429,2.965 3.42,2.957 3.42,2.953L3.433,2.95C3.445,2.949 3.457,2.946 3.468,2.941C3.482,2.934 3.493,2.923 3.5,2.909C3.508,2.894 3.518,2.881 3.53,2.871C3.55,2.856 3.572,2.843 3.595,2.833L3.625,2.818C3.635,2.814 3.645,2.809 3.654,2.803C3.672,2.791 3.69,2.777 3.706,2.762L3.755,2.722L3.757,2.721L3.764,2.733C3.752,2.742 3.741,2.752 3.73,2.762C3.719,2.772 3.708,2.783 3.697,2.794C3.687,2.805 3.675,2.815 3.662,2.823C3.649,2.831 3.635,2.837 3.62,2.842C3.635,2.838 3.65,2.833 3.664,2.826C3.677,2.819 3.69,2.81 3.702,2.799C3.713,2.789 3.724,2.778 3.736,2.769C3.748,2.76 3.759,2.752 3.771,2.744L3.779,2.756C3.764,2.767 3.748,2.78 3.732,2.793ZM3.517,3.068C3.601,2.962 3.69,2.859 3.785,2.762L3.799,2.777L3.682,2.903L3.808,2.786L3.816,2.794L3.815,2.797C3.72,2.893 3.621,2.983 3.517,3.068ZM3.828,2.877C3.817,2.898 3.811,2.909 3.808,2.917L3.799,2.935C3.788,2.955 3.772,2.972 3.753,2.985C3.735,2.997 3.72,3.012 3.71,3.031C3.703,3.042 3.698,3.053 3.694,3.065C3.688,3.082 3.679,3.099 3.669,3.115C3.655,3.135 3.643,3.148 3.627,3.15C3.614,3.152 3.602,3.147 3.602,3.144L3.612,3.137C3.622,3.131 3.632,3.124 3.64,3.115C3.65,3.103 3.656,3.088 3.657,3.073C3.659,3.056 3.663,3.04 3.671,3.026C3.683,3.004 3.699,2.985 3.716,2.967L3.739,2.941C3.747,2.933 3.754,2.925 3.76,2.916C3.772,2.897 3.783,2.878 3.792,2.858L3.822,2.802L3.824,2.801L3.835,2.809C3.827,2.822 3.82,2.835 3.814,2.849C3.807,2.863 3.802,2.877 3.796,2.892C3.791,2.906 3.784,2.919 3.775,2.932C3.766,2.944 3.755,2.955 3.744,2.965C3.756,2.956 3.768,2.945 3.777,2.934C3.788,2.922 3.796,2.909 3.802,2.895C3.809,2.881 3.815,2.867 3.822,2.854C3.83,2.84 3.837,2.829 3.845,2.817L3.858,2.825C3.847,2.841 3.837,2.859 3.828,2.877ZM3.734,3.214C3.771,3.083 3.815,2.954 3.865,2.828L3.883,2.837L3.823,2.997L3.895,2.842L3.906,2.846L3.906,2.849C3.855,2.973 3.798,3.095 3.734,3.214ZM3.948,2.918C3.946,2.941 3.945,2.954 3.945,2.962L3.943,2.982C3.941,3.005 3.933,3.027 3.92,3.046C3.908,3.063 3.901,3.084 3.898,3.105C3.896,3.117 3.896,3.13 3.897,3.142C3.898,3.161 3.896,3.18 3.892,3.198C3.887,3.222 3.882,3.239 3.867,3.247C3.856,3.254 3.843,3.254 3.842,3.251L3.848,3.24C3.856,3.231 3.862,3.22 3.866,3.209C3.871,3.194 3.871,3.178 3.866,3.164C3.861,3.148 3.859,3.131 3.861,3.115C3.864,3.091 3.871,3.066 3.88,3.043L3.891,3.011C3.895,3.001 3.899,2.99 3.901,2.98C3.905,2.958 3.908,2.936 3.909,2.914L3.915,2.851L3.916,2.849L3.929,2.852C3.927,2.867 3.926,2.882 3.925,2.897C3.924,2.912 3.925,2.928 3.925,2.943C3.925,2.958 3.924,2.973 3.92,2.988C3.917,3.003 3.911,3.017 3.904,3.031C3.912,3.018 3.919,3.004 3.923,2.989C3.928,2.974 3.931,2.959 3.931,2.943C3.932,2.928 3.933,2.913 3.934,2.898C3.936,2.882 3.939,2.869 3.941,2.855L3.956,2.858C3.953,2.877 3.95,2.898 3.948,2.918ZM3.991,3.265C3.975,3.13 3.966,2.994 3.964,2.859L3.984,2.86L3.991,3.031L3.997,2.86L4.009,2.86L4.01,2.863C4.011,2.997 4.004,3.131 3.991,3.265ZM4.09,2.952L4.096,2.971C4.103,2.993 4.104,3.016 4.099,3.039C4.095,3.059 4.096,3.081 4.101,3.102C4.104,3.114 4.109,3.125 4.114,3.137C4.122,3.154 4.128,3.172 4.132,3.19C4.138,3.208 4.136,3.228 4.127,3.245C4.119,3.255 4.108,3.26 4.105,3.259L4.107,3.246C4.11,3.234 4.112,3.222 4.111,3.21C4.11,3.194 4.104,3.179 4.093,3.168C4.083,3.155 4.075,3.141 4.07,3.126C4.064,3.101 4.061,3.077 4.06,3.052L4.058,3.018C4.058,3.007 4.057,2.996 4.055,2.985C4.051,2.963 4.045,2.942 4.037,2.922L4.019,2.861L4.019,2.858L4.032,2.857C4.036,2.871 4.04,2.885 4.045,2.899C4.051,2.913 4.057,2.928 4.063,2.942C4.069,2.956 4.074,2.97 4.076,2.985C4.078,3 4.079,3.016 4.078,3.031C4.08,3.016 4.08,3 4.079,2.985C4.078,2.969 4.075,2.954 4.069,2.94C4.064,2.925 4.059,2.911 4.055,2.896C4.05,2.882 4.048,2.869 4.045,2.855L4.059,2.851C4.064,2.871 4.069,2.89 4.075,2.909C4.082,2.932 4.086,2.944 4.09,2.952ZM4.248,3.214C4.182,3.095 4.122,2.973 4.068,2.849L4.087,2.842L4.158,2.998L4.098,2.838L4.109,2.832L4.111,2.835C4.163,2.958 4.209,3.085 4.247,3.214L4.248,3.214ZM4.219,2.887L4.232,2.902C4.246,2.92 4.256,2.941 4.26,2.963C4.265,2.984 4.274,3.004 4.287,3.021C4.294,3.031 4.303,3.04 4.312,3.048C4.326,3.061 4.338,3.075 4.349,3.091C4.361,3.105 4.368,3.125 4.365,3.144C4.362,3.156 4.353,3.165 4.35,3.165L4.347,3.152C4.346,3.14 4.343,3.128 4.338,3.117C4.331,3.103 4.32,3.092 4.305,3.085C4.291,3.078 4.278,3.068 4.267,3.055C4.253,3.035 4.24,3.013 4.23,2.99L4.215,2.96C4.211,2.95 4.206,2.94 4.2,2.931C4.188,2.913 4.174,2.895 4.159,2.879L4.119,2.83L4.118,2.828L4.13,2.821C4.139,2.833 4.148,2.844 4.159,2.855C4.169,2.867 4.18,2.877 4.191,2.888C4.202,2.898 4.212,2.91 4.22,2.923C4.228,2.936 4.234,2.95 4.239,2.964C4.235,2.949 4.229,2.935 4.223,2.921C4.215,2.907 4.206,2.895 4.196,2.883C4.186,2.872 4.175,2.861 4.166,2.849C4.157,2.837 4.149,2.826 4.141,2.814L4.152,2.805C4.164,2.821 4.177,2.837 4.19,2.853C4.205,2.871 4.213,2.88 4.219,2.887ZM4.465,3.068C4.358,2.984 4.256,2.895 4.159,2.8L4.174,2.786L4.3,2.903L4.184,2.777L4.192,2.769L4.194,2.77C4.29,2.865 4.38,2.964 4.465,3.068ZM4.273,2.757C4.294,2.769 4.305,2.774 4.313,2.777L4.331,2.786C4.352,2.797 4.369,2.813 4.381,2.832C4.393,2.85 4.409,2.865 4.428,2.875C4.438,2.882 4.45,2.887 4.461,2.891C4.479,2.897 4.496,2.906 4.511,2.916C4.531,2.93 4.545,2.942 4.547,2.958C4.549,2.971 4.544,2.983 4.541,2.983L4.533,2.973C4.528,2.963 4.52,2.953 4.512,2.945C4.5,2.935 4.485,2.929 4.469,2.928C4.453,2.926 4.437,2.922 4.422,2.914C4.401,2.901 4.381,2.886 4.363,2.869L4.338,2.846C4.33,2.838 4.322,2.831 4.313,2.825C4.294,2.813 4.275,2.802 4.255,2.793L4.199,2.763L4.198,2.761L4.206,2.75C4.219,2.758 4.232,2.765 4.246,2.771C4.26,2.778 4.274,2.783 4.288,2.789C4.303,2.794 4.316,2.801 4.328,2.81C4.341,2.819 4.352,2.83 4.362,2.841C4.352,2.829 4.342,2.818 4.33,2.808C4.318,2.798 4.305,2.789 4.291,2.783C4.277,2.777 4.263,2.77 4.25,2.763C4.237,2.756 4.225,2.748 4.213,2.74L4.221,2.728C4.238,2.738 4.255,2.748 4.273,2.757ZM4.611,2.851C4.48,2.814 4.351,2.77 4.225,2.72L4.234,2.702L4.394,2.761L4.239,2.69L4.243,2.679L4.246,2.679C4.37,2.73 4.492,2.787 4.611,2.851ZM4.314,2.637C4.338,2.639 4.35,2.64 4.359,2.64L4.379,2.642C4.402,2.644 4.424,2.652 4.443,2.665C4.46,2.677 4.48,2.684 4.502,2.687C4.514,2.689 4.526,2.689 4.539,2.688C4.558,2.687 4.577,2.689 4.595,2.693C4.619,2.698 4.636,2.704 4.644,2.718C4.651,2.729 4.651,2.742 4.648,2.743L4.637,2.737C4.628,2.729 4.617,2.723 4.606,2.719C4.591,2.714 4.575,2.714 4.56,2.719C4.545,2.724 4.528,2.726 4.512,2.725C4.487,2.721 4.463,2.714 4.44,2.705L4.408,2.694C4.398,2.69 4.387,2.686 4.377,2.684C4.355,2.68 4.333,2.677 4.311,2.676L4.248,2.67L4.246,2.67L4.249,2.657C4.264,2.659 4.279,2.661 4.294,2.661C4.308,2.662 4.325,2.661 4.34,2.661C4.355,2.661 4.37,2.662 4.385,2.666C4.4,2.669 4.414,2.675 4.428,2.682C4.414,2.674 4.4,2.667 4.386,2.663C4.371,2.658 4.356,2.655 4.34,2.654C4.325,2.653 4.31,2.653 4.295,2.651C4.279,2.649 4.266,2.647 4.252,2.644L4.254,2.63C4.274,2.632 4.294,2.635 4.314,2.637ZM4.662,2.594C4.527,2.61 4.391,2.619 4.255,2.621L4.257,2.601L4.428,2.594L4.257,2.588L4.256,2.576L4.259,2.575C4.393,2.574 4.528,2.581 4.662,2.594ZM4.306,2.51C4.329,2.503 4.34,2.499 4.349,2.496L4.368,2.49C4.39,2.483 4.413,2.482 4.435,2.487C4.456,2.491 4.478,2.49 4.499,2.485C4.511,2.481 4.522,2.477 4.534,2.472C4.55,2.463 4.569,2.458 4.587,2.454C4.605,2.448 4.625,2.449 4.642,2.459C4.652,2.467 4.657,2.478 4.656,2.481L4.643,2.479C4.631,2.475 4.619,2.474 4.607,2.474C4.591,2.475 4.577,2.481 4.565,2.492C4.552,2.502 4.538,2.51 4.523,2.515C4.498,2.521 4.473,2.525 4.449,2.525L4.414,2.527C4.403,2.527 4.393,2.528 4.382,2.53C4.36,2.535 4.339,2.541 4.318,2.548L4.258,2.567L4.255,2.567L4.254,2.553C4.268,2.55 4.282,2.545 4.296,2.54C4.31,2.535 4.325,2.529 4.339,2.522C4.353,2.516 4.367,2.512 4.382,2.509C4.397,2.507 4.412,2.507 4.428,2.508C4.412,2.506 4.397,2.505 4.382,2.506C4.366,2.507 4.351,2.511 4.336,2.516C4.322,2.522 4.308,2.526 4.293,2.531C4.279,2.535 4.266,2.538 4.251,2.541L4.248,2.527C4.267,2.521 4.287,2.516 4.306,2.51ZM4.611,2.338C4.492,2.404 4.37,2.464 4.246,2.518L4.239,2.498L4.394,2.427L4.234,2.486L4.229,2.476L4.231,2.474C4.355,2.422 4.482,2.376 4.611,2.338ZM4.25,2.396C4.268,2.38 4.277,2.372 4.284,2.366L4.299,2.352C4.317,2.338 4.338,2.329 4.36,2.324C4.381,2.32 4.401,2.312 4.418,2.298C4.428,2.291 4.437,2.282 4.445,2.273C4.458,2.259 4.472,2.247 4.488,2.236C4.502,2.224 4.521,2.218 4.541,2.22C4.553,2.223 4.562,2.232 4.561,2.235L4.549,2.238C4.537,2.239 4.525,2.243 4.514,2.247C4.5,2.254 4.489,2.266 4.482,2.28C4.475,2.294 4.464,2.307 4.452,2.318C4.432,2.333 4.41,2.345 4.388,2.356L4.356,2.37C4.346,2.374 4.337,2.379 4.328,2.385C4.309,2.398 4.292,2.411 4.276,2.426L4.227,2.466L4.225,2.467L4.218,2.455C4.23,2.446 4.241,2.437 4.252,2.427C4.263,2.417 4.274,2.405 4.285,2.394C4.295,2.383 4.307,2.373 4.32,2.365C4.333,2.358 4.347,2.351 4.361,2.347C4.346,2.35 4.332,2.356 4.318,2.363C4.304,2.37 4.291,2.379 4.28,2.39C4.269,2.4 4.258,2.411 4.246,2.42C4.234,2.429 4.223,2.437 4.211,2.445L4.202,2.433C4.218,2.421 4.234,2.408 4.25,2.396ZM4.465,2.12C4.381,2.227 4.292,2.329 4.197,2.426L4.183,2.411L4.3,2.285L4.175,2.402L4.166,2.393L4.167,2.391C4.262,2.296 4.361,2.205 4.465,2.12ZM4.154,2.312C4.165,2.291 4.171,2.28 4.174,2.272L4.183,2.254C4.194,2.233 4.21,2.216 4.229,2.204C4.247,2.192 4.261,2.176 4.272,2.157C4.278,2.147 4.284,2.135 4.288,2.124C4.294,2.106 4.302,2.089 4.313,2.074C4.327,2.054 4.339,2.04 4.355,2.038C4.368,2.036 4.38,2.041 4.38,2.044L4.37,2.052C4.36,2.057 4.35,2.065 4.342,2.073C4.331,2.085 4.325,2.1 4.325,2.116C4.323,2.132 4.319,2.148 4.311,2.163C4.298,2.184 4.283,2.204 4.266,2.222L4.243,2.247C4.235,2.255 4.228,2.263 4.222,2.272C4.21,2.291 4.199,2.31 4.19,2.33L4.16,2.386L4.158,2.388L4.148,2.379C4.155,2.367 4.162,2.353 4.168,2.34C4.175,2.326 4.181,2.311 4.186,2.297C4.191,2.283 4.198,2.27 4.207,2.257C4.216,2.245 4.227,2.234 4.239,2.224C4.226,2.233 4.215,2.244 4.205,2.255C4.195,2.267 4.186,2.28 4.18,2.294C4.174,2.308 4.167,2.322 4.16,2.335C4.153,2.349 4.145,2.36 4.137,2.372L4.125,2.364C4.135,2.347 4.145,2.329 4.154,2.312ZM4.248,1.975C4.211,2.105 4.167,2.234 4.117,2.36L4.099,2.351L4.158,2.191L4.087,2.346L4.076,2.342L4.076,2.34C4.126,2.215 4.184,2.093 4.248,1.975ZM4.034,2.271C4.036,2.247 4.036,2.235 4.037,2.226L4.039,2.206C4.041,2.183 4.049,2.161 4.061,2.143C4.073,2.125 4.081,2.105 4.084,2.083C4.085,2.071 4.086,2.059 4.085,2.046C4.084,2.027 4.086,2.008 4.09,1.99C4.095,1.966 4.101,1.949 4.115,1.941C4.126,1.935 4.139,1.934 4.141,1.937L4.134,1.948C4.126,1.957 4.12,1.968 4.116,1.979C4.111,1.994 4.111,2.01 4.116,2.025C4.121,2.04 4.122,2.057 4.121,2.073C4.117,2.098 4.111,2.122 4.102,2.145L4.091,2.177C4.086,2.188 4.083,2.198 4.081,2.209C4.077,2.23 4.074,2.252 4.073,2.275L4.067,2.337L4.066,2.34L4.053,2.336C4.055,2.321 4.056,2.306 4.057,2.292C4.058,2.277 4.057,2.261 4.057,2.245C4.057,2.23 4.058,2.215 4.062,2.2C4.066,2.185 4.071,2.171 4.078,2.157C4.07,2.17 4.064,2.184 4.059,2.199C4.054,2.214 4.051,2.229 4.051,2.245C4.05,2.26 4.05,2.275 4.048,2.29C4.046,2.306 4.044,2.319 4.041,2.333L4.027,2.331C4.029,2.311 4.032,2.291 4.034,2.271ZM3.991,1.923C4.007,2.058 4.016,2.194 4.018,2.33L3.998,2.328L3.991,2.157L3.985,2.328L3.973,2.329L3.972,2.326C3.971,2.192 3.978,2.057 3.991,1.923ZM3.991,2.333L4.022,2.334C4.153,2.35 4.253,2.462 4.253,2.594C4.253,2.738 4.135,2.856 3.991,2.856C3.848,2.856 3.729,2.738 3.729,2.594C3.729,2.451 3.847,2.333 3.991,2.333ZM3.893,2.236L3.886,2.217C3.88,2.195 3.879,2.172 3.883,2.15C3.888,2.129 3.887,2.107 3.881,2.087C3.878,2.075 3.874,2.063 3.868,2.052C3.86,2.035 3.854,2.017 3.851,1.998C3.844,1.98 3.846,1.96 3.855,1.943C3.863,1.933 3.875,1.928 3.877,1.93L3.875,1.943C3.872,1.954 3.87,1.966 3.871,1.978C3.871,1.994 3.878,2.009 3.888,2.02C3.899,2.033 3.907,2.047 3.912,2.063C3.918,2.087 3.921,2.112 3.922,2.137L3.924,2.171C3.924,2.182 3.925,2.193 3.927,2.203C3.931,2.225 3.937,2.246 3.944,2.267L3.963,2.328L3.963,2.33L3.95,2.331C3.946,2.317 3.942,2.303 3.937,2.289C3.932,2.275 3.925,2.26 3.919,2.246C3.913,2.232 3.909,2.218 3.906,2.203C3.904,2.188 3.903,2.173 3.905,2.157C3.902,2.173 3.902,2.188 3.903,2.203C3.904,2.219 3.908,2.234 3.913,2.249C3.918,2.263 3.923,2.277 3.928,2.292C3.932,2.306 3.935,2.319 3.938,2.334L3.924,2.337C3.919,2.318 3.914,2.298 3.907,2.279C3.9,2.256 3.895,2.245 3.892,2.236L3.893,2.236ZM3.735,1.974C3.801,2.093 3.861,2.215 3.915,2.339L3.895,2.346L3.824,2.191L3.884,2.351L3.873,2.356L3.872,2.353C3.819,2.23 3.773,2.103 3.734,1.974L3.735,1.974ZM3.763,2.301L3.75,2.286C3.736,2.268 3.726,2.247 3.721,2.225C3.717,2.204 3.709,2.184 3.696,2.167C3.688,2.157 3.679,2.148 3.67,2.14C3.656,2.127 3.644,2.113 3.633,2.097C3.62,2.083 3.614,2.064 3.616,2.045C3.62,2.032 3.629,2.023 3.632,2.024L3.635,2.036C3.636,2.048 3.639,2.06 3.644,2.071C3.651,2.085 3.662,2.096 3.677,2.103C3.691,2.111 3.704,2.121 3.715,2.133C3.729,2.154 3.742,2.175 3.752,2.198L3.767,2.229C3.771,2.239 3.776,2.249 3.782,2.258C3.794,2.276 3.808,2.293 3.823,2.31L3.863,2.358L3.864,2.361L3.852,2.367C3.843,2.356 3.834,2.344 3.824,2.333C3.813,2.322 3.802,2.311 3.791,2.3C3.78,2.29 3.77,2.278 3.763,2.265C3.755,2.252 3.748,2.238 3.744,2.223C3.747,2.238 3.753,2.253 3.76,2.267C3.767,2.28 3.776,2.293 3.786,2.305C3.796,2.316 3.807,2.327 3.816,2.339C3.826,2.351 3.833,2.362 3.841,2.374L3.83,2.383C3.818,2.367 3.805,2.351 3.793,2.335C3.777,2.317 3.769,2.308 3.763,2.301ZM3.517,2.12C3.623,2.204 3.726,2.294 3.823,2.388L3.808,2.402L3.682,2.286L3.799,2.411L3.791,2.42L3.788,2.418C3.692,2.324 3.602,2.224 3.517,2.12ZM3.708,2.431C3.687,2.42 3.676,2.415 3.668,2.411L3.65,2.402C3.63,2.391 3.613,2.375 3.6,2.356C3.588,2.338 3.572,2.323 3.554,2.313C3.543,2.306 3.532,2.301 3.52,2.297C3.502,2.291 3.485,2.282 3.47,2.272C3.45,2.258 3.437,2.246 3.434,2.23C3.433,2.217 3.437,2.205 3.44,2.205L3.448,2.215C3.454,2.225 3.461,2.235 3.47,2.243C3.481,2.253 3.496,2.259 3.512,2.26C3.528,2.262 3.544,2.266 3.559,2.274C3.58,2.287 3.6,2.302 3.618,2.319L3.644,2.342C3.651,2.349 3.66,2.356 3.669,2.363C3.687,2.375 3.707,2.386 3.726,2.395L3.782,2.425L3.784,2.427L3.776,2.438C3.763,2.43 3.75,2.423 3.736,2.417C3.722,2.41 3.707,2.405 3.693,2.399C3.679,2.394 3.665,2.387 3.653,2.378C3.641,2.369 3.63,2.358 3.62,2.347C3.629,2.359 3.639,2.37 3.651,2.38C3.663,2.39 3.676,2.399 3.69,2.405C3.704,2.412 3.718,2.418 3.731,2.425C3.744,2.432 3.756,2.44 3.768,2.448L3.761,2.46C3.744,2.45 3.726,2.44 3.708,2.431ZM3.371,2.338C3.502,2.374 3.631,2.418 3.757,2.468L3.748,2.487L3.588,2.427L3.743,2.499L3.739,2.51L3.736,2.51C3.611,2.459 3.49,2.401 3.371,2.337L3.371,2.338ZM3.668,2.552C3.644,2.549 3.632,2.549 3.623,2.548L3.603,2.547C3.58,2.544 3.558,2.536 3.539,2.524C3.522,2.512 3.501,2.504 3.48,2.501C3.468,2.5 3.455,2.499 3.443,2.5C3.424,2.501 3.405,2.5 3.387,2.496C3.362,2.491 3.346,2.485 3.338,2.471C3.331,2.459 3.331,2.447 3.334,2.445L3.345,2.452C3.354,2.459 3.364,2.465 3.376,2.47C3.39,2.475 3.407,2.475 3.421,2.469C3.437,2.464 3.454,2.463 3.47,2.464C3.495,2.467 3.519,2.474 3.542,2.483L3.574,2.494C3.584,2.498 3.595,2.502 3.606,2.504C3.627,2.508 3.649,2.511 3.671,2.512L3.734,2.518L3.736,2.519L3.733,2.532C3.718,2.53 3.703,2.528 3.688,2.528C3.674,2.527 3.657,2.528 3.642,2.528C3.627,2.528 3.612,2.527 3.597,2.523C3.583,2.519 3.568,2.514 3.555,2.507C3.568,2.515 3.582,2.522 3.597,2.526C3.611,2.531 3.627,2.534 3.642,2.534C3.658,2.535 3.672,2.536 3.688,2.537C3.703,2.539 3.716,2.541 3.73,2.544L3.728,2.559C3.708,2.556 3.688,2.553 3.668,2.551L3.668,2.552ZM3.726,2.568L3.725,2.588L3.554,2.594L3.725,2.601L3.725,2.612L3.722,2.613C3.588,2.614 3.454,2.607 3.32,2.594C3.455,2.578 3.591,2.569 3.726,2.568Z" style="fill:rgb(143,65,16);fill-rule:nonzero;"/>
    </g>
    <g transform="matrix(25.0564,0,0,25.0578,0,0)">
        <path d="M3.897,2.504L3.909,2.504L3.921,2.505C3.929,2.506 3.936,2.508 3.944,2.511C3.951,2.514 3.958,2.518 3.964,2.524C3.97,2.53 3.974,2.537 3.976,2.546L3.977,2.549C3.978,2.558 3.978,2.568 3.977,2.577C3.975,2.585 3.973,2.592 3.97,2.6C3.967,2.608 3.963,2.616 3.958,2.623L3.958,2.63L3.96,2.63L3.963,2.628C3.968,2.62 3.973,2.612 3.976,2.603C3.979,2.595 3.982,2.587 3.983,2.578C3.985,2.564 3.985,2.551 3.982,2.537C3.98,2.529 3.977,2.521 3.972,2.514C3.966,2.506 3.958,2.5 3.949,2.496C3.94,2.491 3.931,2.489 3.922,2.488C3.913,2.486 3.904,2.486 3.895,2.488C3.886,2.489 3.877,2.492 3.869,2.496C3.852,2.504 3.838,2.517 3.827,2.532C3.841,2.522 3.856,2.514 3.873,2.509C3.88,2.506 3.889,2.505 3.897,2.504Z" style="fill:rgb(143,65,16);fill-rule:nonzero;"/>
    </g>
    <g transform="matrix(25.0564,0,0,25.0578,0,0)">
        <path d="M4.006,2.603C4.01,2.612 4.014,2.621 4.019,2.629L4.023,2.63L4.025,2.629L4.026,2.623C4.021,2.616 4.017,2.608 4.013,2.6C4.01,2.593 4.008,2.585 4.007,2.577C4.005,2.565 4.005,2.553 4.008,2.541C4.01,2.535 4.014,2.529 4.019,2.524C4.024,2.519 4.031,2.514 4.038,2.511C4.046,2.508 4.053,2.506 4.061,2.505L4.073,2.504L4.085,2.504C4.093,2.505 4.101,2.506 4.109,2.509C4.125,2.514 4.14,2.522 4.154,2.533C4.144,2.517 4.13,2.504 4.113,2.496C4.105,2.492 4.096,2.489 4.086,2.488C4.077,2.487 4.068,2.487 4.059,2.488C4.05,2.489 4.041,2.492 4.033,2.496C4.024,2.5 4.016,2.506 4.01,2.514C4.004,2.523 4,2.533 3.999,2.544L3.999,2.548C3.998,2.558 3.998,2.568 3.999,2.578C4.001,2.587 4.003,2.595 4.006,2.603Z" style="fill:rgb(143,65,16);fill-rule:nonzero;"/>
    </g>
    <g transform="matrix(25.0564,0,0,25.0578,0,0)">
        <path d="M4.011,2.682L4.002,2.686C3.999,2.689 3.994,2.69 3.99,2.69L3.98,2.687C3.976,2.684 3.972,2.683 3.968,2.683C3.965,2.683 3.961,2.684 3.95,2.691C3.941,2.696 3.933,2.702 3.925,2.708L3.922,2.711L3.926,2.712C3.936,2.715 3.946,2.72 3.955,2.726L3.963,2.731L3.975,2.739L3.988,2.741C3.97,2.742 3.955,2.756 3.951,2.773L3.952,2.776L3.954,2.774C3.958,2.758 3.972,2.746 3.988,2.745C4.005,2.745 4.019,2.757 4.023,2.772L4.025,2.774L4.026,2.771C4.022,2.755 4.008,2.743 3.991,2.741L4.003,2.739L4.015,2.731L4.025,2.723C4.033,2.718 4.041,2.715 4.051,2.713L4.054,2.713L4.052,2.71C4.036,2.689 4.022,2.68 4.011,2.682ZM4.024,2.719L4.014,2.727L4.003,2.734C3.994,2.737 3.985,2.737 3.977,2.734L3.966,2.728L3.958,2.722C3.949,2.717 3.941,2.712 3.931,2.709L3.952,2.695C3.964,2.688 3.967,2.687 3.968,2.687C3.972,2.687 3.976,2.689 3.978,2.691L3.99,2.694C3.995,2.695 4,2.693 4.004,2.69L4.011,2.687C4.021,2.684 4.033,2.692 4.047,2.71C4.039,2.712 4.031,2.715 4.024,2.719Z" style="fill:rgb(143,65,16);fill-rule:nonzero;"/>
    </g>
    <g transform="matrix(25.0564,0,0,25.0578,0,0)">
        <path d="M4.004,2.707L3.995,2.711L3.987,2.713L3.98,2.71L3.974,2.706C3.966,2.702 3.957,2.702 3.949,2.706L3.948,2.708L3.95,2.71C3.957,2.707 3.965,2.707 3.972,2.71L3.978,2.714L3.986,2.718L3.988,2.718L3.997,2.715L4.004,2.711C4.011,2.709 4.017,2.709 4.024,2.71L4.026,2.708L4.024,2.706C4.017,2.704 4.01,2.705 4.004,2.707Z" style="fill:rgb(143,65,16);fill-rule:nonzero;"/>
    </g>
    <g transform="matrix(25.0564,0,0,25.0578,0,0)">
        <path d="M3.974,2.647L3.969,2.644L3.965,2.642L3.96,2.643L3.954,2.648L3.951,2.653L3.949,2.654L3.946,2.654L3.94,2.648L3.938,2.638L3.943,2.628L3.935,2.636C3.934,2.641 3.934,2.645 3.935,2.65L3.943,2.66L3.95,2.663L3.957,2.66L3.961,2.655L3.963,2.654L3.964,2.654L3.968,2.657L3.979,2.663C3.983,2.665 3.987,2.665 3.991,2.665L4.003,2.662L4.015,2.654L4.017,2.654L4.025,2.662L4.033,2.663L4.039,2.66L4.046,2.648C4.046,2.643 4.046,2.639 4.044,2.635L4.035,2.627C4.041,2.632 4.043,2.639 4.04,2.646L4.035,2.653L4.031,2.654L4.029,2.654L4.022,2.645L4.014,2.642L4.006,2.645L3.999,2.651L3.991,2.652L3.982,2.651L3.974,2.647Z" style="fill:rgb(143,65,16);fill-rule:nonzero;"/>
    </g>
    <g transform="matrix(25.0564,0,0,25.0578,0,0)">
        <path d="M3.954,2.556L3.959,2.556L3.959,2.55C3.944,2.533 3.922,2.522 3.899,2.521C3.874,2.521 3.85,2.532 3.834,2.551L3.834,2.557L3.836,2.558L3.839,2.557C3.853,2.54 3.875,2.53 3.897,2.53C3.919,2.53 3.94,2.54 3.954,2.557L3.954,2.556Z" style="fill:rgb(143,65,16);fill-rule:nonzero;"/>
    </g>
    <g transform="matrix(25.0564,0,0,25.0578,0,0)">
        <path d="M3.854,2.552L3.854,2.555C3.866,2.567 3.883,2.573 3.9,2.571C3.914,2.571 3.946,2.57 3.946,2.556C3.946,2.551 3.923,2.537 3.9,2.537C3.883,2.536 3.867,2.542 3.854,2.552ZM3.858,2.554C3.869,2.547 3.881,2.543 3.894,2.542C3.89,2.545 3.888,2.549 3.888,2.554C3.888,2.559 3.89,2.563 3.894,2.566C3.881,2.566 3.868,2.562 3.858,2.554ZM3.909,2.542C3.921,2.544 3.932,2.549 3.942,2.557C3.941,2.561 3.929,2.565 3.908,2.566C3.912,2.563 3.914,2.559 3.914,2.554C3.914,2.55 3.912,2.545 3.909,2.542Z" style="fill:rgb(143,65,16);fill-rule:nonzero;"/>
    </g>
    <g transform="matrix(25.0564,0,0,25.0578,0,0)">
        <path d="M3.955,2.564L3.953,2.563C3.938,2.576 3.92,2.583 3.902,2.583C3.884,2.583 3.868,2.578 3.854,2.568L3.851,2.569L3.852,2.572C3.866,2.582 3.883,2.588 3.9,2.588L3.902,2.588C3.921,2.587 3.94,2.58 3.955,2.568L3.955,2.564Z" style="fill:rgb(143,65,16);fill-rule:nonzero;"/>
    </g>
    <g transform="matrix(25.0564,0,0,25.0578,0,0)">
        <path d="M4.083,2.521C4.06,2.522 4.038,2.532 4.022,2.55L4.023,2.556L4.028,2.556C4.042,2.54 4.062,2.53 4.083,2.529C4.106,2.53 4.128,2.539 4.143,2.556L4.146,2.558L4.149,2.556L4.149,2.55C4.132,2.531 4.108,2.521 4.083,2.521Z" style="fill:rgb(143,65,16);fill-rule:nonzero;"/>
    </g>
    <g transform="matrix(25.0564,0,0,25.0578,0,0)">
        <path d="M4.128,2.555L4.128,2.552C4.115,2.542 4.099,2.537 4.083,2.537C4.06,2.537 4.037,2.551 4.037,2.556C4.037,2.57 4.069,2.571 4.083,2.571C4.1,2.572 4.116,2.567 4.128,2.555ZM4.088,2.542C4.101,2.542 4.114,2.547 4.125,2.554C4.114,2.562 4.101,2.566 4.088,2.566C4.092,2.563 4.094,2.559 4.094,2.554C4.094,2.549 4.092,2.545 4.088,2.542ZM4.04,2.557C4.049,2.549 4.061,2.544 4.073,2.542C4.069,2.545 4.068,2.549 4.068,2.554C4.068,2.559 4.07,2.563 4.073,2.566C4.053,2.565 4.041,2.561 4.04,2.557Z" style="fill:rgb(143,65,16);fill-rule:nonzero;"/>
    </g>
    <g transform="matrix(25.0564,0,0,25.0578,0,0)">
        <path d="M4.08,2.583C4.061,2.582 4.043,2.575 4.029,2.563L4.026,2.563L4.026,2.567C4.041,2.579 4.06,2.586 4.08,2.587L4.081,2.587C4.098,2.586 4.115,2.581 4.129,2.571L4.13,2.568L4.127,2.567C4.114,2.577 4.097,2.583 4.08,2.583Z" style="fill:rgb(143,65,16);fill-rule:nonzero;"/>
    </g>
</svg>
