<?xml version="1.0" encoding="UTF-8" standalone="no"?>
<!DOCTYPE svg PUBLIC "-//W3C//DTD SVG 1.1//EN" "http://www.w3.org/Graphics/SVG/1.1/DTD/svg11.dtd">
<svg width="100%" height="100%" viewBox="0 0 200 131" version="1.1" xmlns="http://www.w3.org/2000/svg" xmlns:xlink="http://www.w3.org/1999/xlink" xml:space="preserve" xmlns:serif="http://www.serif.com/" style="fill-rule:evenodd;clip-rule:evenodd;stroke-linejoin:round;stroke-miterlimit:2;">
    <g transform="matrix(25.057,0,0,25.057,0,0)">
        <path d="M0,0L0,5.188L7.982,5.188L7.982,0L0,0ZM3.978,4.733L0.685,2.648L3.978,0.562L7.271,2.648L3.978,4.733Z" style="fill:rgb(0,153,51);fill-rule:nonzero;"/>
    </g>
    <g transform="matrix(25.057,0,0,25.057,0,0)">
        <path d="M0.685,2.648L3.978,4.733L7.271,2.648L3.978,0.562L0.685,2.648ZM5.335,2.594C5.335,2.656 5.331,2.719 5.322,2.781C5.23,3.442 4.658,3.939 3.991,3.939C3.253,3.939 2.646,3.332 2.646,2.595C2.646,1.857 3.253,1.25 3.991,1.25C4.728,1.25 5.335,1.857 5.335,2.594Z" style="fill:rgb(255,204,0);fill-rule:nonzero;"/>
    </g>
    <g transform="matrix(25.057,0,0,25.057,0,0)">
        <path d="M5.195,2.84C5.206,2.837 5.217,2.83 5.223,2.819C5.232,2.811 5.236,2.799 5.236,2.787C5.234,2.769 5.219,2.755 5.2,2.755C5.198,2.755 5.197,2.755 5.195,2.755C5.172,2.763 5.156,2.784 5.154,2.808C5.155,2.826 5.171,2.84 5.189,2.84C5.191,2.84 5.193,2.84 5.195,2.84Z" style="fill:white;fill-rule:nonzero;"/>
    </g>
    <g transform="matrix(25.057,0,0,25.057,0,0)">
        <path d="M4.025,2.176L4.007,2.171L3.995,2.168L3.986,2.203L4,2.207C4.007,2.209 4.014,2.21 4.021,2.21L4.031,2.206L4.036,2.197C4.037,2.192 4.037,2.188 4.035,2.184L4.025,2.176Z" style="fill:white;fill-rule:nonzero;"/>
    </g>
    <g transform="matrix(25.057,0,0,25.057,0,0)">
        <path d="M3.188,2.084L3.176,2.079C3.169,2.078 3.162,2.077 3.154,2.078L3.143,2.078L3.144,2.164L3.164,2.164L3.18,2.162L3.19,2.157L3.197,2.144C3.199,2.136 3.199,2.128 3.199,2.12C3.199,2.112 3.198,2.104 3.196,2.097L3.188,2.084Z" style="fill:white;fill-rule:nonzero;"/>
    </g>
    <g transform="matrix(25.057,0,0,25.057,0,0)">
        <path d="M3.029,2.1L3.025,2.09L3.015,2.086L2.995,2.087L2.975,2.088L2.978,2.121L2.997,2.12C3.005,2.119 3.013,2.118 3.02,2.115L3.027,2.109L3.029,2.1Z" style="fill:white;fill-rule:nonzero;"/>
    </g>
    <g transform="matrix(25.057,0,0,25.057,0,0)">
        <path d="M2.689,2.259C2.661,2.368 2.647,2.481 2.647,2.594C2.647,3.331 3.253,3.938 3.991,3.938C4.575,3.938 5.095,3.558 5.272,3.001C4.575,2.364 3.618,2.089 2.689,2.259ZM2.876,3.083L2.845,3.061L2.814,3.083L2.826,3.047L2.795,3.025L2.833,3.025L2.845,2.988L2.857,3.025L2.895,3.025L2.864,3.047L2.876,3.083ZM2.894,2.381L2.854,2.41L2.87,2.363L2.83,2.335L2.879,2.335L2.894,2.288L2.909,2.334L2.958,2.334L2.918,2.363L2.933,2.41L2.894,2.381ZM3.052,2.973L3.012,2.944L2.972,2.973L2.987,2.927L2.947,2.898L2.996,2.898L3.011,2.851L3.026,2.898L3.075,2.898L3.036,2.927L3.052,2.973ZM3.163,2.865L3.144,2.851L3.126,2.865L3.133,2.843L3.115,2.83L3.137,2.83L3.144,2.808L3.151,2.83L3.174,2.83L3.156,2.843L3.163,2.865ZM3.287,3.235L3.255,3.211L3.223,3.235L3.236,3.197L3.204,3.174L3.243,3.174L3.255,3.137L3.267,3.174L3.307,3.174L3.275,3.197L3.287,3.235ZM3.323,3.094L3.292,3.071L3.261,3.094L3.272,3.057L3.242,3.035L3.28,3.035L3.292,2.999L3.304,3.035L3.342,3.035L3.311,3.057L3.323,3.094ZM3.49,3.366L3.45,3.338L3.41,3.366L3.426,3.32L3.386,3.291L3.435,3.291L3.45,3.245L3.465,3.291L3.514,3.291L3.474,3.32L3.49,3.366ZM3.498,2.653L3.509,2.689L3.478,2.667L3.447,2.689L3.459,2.653L3.428,2.63L3.467,2.63L3.478,2.594L3.49,2.63L3.528,2.63L3.498,2.653ZM4.004,3.662L3.991,3.652L3.978,3.662L3.983,3.647L3.97,3.637L3.986,3.637L3.991,3.622L3.996,3.637L4.012,3.637L3.999,3.647L4.004,3.662ZM4.69,3.642L4.664,3.622L4.637,3.642L4.647,3.611L4.621,3.591L4.654,3.591L4.664,3.56L4.674,3.591L4.706,3.591L4.68,3.611L4.69,3.642ZM5.109,3.065L5.119,3.034L5.129,3.065L5.162,3.065L5.135,3.084L5.145,3.115L5.119,3.096L5.092,3.115L5.102,3.084L5.076,3.065L5.109,3.065ZM5.04,3.17L5.009,3.193L5.021,3.229L4.99,3.207L4.959,3.229L4.97,3.193L4.939,3.17L4.978,3.17L4.99,3.134L5.002,3.17L5.04,3.17ZM4.92,3.048L4.935,3.001L4.95,3.048L5,3.048L4.96,3.077L4.975,3.123L4.935,3.094L4.895,3.123L4.91,3.077L4.871,3.048L4.92,3.048ZM4.895,3.277L4.907,3.24L4.919,3.276L4.957,3.276L4.926,3.299L4.938,3.335L4.907,3.313L4.876,3.335L4.888,3.299L4.857,3.276L4.895,3.277ZM4.786,3.348L4.796,3.317L4.806,3.348L4.839,3.348L4.813,3.367L4.823,3.398L4.796,3.379L4.77,3.398L4.78,3.367L4.754,3.348L4.786,3.348ZM4.65,3.319L4.66,3.288L4.67,3.319L4.703,3.319L4.676,3.338L4.686,3.369L4.66,3.35L4.634,3.369L4.644,3.338L4.617,3.319L4.65,3.319ZM4.656,3.451L4.668,3.415L4.679,3.451L4.718,3.451L4.687,3.473L4.698,3.51L4.667,3.487L4.636,3.51L4.648,3.474L4.617,3.451L4.656,3.451ZM4.499,3.366L4.509,3.335L4.519,3.366L4.552,3.366L4.525,3.386L4.535,3.417L4.509,3.397L4.482,3.417L4.492,3.386L4.466,3.366L4.499,3.366ZM4.442,3.48L4.411,3.503L4.423,3.539L4.392,3.516L4.361,3.539L4.373,3.503L4.342,3.48L4.38,3.48L4.392,3.444L4.404,3.48L4.442,3.48ZM4.35,2.512L4.36,2.481L4.37,2.512L4.403,2.512L4.376,2.531L4.386,2.562L4.36,2.543L4.334,2.562L4.344,2.531L4.317,2.512L4.35,2.512ZM4.276,3.338L4.286,3.307L4.296,3.338L4.329,3.338L4.303,3.357L4.313,3.388L4.286,3.369L4.26,3.388L4.27,3.357L4.244,3.338L4.276,3.338ZM4.136,2.916L4.148,2.88L4.159,2.916L4.198,2.916L4.167,2.939L4.178,2.975L4.148,2.953L4.117,2.975L4.128,2.939L4.097,2.916L4.136,2.916ZM4.031,3.26L3.991,3.231L3.951,3.26L3.966,3.213L3.926,3.185L3.975,3.185L3.99,3.138L4.006,3.185L4.054,3.185L4.014,3.213L4.031,3.26ZM3.98,2.797L3.991,2.76L4.003,2.796L4.041,2.796L4.01,2.819L4.022,2.855L3.991,2.833L3.96,2.855L3.972,2.819L3.941,2.796L3.98,2.797ZM3.923,2.992L3.93,3.013L3.952,3.013L3.934,3.027L3.941,3.048L3.922,3.035L3.904,3.048L3.911,3.027L3.892,3.013L3.915,3.013L3.923,2.992ZM3.873,2.937L3.883,2.968L3.856,2.949L3.83,2.968L3.84,2.937L3.814,2.918L3.846,2.918L3.856,2.887L3.866,2.918L3.899,2.918L3.873,2.937Z" style="fill:rgb(0,39,118);fill-rule:nonzero;"/>
    </g>
    <g transform="matrix(25.057,0,0,25.057,0,0)">
        <path d="M2.829,2.101C2.819,2.102 2.81,2.107 2.804,2.115C2.793,2.137 2.797,2.163 2.813,2.182C2.82,2.188 2.83,2.191 2.84,2.19C2.85,2.189 2.859,2.184 2.864,2.176C2.87,2.165 2.873,2.152 2.87,2.14C2.869,2.128 2.864,2.117 2.856,2.108C2.849,2.102 2.838,2.099 2.829,2.101Z" style="fill:white;fill-rule:nonzero;"/>
    </g>
    <g transform="matrix(25.057,0,0,25.057,0,0)">
        <path d="M4.667,2.449L4.676,2.447L4.683,2.439C4.685,2.436 4.686,2.432 4.685,2.428L4.678,2.419L4.661,2.41L4.643,2.401L4.628,2.431L4.646,2.44C4.652,2.444 4.66,2.447 4.667,2.449Z" style="fill:white;fill-rule:nonzero;"/>
    </g>
    <g transform="matrix(25.057,0,0,25.057,0,0)">
        <path d="M2.764,2.043C2.733,2.113 2.708,2.185 2.689,2.259C3.618,2.089 4.575,2.364 5.272,3.001C5.295,2.929 5.312,2.855 5.322,2.781C4.609,2.19 3.682,1.923 2.764,2.043ZM2.886,2.188C2.863,2.215 2.824,2.22 2.795,2.2C2.781,2.188 2.773,2.172 2.772,2.154C2.77,2.143 2.771,2.131 2.774,2.12C2.776,2.113 2.779,2.107 2.783,2.101C2.788,2.095 2.793,2.091 2.799,2.087C2.807,2.082 2.816,2.08 2.826,2.079C2.843,2.076 2.86,2.08 2.874,2.09C2.9,2.116 2.905,2.157 2.886,2.188L2.886,2.188ZM3.042,2.191L3.021,2.164L3.006,2.146L2.997,2.141C2.993,2.14 2.989,2.14 2.984,2.141L2.979,2.141L2.983,2.195L2.957,2.197L2.947,2.067L3.002,2.063C3.012,2.062 3.022,2.062 3.032,2.064C3.039,2.066 3.044,2.07 3.048,2.076C3.052,2.081 3.055,2.088 3.055,2.096C3.056,2.104 3.054,2.113 3.048,2.12C3.042,2.128 3.033,2.132 3.024,2.134L3.039,2.144L3.055,2.164L3.073,2.188L3.042,2.191ZM3.223,2.148C3.22,2.157 3.216,2.165 3.209,2.172C3.204,2.177 3.198,2.18 3.191,2.182C3.184,2.185 3.176,2.186 3.168,2.186L3.119,2.187L3.116,2.057L3.164,2.056C3.172,2.055 3.18,2.056 3.189,2.058C3.196,2.06 3.203,2.064 3.209,2.069C3.214,2.075 3.219,2.082 3.221,2.09C3.225,2.1 3.226,2.11 3.226,2.121C3.227,2.13 3.225,2.139 3.223,2.148ZM3.381,2.08L3.311,2.078L3.31,2.107L3.375,2.108L3.374,2.13L3.309,2.128L3.308,2.163L3.38,2.166L3.38,2.188L3.281,2.185L3.285,2.055L3.381,2.058L3.381,2.08ZM3.558,2.201L3.534,2.199L3.542,2.097L3.508,2.197L3.483,2.195L3.466,2.091L3.457,2.192L3.433,2.19L3.444,2.06L3.483,2.064L3.499,2.154L3.53,2.068L3.569,2.071L3.558,2.201ZM3.811,2.137L3.747,2.127L3.743,2.153L3.8,2.163L3.802,2.163L3.799,2.183L3.739,2.173L3.734,2.203L3.734,2.205L3.799,2.215L3.8,2.215L3.797,2.235L3.796,2.235L3.707,2.22L3.727,2.102L3.813,2.116L3.814,2.116L3.811,2.137ZM4.062,2.203C4.06,2.21 4.057,2.216 4.053,2.221C4.049,2.226 4.044,2.229 4.039,2.232C4.034,2.233 4.029,2.234 4.024,2.234L3.997,2.229L3.981,2.225L3.969,2.273L3.943,2.266L3.975,2.14L4.016,2.15C4.026,2.152 4.036,2.156 4.046,2.16C4.053,2.164 4.058,2.17 4.061,2.177C4.064,2.185 4.064,2.194 4.062,2.203L4.062,2.203ZM5.145,2.76C5.152,2.75 5.16,2.742 5.17,2.737C5.176,2.733 5.183,2.731 5.191,2.73C5.197,2.729 5.204,2.729 5.211,2.731C5.22,2.734 5.228,2.738 5.236,2.744C5.25,2.754 5.259,2.77 5.261,2.787C5.261,2.823 5.236,2.856 5.2,2.865C5.183,2.866 5.166,2.861 5.154,2.85C5.14,2.84 5.13,2.825 5.128,2.808C5.127,2.79 5.133,2.773 5.145,2.759L5.145,2.76ZM5.002,2.685L5.024,2.697C5.021,2.704 5.02,2.711 5.021,2.718C5.023,2.725 5.028,2.73 5.033,2.734C5.039,2.738 5.045,2.74 5.052,2.74C5.057,2.74 5.062,2.737 5.065,2.733L5.067,2.726L5.062,2.716L5.048,2.699C5.041,2.691 5.035,2.682 5.031,2.671C5.029,2.662 5.031,2.651 5.037,2.643C5.04,2.638 5.046,2.633 5.052,2.631C5.059,2.629 5.066,2.628 5.073,2.63C5.081,2.632 5.089,2.636 5.096,2.641C5.108,2.648 5.116,2.658 5.12,2.671C5.123,2.682 5.121,2.693 5.115,2.702L5.092,2.688C5.095,2.683 5.096,2.677 5.095,2.672C5.093,2.666 5.089,2.662 5.084,2.659C5.079,2.655 5.073,2.653 5.066,2.652L5.058,2.656L5.057,2.665C5.06,2.673 5.066,2.68 5.072,2.686C5.079,2.693 5.085,2.701 5.09,2.71C5.093,2.716 5.094,2.722 5.094,2.729C5.093,2.744 5.083,2.757 5.069,2.763C5.062,2.765 5.054,2.766 5.047,2.764C5.037,2.762 5.028,2.758 5.02,2.752C5.008,2.745 5,2.734 4.996,2.721C4.993,2.708 4.995,2.695 5.002,2.684L5.002,2.685ZM4.892,2.611C4.889,2.618 4.888,2.625 4.89,2.632C4.892,2.639 4.897,2.644 4.903,2.648C4.908,2.652 4.915,2.654 4.922,2.653C4.927,2.653 4.931,2.65 4.934,2.646L4.936,2.638L4.931,2.628L4.916,2.612C4.908,2.605 4.902,2.595 4.898,2.585C4.895,2.576 4.896,2.565 4.902,2.557C4.905,2.551 4.91,2.547 4.916,2.544C4.923,2.541 4.93,2.54 4.937,2.542C4.946,2.543 4.954,2.547 4.961,2.552C4.973,2.558 4.982,2.568 4.987,2.58C4.99,2.591 4.988,2.602 4.982,2.611L4.96,2.598C4.962,2.593 4.963,2.587 4.962,2.582C4.959,2.577 4.955,2.573 4.95,2.57C4.945,2.566 4.939,2.564 4.932,2.564L4.925,2.569L4.924,2.578C4.928,2.585 4.933,2.592 4.939,2.598C4.947,2.605 4.953,2.612 4.958,2.621C4.962,2.626 4.963,2.633 4.963,2.64C4.963,2.647 4.961,2.654 4.957,2.66C4.953,2.666 4.947,2.671 4.94,2.674C4.933,2.677 4.925,2.678 4.918,2.677C4.908,2.675 4.899,2.671 4.891,2.666C4.879,2.659 4.87,2.649 4.865,2.636C4.862,2.624 4.864,2.611 4.87,2.6L4.892,2.611ZM4.782,2.448L4.866,2.495L4.855,2.515L4.794,2.48L4.78,2.505L4.837,2.537L4.826,2.556L4.769,2.524L4.752,2.555L4.815,2.591L4.804,2.61L4.718,2.561L4.782,2.448ZM4.629,2.37L4.679,2.395C4.689,2.399 4.697,2.404 4.705,2.411C4.709,2.416 4.712,2.422 4.713,2.429C4.713,2.436 4.712,2.444 4.709,2.45C4.705,2.458 4.698,2.464 4.69,2.468C4.681,2.471 4.671,2.471 4.662,2.467L4.67,2.483L4.674,2.509L4.676,2.539L4.648,2.525L4.644,2.491L4.64,2.467L4.635,2.459L4.624,2.452L4.619,2.449L4.595,2.498L4.571,2.486L4.629,2.37ZM4.433,2.353C4.438,2.342 4.445,2.331 4.455,2.323C4.464,2.316 4.476,2.312 4.488,2.311C4.498,2.311 4.509,2.313 4.519,2.318C4.531,2.322 4.542,2.331 4.549,2.342C4.555,2.352 4.557,2.363 4.554,2.374L4.529,2.369C4.529,2.362 4.528,2.356 4.525,2.351C4.521,2.345 4.516,2.341 4.51,2.338C4.501,2.334 4.49,2.333 4.48,2.337C4.47,2.343 4.462,2.352 4.458,2.363C4.452,2.374 4.451,2.387 4.454,2.399C4.457,2.409 4.464,2.417 4.474,2.42L4.49,2.424C4.495,2.424 4.501,2.424 4.506,2.422L4.513,2.407L4.485,2.395L4.494,2.375L4.546,2.398L4.526,2.445C4.517,2.448 4.508,2.449 4.498,2.449C4.487,2.448 4.477,2.446 4.467,2.442C4.455,2.437 4.445,2.429 4.438,2.42C4.431,2.411 4.427,2.4 4.426,2.388C4.426,2.376 4.428,2.364 4.433,2.353ZM4.265,2.291C4.268,2.281 4.274,2.271 4.282,2.262C4.287,2.257 4.293,2.253 4.299,2.25C4.305,2.247 4.312,2.245 4.319,2.245C4.329,2.244 4.338,2.246 4.347,2.25C4.363,2.255 4.377,2.267 4.384,2.282C4.396,2.317 4.381,2.356 4.35,2.375C4.318,2.388 4.28,2.374 4.264,2.343C4.257,2.327 4.257,2.308 4.265,2.291ZM4.209,2.208C4.214,2.212 4.218,2.218 4.22,2.224C4.222,2.231 4.222,2.239 4.22,2.246C4.218,2.254 4.212,2.262 4.205,2.266C4.196,2.271 4.186,2.272 4.177,2.27L4.187,2.285L4.195,2.309L4.202,2.338L4.172,2.329L4.162,2.296L4.155,2.274L4.149,2.267L4.137,2.261L4.131,2.26L4.116,2.312L4.09,2.304L4.128,2.18L4.181,2.196C4.191,2.199 4.201,2.203 4.209,2.208Z" style="fill:white;fill-rule:nonzero;"/>
    </g>
    <g transform="matrix(25.057,0,0,25.057,0,0)">
        <path d="M4.309,2.354C4.318,2.358 4.328,2.357 4.337,2.353C4.347,2.346 4.355,2.336 4.358,2.324C4.363,2.313 4.363,2.301 4.36,2.29C4.354,2.277 4.341,2.269 4.327,2.269C4.321,2.269 4.316,2.27 4.311,2.272C4.301,2.279 4.293,2.289 4.29,2.3C4.285,2.311 4.284,2.323 4.288,2.335C4.292,2.344 4.299,2.351 4.309,2.354Z" style="fill:white;fill-rule:nonzero;"/>
    </g>
    <g transform="matrix(25.057,0,0,25.057,0,0)">
        <path d="M4.179,2.251L4.188,2.248L4.193,2.239C4.194,2.236 4.194,2.232 4.193,2.228L4.185,2.22L4.167,2.214L4.147,2.208L4.137,2.24L4.156,2.245L4.179,2.251Z" style="fill:white;fill-rule:nonzero;"/>
    </g>
    <g transform="matrix(25.057,0,0,25.057,0,0)">
        <path d="M2.764,2.043C3.682,1.923 4.609,2.19 5.322,2.78C5.331,2.719 5.335,2.656 5.335,2.594C5.335,1.857 4.728,1.25 3.991,1.25C3.462,1.25 2.981,1.561 2.764,2.043ZM4.398,2.162L4.41,2.125L4.422,2.162L4.46,2.162L4.429,2.184L4.441,2.22L4.41,2.198L4.379,2.22L4.391,2.184L4.36,2.162L4.398,2.162Z" style="fill:rgb(0,39,118);fill-rule:nonzero;"/>
    </g>
    <g transform="matrix(25.057,0,0,25.057,0,0)">
        <path d="M2.826,2.079C2.816,2.08 2.807,2.082 2.799,2.087C2.793,2.091 2.787,2.095 2.783,2.101C2.779,2.107 2.775,2.113 2.773,2.12C2.77,2.131 2.77,2.143 2.772,2.154C2.773,2.172 2.781,2.188 2.795,2.2C2.824,2.22 2.863,2.215 2.886,2.188C2.905,2.157 2.9,2.116 2.873,2.09C2.86,2.08 2.842,2.076 2.826,2.079ZM2.864,2.175C2.859,2.183 2.85,2.189 2.84,2.19C2.83,2.192 2.82,2.189 2.813,2.182C2.797,2.164 2.794,2.137 2.804,2.116C2.811,2.106 2.822,2.101 2.833,2.101C2.842,2.101 2.85,2.104 2.856,2.109C2.864,2.117 2.869,2.128 2.87,2.14C2.872,2.152 2.87,2.165 2.864,2.175Z" style="fill:rgb(0,153,51);fill-rule:nonzero;"/>
    </g>
    <g transform="matrix(25.057,0,0,25.057,0,0)">
        <path d="M3.039,2.144L3.024,2.134C3.034,2.133 3.043,2.128 3.049,2.121C3.054,2.113 3.057,2.105 3.056,2.096C3.055,2.089 3.053,2.082 3.049,2.076C3.045,2.07 3.039,2.066 3.033,2.064C3.023,2.062 3.013,2.062 3.003,2.063L2.948,2.067L2.957,2.197L2.983,2.195L2.979,2.141L2.985,2.141C2.989,2.141 2.993,2.141 2.998,2.141L3.006,2.146L3.021,2.164L3.042,2.191L3.074,2.189L3.056,2.165L3.039,2.144ZM3.02,2.115C3.012,2.117 3.005,2.119 2.997,2.119L2.977,2.12L2.975,2.087L2.995,2.086L3.014,2.085L3.024,2.089L3.028,2.099L3.026,2.109L3.02,2.115Z" style="fill:rgb(0,153,51);fill-rule:nonzero;"/>
    </g>
    <g transform="matrix(25.057,0,0,25.057,0,0)">
        <path d="M3.209,2.069C3.203,2.064 3.196,2.06 3.189,2.058C3.18,2.056 3.172,2.055 3.164,2.056L3.116,2.057L3.118,2.187L3.168,2.186C3.176,2.186 3.184,2.185 3.191,2.182C3.198,2.18 3.204,2.177 3.209,2.172C3.215,2.165 3.22,2.157 3.223,2.148C3.225,2.139 3.226,2.13 3.226,2.121C3.226,2.11 3.225,2.1 3.221,2.09C3.219,2.082 3.214,2.075 3.209,2.069ZM3.197,2.144L3.19,2.157L3.18,2.162L3.164,2.164L3.144,2.164L3.142,2.078L3.154,2.078C3.161,2.077 3.169,2.078 3.176,2.079L3.188,2.084L3.196,2.097C3.198,2.104 3.199,2.112 3.199,2.12C3.199,2.128 3.199,2.136 3.197,2.144Z" style="fill:rgb(0,153,51);fill-rule:nonzero;"/>
    </g>
    <g transform="matrix(25.057,0,0,25.057,0,0)">
        <path d="M3.281,2.185L3.38,2.188L3.38,2.166L3.308,2.164L3.309,2.128L3.374,2.13L3.375,2.108L3.31,2.106L3.31,2.078L3.381,2.08L3.381,2.058L3.285,2.055L3.281,2.185Z" style="fill:rgb(0,153,51);fill-rule:nonzero;"/>
    </g>
    <g transform="matrix(25.057,0,0,25.057,0,0)">
        <path d="M3.499,2.155L3.483,2.064L3.444,2.061L3.433,2.19L3.457,2.192L3.466,2.091L3.483,2.195L3.508,2.197L3.542,2.097L3.534,2.199L3.558,2.201L3.569,2.071L3.53,2.068L3.499,2.155Z" style="fill:rgb(0,153,51);fill-rule:nonzero;"/>
    </g>
    <g transform="matrix(25.057,0,0,25.057,0,0)">
        <path d="M3.726,2.102L3.707,2.22L3.795,2.235L3.797,2.235L3.8,2.215L3.799,2.215L3.734,2.204L3.734,2.203L3.739,2.172L3.799,2.182L3.802,2.162L3.8,2.162L3.743,2.152L3.744,2.146L3.747,2.126L3.811,2.136L3.814,2.117L3.812,2.116L3.726,2.102Z" style="fill:rgb(0,153,51);fill-rule:nonzero;"/>
    </g>
    <g transform="matrix(25.057,0,0,25.057,0,0)">
        <path d="M4.045,2.16C4.036,2.156 4.026,2.153 4.015,2.151L3.975,2.141L3.943,2.267L3.969,2.273L3.98,2.225L3.997,2.23L4.024,2.234C4.029,2.234 4.034,2.234 4.039,2.232C4.044,2.23 4.049,2.226 4.052,2.222C4.057,2.216 4.06,2.21 4.061,2.203C4.064,2.195 4.064,2.185 4.06,2.177C4.057,2.17 4.052,2.164 4.045,2.16ZM4.03,2.206L4.02,2.21C4.013,2.21 4.006,2.209 4,2.207L3.986,2.203L3.995,2.168L4.007,2.171L4.025,2.176L4.034,2.184C4.036,2.188 4.037,2.192 4.035,2.197L4.03,2.206Z" style="fill:rgb(0,153,51);fill-rule:nonzero;"/>
    </g>
    <g transform="matrix(25.057,0,0,25.057,0,0)">
        <path d="M4.09,2.304L4.115,2.312L4.131,2.26L4.137,2.262L4.149,2.267L4.155,2.274L4.162,2.297L4.172,2.329L4.202,2.338L4.195,2.309L4.186,2.285L4.176,2.27C4.186,2.272 4.196,2.271 4.205,2.266C4.212,2.262 4.217,2.254 4.22,2.246C4.222,2.239 4.222,2.232 4.22,2.225C4.218,2.218 4.214,2.212 4.209,2.208C4.2,2.203 4.191,2.199 4.181,2.196L4.128,2.18L4.09,2.304ZM4.147,2.209L4.166,2.214L4.184,2.22L4.192,2.228C4.194,2.232 4.194,2.236 4.192,2.239L4.187,2.248L4.179,2.251L4.156,2.246L4.137,2.24L4.147,2.209Z" style="fill:rgb(0,153,51);fill-rule:nonzero;"/>
    </g>
    <g transform="matrix(25.057,0,0,25.057,0,0)">
        <path d="M4.301,2.375C4.317,2.382 4.335,2.382 4.35,2.375C4.381,2.355 4.395,2.317 4.384,2.282C4.377,2.266 4.363,2.254 4.347,2.249C4.338,2.246 4.328,2.244 4.319,2.244C4.312,2.245 4.305,2.246 4.299,2.25C4.292,2.253 4.286,2.257 4.281,2.262C4.274,2.271 4.268,2.281 4.264,2.291C4.257,2.308 4.257,2.326 4.264,2.343C4.271,2.359 4.285,2.37 4.301,2.375ZM4.29,2.3C4.293,2.288 4.301,2.278 4.311,2.272C4.316,2.27 4.321,2.268 4.327,2.268C4.341,2.268 4.354,2.277 4.36,2.29C4.364,2.301 4.363,2.314 4.358,2.325C4.354,2.336 4.347,2.347 4.337,2.353C4.332,2.356 4.326,2.357 4.321,2.357C4.307,2.357 4.294,2.348 4.288,2.335C4.284,2.324 4.285,2.311 4.29,2.3Z" style="fill:rgb(0,153,51);fill-rule:nonzero;"/>
    </g>
    <g transform="matrix(25.057,0,0,25.057,0,0)">
        <path d="M4.467,2.442C4.477,2.446 4.487,2.448 4.498,2.449C4.508,2.449 4.517,2.448 4.526,2.445L4.546,2.398L4.494,2.375L4.485,2.395L4.513,2.407L4.506,2.422C4.501,2.424 4.495,2.424 4.49,2.424L4.474,2.42C4.465,2.416 4.457,2.408 4.454,2.399C4.451,2.387 4.453,2.374 4.458,2.363C4.462,2.352 4.47,2.343 4.48,2.337C4.489,2.333 4.5,2.334 4.509,2.338C4.516,2.341 4.521,2.345 4.525,2.351C4.528,2.356 4.529,2.363 4.528,2.369L4.554,2.375C4.556,2.364 4.555,2.352 4.549,2.342C4.542,2.331 4.531,2.322 4.518,2.318C4.509,2.313 4.498,2.311 4.487,2.311C4.475,2.312 4.464,2.316 4.455,2.324C4.445,2.332 4.437,2.342 4.433,2.354C4.428,2.365 4.426,2.376 4.426,2.388C4.426,2.4 4.43,2.411 4.437,2.42C4.445,2.43 4.455,2.437 4.467,2.442Z" style="fill:rgb(0,153,51);fill-rule:nonzero;"/>
    </g>
    <g transform="matrix(25.057,0,0,25.057,0,0)">
        <path d="M4.619,2.449L4.624,2.452L4.635,2.459L4.639,2.467L4.643,2.491L4.648,2.524L4.676,2.538L4.673,2.508L4.669,2.483L4.661,2.467C4.67,2.471 4.68,2.471 4.69,2.468C4.698,2.464 4.704,2.458 4.708,2.45C4.711,2.444 4.713,2.436 4.712,2.429C4.712,2.422 4.709,2.416 4.704,2.411C4.697,2.404 4.688,2.399 4.679,2.395L4.629,2.37L4.571,2.486L4.594,2.498L4.619,2.449ZM4.643,2.401L4.661,2.41L4.678,2.419L4.685,2.428C4.686,2.432 4.685,2.436 4.683,2.439L4.676,2.447L4.667,2.448C4.66,2.446 4.652,2.443 4.646,2.439L4.628,2.431L4.643,2.401Z" style="fill:rgb(0,153,51);fill-rule:nonzero;"/>
    </g>
    <g transform="matrix(25.057,0,0,25.057,0,0)">
        <path d="M4.815,2.591L4.752,2.555L4.769,2.524L4.826,2.556L4.837,2.537L4.78,2.505L4.794,2.48L4.855,2.515L4.866,2.495L4.782,2.448L4.718,2.561L4.804,2.61L4.815,2.591Z" style="fill:rgb(0,153,51);fill-rule:nonzero;"/>
    </g>
    <g transform="matrix(25.057,0,0,25.057,0,0)">
        <path d="M4.865,2.636C4.87,2.649 4.879,2.659 4.891,2.666C4.899,2.671 4.908,2.675 4.918,2.677C4.925,2.678 4.933,2.677 4.94,2.674C4.947,2.671 4.953,2.666 4.957,2.66C4.961,2.654 4.963,2.647 4.963,2.64C4.963,2.633 4.962,2.627 4.958,2.621C4.953,2.613 4.946,2.605 4.939,2.598C4.933,2.593 4.927,2.586 4.924,2.578L4.924,2.569L4.932,2.565C4.939,2.565 4.945,2.566 4.95,2.57C4.955,2.573 4.959,2.577 4.962,2.583C4.963,2.588 4.963,2.594 4.96,2.599L4.983,2.612C4.989,2.602 4.99,2.591 4.987,2.58C4.982,2.568 4.973,2.557 4.962,2.551C4.954,2.546 4.946,2.543 4.938,2.541C4.931,2.54 4.923,2.541 4.917,2.544C4.911,2.546 4.906,2.551 4.902,2.556C4.897,2.565 4.895,2.575 4.898,2.585C4.902,2.595 4.909,2.604 4.917,2.612L4.931,2.628L4.936,2.638L4.934,2.646C4.932,2.65 4.927,2.652 4.922,2.653C4.916,2.653 4.909,2.651 4.903,2.647C4.897,2.644 4.892,2.639 4.89,2.632C4.888,2.625 4.889,2.618 4.892,2.611L4.87,2.6C4.864,2.611 4.862,2.624 4.865,2.636Z" style="fill:rgb(0,153,51);fill-rule:nonzero;"/>
    </g>
    <g transform="matrix(25.057,0,0,25.057,0,0)">
        <path d="M5.02,2.752C5.028,2.757 5.036,2.762 5.046,2.764C5.053,2.766 5.061,2.765 5.069,2.762C5.082,2.756 5.092,2.744 5.093,2.729C5.094,2.722 5.093,2.716 5.09,2.71C5.085,2.701 5.079,2.693 5.072,2.686C5.066,2.68 5.061,2.673 5.057,2.665L5.059,2.656L5.067,2.652C5.073,2.652 5.079,2.655 5.084,2.659C5.089,2.662 5.093,2.666 5.095,2.672C5.096,2.677 5.096,2.683 5.093,2.688L5.115,2.702C5.121,2.693 5.123,2.681 5.12,2.671C5.116,2.658 5.107,2.647 5.096,2.641C5.089,2.636 5.081,2.632 5.073,2.63C5.066,2.628 5.058,2.629 5.052,2.631C5.046,2.634 5.04,2.638 5.036,2.643C5.031,2.651 5.029,2.662 5.031,2.671C5.035,2.682 5.04,2.691 5.048,2.699L5.062,2.716L5.066,2.726L5.064,2.733C5.061,2.737 5.057,2.74 5.052,2.74C5.045,2.74 5.039,2.738 5.033,2.733C5.028,2.73 5.023,2.724 5.021,2.718C5.02,2.71 5.021,2.703 5.024,2.697L5.002,2.684C4.996,2.695 4.993,2.708 4.996,2.72C5,2.733 5.008,2.744 5.02,2.752Z" style="fill:rgb(0,153,51);fill-rule:nonzero;"/>
    </g>
    <g transform="matrix(25.057,0,0,25.057,0,0)">
        <path d="M5.154,2.85C5.166,2.861 5.184,2.866 5.2,2.864C5.236,2.856 5.262,2.823 5.261,2.786C5.259,2.769 5.25,2.754 5.236,2.744C5.229,2.738 5.22,2.733 5.211,2.731C5.204,2.729 5.198,2.729 5.191,2.73C5.184,2.731 5.177,2.733 5.17,2.736C5.161,2.742 5.152,2.75 5.145,2.759C5.133,2.772 5.127,2.79 5.129,2.808C5.131,2.825 5.14,2.84 5.154,2.85ZM5.167,2.775C5.173,2.765 5.183,2.758 5.195,2.755C5.197,2.755 5.198,2.754 5.2,2.754C5.219,2.754 5.234,2.768 5.236,2.787C5.236,2.799 5.232,2.81 5.223,2.819C5.217,2.829 5.206,2.837 5.195,2.84C5.193,2.84 5.191,2.84 5.189,2.84C5.171,2.84 5.155,2.826 5.154,2.808C5.154,2.796 5.159,2.784 5.167,2.775L5.167,2.775Z" style="fill:rgb(0,153,51);fill-rule:nonzero;"/>
    </g>
    <g transform="matrix(25.057,0,0,25.057,0,0)">
        <path d="M4.379,2.22L4.41,2.198L4.441,2.22L4.429,2.184L4.46,2.162L4.422,2.162L4.41,2.125L4.398,2.162L4.36,2.162L4.391,2.184L4.379,2.22Z" style="fill:white;fill-rule:nonzero;"/>
    </g>
    <g transform="matrix(25.057,0,0,25.057,0,0)">
        <path d="M4.636,3.51L4.667,3.487L4.698,3.51L4.686,3.473L4.717,3.451L4.679,3.451L4.667,3.415L4.655,3.451L4.617,3.451L4.648,3.473L4.636,3.51Z" style="fill:white;fill-rule:nonzero;"/>
    </g>
    <g transform="matrix(25.057,0,0,25.057,0,0)">
        <path d="M4.38,3.48L4.342,3.48L4.373,3.503L4.361,3.539L4.392,3.517L4.423,3.539L4.411,3.503L4.442,3.48L4.404,3.48L4.392,3.444L4.38,3.48Z" style="fill:white;fill-rule:nonzero;"/>
    </g>
    <g transform="matrix(25.057,0,0,25.057,0,0)">
        <path d="M4.978,3.17L4.939,3.17L4.97,3.193L4.958,3.229L4.989,3.207L5.02,3.229L5.009,3.193L5.039,3.17L5.001,3.17L4.989,3.134L4.978,3.17Z" style="fill:white;fill-rule:nonzero;"/>
    </g>
    <g transform="matrix(25.057,0,0,25.057,0,0)">
        <path d="M3.96,2.856L3.991,2.833L4.022,2.856L4.01,2.819L4.041,2.797L4.003,2.797L3.991,2.76L3.979,2.797L3.941,2.797L3.972,2.819L3.96,2.856Z" style="fill:white;fill-rule:nonzero;"/>
    </g>
    <g transform="matrix(25.057,0,0,25.057,0,0)">
        <path d="M3.478,2.594L3.467,2.631L3.428,2.631L3.459,2.653L3.447,2.689L3.478,2.667L3.509,2.689L3.498,2.653L3.528,2.631L3.49,2.631L3.478,2.594Z" style="fill:white;fill-rule:nonzero;"/>
    </g>
    <g transform="matrix(25.057,0,0,25.057,0,0)">
        <path d="M4.116,2.975L4.147,2.952L4.178,2.975L4.167,2.938L4.197,2.916L4.159,2.916L4.147,2.88L4.136,2.916L4.097,2.916L4.128,2.938L4.116,2.975Z" style="fill:white;fill-rule:nonzero;"/>
    </g>
    <g transform="matrix(25.057,0,0,25.057,0,0)">
        <path d="M3.303,3.035L3.292,2.999L3.28,3.035L3.242,3.035L3.272,3.058L3.261,3.094L3.292,3.072L3.323,3.094L3.311,3.058L3.342,3.035L3.303,3.035Z" style="fill:white;fill-rule:nonzero;"/>
    </g>
    <g transform="matrix(25.057,0,0,25.057,0,0)">
        <path d="M2.857,3.025L2.845,2.988L2.833,3.025L2.795,3.025L2.826,3.047L2.814,3.083L2.845,3.061L2.876,3.083L2.864,3.047L2.895,3.025L2.857,3.025Z" style="fill:white;fill-rule:nonzero;"/>
    </g>
    <g transform="matrix(25.057,0,0,25.057,0,0)">
        <path d="M4.876,3.335L4.907,3.313L4.938,3.335L4.926,3.299L4.957,3.276L4.918,3.276L4.907,3.24L4.895,3.276L4.857,3.276L4.888,3.299L4.876,3.335Z" style="fill:white;fill-rule:nonzero;"/>
    </g>
    <g transform="matrix(25.057,0,0,25.057,0,0)">
        <path d="M4.26,3.388L4.286,3.369L4.313,3.388L4.302,3.357L4.329,3.338L4.296,3.338L4.286,3.307L4.276,3.338L4.243,3.338L4.27,3.357L4.26,3.388Z" style="fill:white;fill-rule:nonzero;"/>
    </g>
    <g transform="matrix(25.057,0,0,25.057,0,0)">
        <path d="M4.482,3.417L4.509,3.397L4.535,3.417L4.525,3.386L4.551,3.366L4.519,3.366L4.509,3.335L4.498,3.366L4.466,3.366L4.492,3.386L4.482,3.417Z" style="fill:white;fill-rule:nonzero;"/>
    </g>
    <g transform="matrix(25.057,0,0,25.057,0,0)">
        <path d="M4.633,3.369L4.66,3.35L4.686,3.369L4.676,3.338L4.702,3.319L4.67,3.319L4.66,3.288L4.649,3.319L4.617,3.319L4.643,3.338L4.633,3.369Z" style="fill:white;fill-rule:nonzero;"/>
    </g>
    <g transform="matrix(25.057,0,0,25.057,0,0)">
        <path d="M4.77,3.398L4.797,3.379L4.823,3.398L4.813,3.367L4.839,3.348L4.807,3.348L4.797,3.317L4.787,3.348L4.754,3.348L4.78,3.367L4.77,3.398Z" style="fill:white;fill-rule:nonzero;"/>
    </g>
    <g transform="matrix(25.057,0,0,25.057,0,0)">
        <path d="M4.674,3.592L4.664,3.561L4.654,3.592L4.621,3.592L4.647,3.611L4.637,3.642L4.664,3.623L4.69,3.642L4.68,3.611L4.706,3.592L4.674,3.592Z" style="fill:white;fill-rule:nonzero;"/>
    </g>
    <g transform="matrix(25.057,0,0,25.057,0,0)">
        <path d="M5.093,3.115L5.119,3.096L5.145,3.115L5.135,3.084L5.162,3.065L5.129,3.065L5.119,3.034L5.109,3.065L5.076,3.065L5.103,3.084L5.093,3.115Z" style="fill:white;fill-rule:nonzero;"/>
    </g>
    <g transform="matrix(25.057,0,0,25.057,0,0)">
        <path d="M3.856,2.887L3.846,2.918L3.813,2.918L3.839,2.937L3.829,2.968L3.856,2.949L3.882,2.968L3.872,2.937L3.898,2.918L3.866,2.918L3.856,2.887Z" style="fill:white;fill-rule:nonzero;"/>
    </g>
    <g transform="matrix(25.057,0,0,25.057,0,0)">
        <path d="M3.91,3.027L3.903,3.048L3.922,3.035L3.94,3.048L3.933,3.027L3.952,3.013L3.929,3.013L3.922,2.992L3.915,3.013L3.892,3.013L3.91,3.027Z" style="fill:white;fill-rule:nonzero;"/>
    </g>
    <g transform="matrix(25.057,0,0,25.057,0,0)">
        <path d="M3.151,2.83L3.144,2.808L3.137,2.83L3.114,2.83L3.133,2.843L3.126,2.865L3.144,2.851L3.163,2.865L3.156,2.843L3.174,2.83L3.151,2.83Z" style="fill:white;fill-rule:nonzero;"/>
    </g>
    <g transform="matrix(25.057,0,0,25.057,0,0)">
        <path d="M3.996,3.637L3.991,3.622L3.986,3.637L3.97,3.637L3.983,3.647L3.978,3.662L3.991,3.653L4.004,3.662L3.999,3.647L4.012,3.637L3.996,3.637Z" style="fill:white;fill-rule:nonzero;"/>
    </g>
    <g transform="matrix(25.057,0,0,25.057,0,0)">
        <path d="M4.333,2.562L4.36,2.543L4.386,2.562L4.376,2.531L4.402,2.512L4.37,2.512L4.36,2.481L4.35,2.512L4.317,2.512L4.343,2.531L4.333,2.562Z" style="fill:white;fill-rule:nonzero;"/>
    </g>
    <g transform="matrix(25.057,0,0,25.057,0,0)">
        <path d="M3.267,3.174L3.255,3.137L3.243,3.174L3.204,3.174L3.235,3.197L3.223,3.235L3.255,3.212L3.287,3.235L3.275,3.197L3.307,3.174L3.267,3.174Z" style="fill:white;fill-rule:nonzero;"/>
    </g>
    <g transform="matrix(25.057,0,0,25.057,0,0)">
        <path d="M2.958,2.334L2.909,2.334L2.894,2.288L2.879,2.334L2.83,2.334L2.869,2.363L2.854,2.41L2.894,2.381L2.934,2.41L2.918,2.363L2.958,2.334Z" style="fill:white;fill-rule:nonzero;"/>
    </g>
    <g transform="matrix(25.057,0,0,25.057,0,0)">
        <path d="M3.466,3.291L3.45,3.245L3.435,3.291L3.386,3.291L3.426,3.32L3.411,3.367L3.45,3.338L3.49,3.367L3.475,3.32L3.514,3.291L3.466,3.291Z" style="fill:white;fill-rule:nonzero;"/>
    </g>
    <g transform="matrix(25.057,0,0,25.057,0,0)">
        <path d="M4.006,3.185L3.991,3.138L3.976,3.185L3.927,3.185L3.966,3.213L3.951,3.26L3.991,3.231L4.03,3.26L4.015,3.213L4.055,3.185L4.006,3.185Z" style="fill:white;fill-rule:nonzero;"/>
    </g>
    <g transform="matrix(25.057,0,0,25.057,0,0)">
        <path d="M3.027,2.898L3.012,2.851L2.997,2.898L2.948,2.898L2.988,2.927L2.973,2.973L3.012,2.944L3.052,2.973L3.037,2.927L3.076,2.898L3.027,2.898Z" style="fill:white;fill-rule:nonzero;"/>
    </g>
    <g transform="matrix(25.057,0,0,25.057,0,0)">
        <path d="M4.896,3.123L4.935,3.094L4.975,3.123L4.96,3.077L4.999,3.048L4.95,3.048L4.935,3.001L4.92,3.048L4.871,3.048L4.911,3.077L4.896,3.123Z" style="fill:white;fill-rule:nonzero;"/>
    </g>
</svg>
