<?xml version="1.0" encoding="UTF-8" standalone="no"?>
<!DOCTYPE svg PUBLIC "-//W3C//DTD SVG 1.1//EN" "http://www.w3.org/Graphics/SVG/1.1/DTD/svg11.dtd">
<svg width="100%" height="100%" viewBox="0 0 200 130" version="1.1" xmlns="http://www.w3.org/2000/svg" xmlns:xlink="http://www.w3.org/1999/xlink" xml:space="preserve" xmlns:serif="http://www.serif.com/" style="fill-rule:evenodd;clip-rule:evenodd;stroke-linejoin:round;stroke-miterlimit:2;">
    <g transform="matrix(25.0567,0,0,25.0567,0,0)">
        <rect x="0" y="4.612" width="7.982" height="0.577" style="fill:white;"/>
    </g>
    <g transform="matrix(25.0567,0,0,25.0567,0,0)">
        <rect x="0" y="3.459" width="7.982" height="0.577" style="fill:white;"/>
    </g>
    <g transform="matrix(25.0567,0,0,25.0567,0,0)">
        <path d="M0,0L0,2.882L7.982,2.882L7.982,2.306L2.882,2.306L2.882,1.729L7.982,1.729L7.982,1.153L2.882,1.153L2.882,0.576L7.982,0.576L7.982,0L0,0ZM2.092,1.627C2.121,1.639 2.151,1.648 2.182,1.652C2.209,1.656 2.234,1.663 2.258,1.674C2.325,1.712 2.374,1.773 2.397,1.845L2.398,1.847L2.395,1.854L2.393,1.854L2.388,1.852C2.368,1.821 2.34,1.796 2.306,1.781C2.279,1.771 2.249,1.768 2.22,1.771L2.17,1.771C2.108,1.772 2.045,1.768 1.983,1.758C1.943,1.752 1.905,1.741 1.867,1.728L2.212,2.211L1.747,1.881C1.745,1.933 1.753,1.984 1.772,2.033C1.783,2.061 1.798,2.089 1.817,2.114C1.833,2.135 1.846,2.158 1.855,2.183C1.875,2.257 1.867,2.335 1.832,2.402L1.831,2.404L1.826,2.407L1.825,2.407L1.821,2.401C1.829,2.365 1.826,2.327 1.813,2.293C1.801,2.266 1.783,2.243 1.76,2.225L1.724,2.19C1.679,2.146 1.637,2.099 1.6,2.048C1.577,2.016 1.557,1.981 1.54,1.945L1.442,2.531L1.348,1.968C1.309,2.003 1.279,2.046 1.258,2.093C1.245,2.121 1.237,2.152 1.232,2.183C1.228,2.209 1.221,2.235 1.21,2.259C1.172,2.325 1.111,2.375 1.039,2.397L1.037,2.398L1.035,2.398L1.03,2.395L1.032,2.388C1.063,2.368 1.088,2.34 1.103,2.306C1.113,2.279 1.117,2.249 1.113,2.22C1.113,2.206 1.112,2.19 1.113,2.17C1.112,2.108 1.116,2.045 1.126,1.983C1.132,1.943 1.143,1.905 1.156,1.867L0.673,2.212L1.004,1.748C0.952,1.745 0.901,1.753 0.852,1.772C0.823,1.783 0.796,1.799 0.771,1.817C0.75,1.833 0.726,1.846 0.701,1.855C0.677,1.863 0.653,1.867 0.628,1.867C0.577,1.866 0.526,1.854 0.48,1.831L0.477,1.825L0.484,1.821C0.52,1.829 0.557,1.826 0.592,1.813C0.618,1.801 0.641,1.783 0.659,1.76L0.694,1.724C0.738,1.679 0.785,1.638 0.836,1.6C0.869,1.577 0.903,1.557 0.939,1.54L0.354,1.442L0.916,1.348C0.881,1.31 0.839,1.279 0.792,1.258C0.763,1.246 0.733,1.237 0.702,1.232C0.676,1.229 0.65,1.221 0.626,1.21C0.56,1.173 0.51,1.111 0.488,1.039L0.487,1.038L0.489,1.031L0.496,1.033C0.516,1.064 0.545,1.088 0.579,1.103C0.606,1.114 0.635,1.117 0.664,1.113C0.678,1.113 0.694,1.113 0.714,1.113C0.777,1.113 0.84,1.117 0.902,1.126C0.941,1.133 0.98,1.143 1.017,1.157L0.673,0.673L1.137,1.004C1.139,0.952 1.131,0.901 1.113,0.852C1.101,0.823 1.086,0.796 1.067,0.771C1.051,0.75 1.038,0.726 1.029,0.701C1.009,0.628 1.017,0.549 1.052,0.482L1.053,0.481L1.06,0.478L1.064,0.484C1.056,0.52 1.059,0.558 1.072,0.592C1.084,0.619 1.102,0.642 1.125,0.66L1.16,0.695C1.205,0.738 1.247,0.786 1.284,0.836C1.307,0.869 1.327,0.904 1.344,0.94L1.442,0.354L1.536,0.916C1.575,0.882 1.605,0.839 1.626,0.792C1.639,0.763 1.647,0.733 1.652,0.702C1.656,0.676 1.663,0.65 1.674,0.627C1.711,0.56 1.773,0.511 1.845,0.488L1.847,0.487L1.854,0.49L1.852,0.497C1.821,0.517 1.796,0.545 1.781,0.579C1.771,0.606 1.767,0.635 1.771,0.664L1.771,0.714C1.772,0.777 1.768,0.84 1.759,0.902C1.752,0.942 1.742,0.98 1.728,1.018L2.212,0.673L1.881,1.137C1.932,1.14 1.984,1.131 2.032,1.113C2.061,1.101 2.089,1.086 2.114,1.068C2.135,1.052 2.158,1.039 2.184,1.03C2.257,1.009 2.335,1.017 2.403,1.053L2.404,1.053L2.407,1.06L2.401,1.063C2.365,1.056 2.327,1.058 2.293,1.071C2.266,1.084 2.243,1.102 2.225,1.125L2.19,1.161C2.146,1.206 2.099,1.247 2.048,1.284C2.016,1.308 1.981,1.328 1.945,1.344L2.531,1.443L1.968,1.537C2.003,1.575 2.045,1.606 2.092,1.627Z" style="fill:white;fill-rule:nonzero;"/>
    </g>
    <g transform="matrix(25.0567,0,0,25.0567,0,0)">
        <rect x="0" y="2.882" width="7.982" height="0.577" style="fill:rgb(9,51,174);fill-rule:nonzero;"/>
    </g>
    <g transform="matrix(25.0567,0,0,25.0567,0,0)">
        <rect x="0" y="4.035" width="7.982" height="0.576" style="fill:rgb(9,51,174);"/>
    </g>
    <g transform="matrix(25.0567,0,0,25.0567,0,0)">
        <rect x="2.882" y="1.729" width="5.099" height="0.577" style="fill:rgb(9,51,174);"/>
    </g>
    <g transform="matrix(25.0567,0,0,25.0567,0,0)">
        <rect x="2.882" y="0.576" width="5.099" height="0.577" style="fill:rgb(9,51,174);"/>
    </g>
    <g transform="matrix(25.0567,0,0,25.0567,0,0)">
        <path d="M1.124,1.578L1.124,1.577C1.101,1.584 1.077,1.592 1.053,1.6C0.995,1.62 0.938,1.645 0.885,1.675C0.831,1.708 0.778,1.743 0.727,1.781L0.708,1.796C0.686,1.814 0.661,1.829 0.635,1.839C0.614,1.845 0.593,1.849 0.571,1.849L0.564,1.849C0.608,1.86 0.654,1.859 0.698,1.845C0.721,1.836 0.744,1.824 0.764,1.808C0.79,1.789 0.818,1.774 0.848,1.762C0.9,1.742 0.955,1.734 1.011,1.737L1.124,1.578Z" style="fill:rgb(255,200,30);fill-rule:nonzero;"/>
    </g>
    <g transform="matrix(25.0567,0,0,25.0567,0,0)">
        <path d="M1.589,1.755L2.139,2.147L1.682,1.69C1.655,1.717 1.624,1.739 1.589,1.755Z" style="fill:rgb(255,200,30);fill-rule:nonzero;"/>
    </g>
    <g transform="matrix(25.0567,0,0,25.0567,0,0)">
        <path d="M1.69,1.683L2.147,2.139L1.755,1.589C1.738,1.624 1.716,1.655 1.69,1.683Z" style="fill:rgb(255,200,30);fill-rule:nonzero;"/>
    </g>
    <g transform="matrix(25.0567,0,0,25.0567,0,0)">
        <path d="M0.596,1.142C0.621,1.153 0.647,1.16 0.675,1.162L0.699,1.166C0.762,1.175 0.824,1.187 0.886,1.202C0.946,1.219 1.004,1.242 1.06,1.269C1.08,1.279 1.1,1.289 1.119,1.299L1.028,1.172C0.987,1.156 0.944,1.144 0.9,1.136C0.838,1.127 0.776,1.123 0.714,1.124L0.664,1.124C0.633,1.127 0.603,1.124 0.574,1.113C0.557,1.105 0.541,1.095 0.527,1.083C0.545,1.108 0.569,1.128 0.596,1.142Z" style="fill:rgb(255,200,30);fill-rule:nonzero;"/>
    </g>
    <g transform="matrix(25.0567,0,0,25.0567,0,0)">
        <path d="M1.13,1.589L0.738,2.139L1.195,1.683C1.168,1.656 1.146,1.624 1.13,1.589Z" style="fill:rgb(255,200,30);fill-rule:nonzero;"/>
    </g>
    <g transform="matrix(25.0567,0,0,25.0567,0,0)">
        <path d="M1.122,1.314L1.122,1.313C1.1,1.301 1.077,1.289 1.055,1.279C1,1.252 0.942,1.229 0.883,1.213C0.822,1.197 0.759,1.185 0.697,1.177L0.673,1.173C0.645,1.171 0.617,1.163 0.591,1.152C0.57,1.141 0.55,1.126 0.534,1.109C0.557,1.148 0.591,1.18 0.631,1.201C0.654,1.211 0.679,1.218 0.704,1.222C0.736,1.227 0.767,1.236 0.796,1.248C0.847,1.271 0.892,1.304 0.929,1.346L1.122,1.314Z" style="fill:rgb(255,200,30);fill-rule:nonzero;"/>
    </g>
    <g transform="matrix(25.0567,0,0,25.0567,0,0)">
        <path d="M1.448,0.452L1.448,1.097C1.486,1.097 1.523,1.104 1.559,1.117L1.448,0.452Z" style="fill:rgb(255,200,30);fill-rule:nonzero;"/>
    </g>
    <g transform="matrix(25.0567,0,0,25.0567,0,0)">
        <path d="M1.787,2.183L1.772,2.163C1.734,2.112 1.698,2.06 1.665,2.005C1.635,1.951 1.61,1.894 1.59,1.835C1.582,1.814 1.576,1.793 1.569,1.772L1.543,1.925C1.561,1.966 1.583,2.005 1.609,2.042C1.646,2.092 1.687,2.139 1.732,2.182L1.767,2.217C1.791,2.235 1.81,2.26 1.823,2.288C1.83,2.305 1.834,2.324 1.835,2.343C1.84,2.312 1.837,2.282 1.828,2.253C1.818,2.227 1.804,2.204 1.786,2.183Z" style="fill:rgb(255,200,30);fill-rule:nonzero;"/>
    </g>
    <g transform="matrix(25.0567,0,0,25.0567,0,0)">
        <path d="M1.737,1.874L1.578,1.76L1.577,1.76C1.584,1.784 1.592,1.808 1.6,1.831C1.62,1.89 1.645,1.946 1.675,2C1.707,2.054 1.743,2.107 1.781,2.157L1.795,2.177C1.814,2.199 1.828,2.223 1.838,2.25C1.846,2.273 1.849,2.297 1.848,2.321C1.86,2.277 1.859,2.231 1.845,2.187C1.836,2.163 1.824,2.14 1.808,2.12C1.789,2.094 1.773,2.066 1.762,2.037C1.742,1.985 1.733,1.929 1.737,1.874Z" style="fill:rgb(255,200,30);fill-rule:nonzero;"/>
    </g>
    <g transform="matrix(25.0567,0,0,25.0567,0,0)">
        <path d="M0.631,1.829C0.657,1.819 0.681,1.805 0.701,1.787L0.722,1.773C0.772,1.734 0.825,1.698 0.88,1.666C0.934,1.635 0.991,1.61 1.05,1.59C1.071,1.583 1.092,1.576 1.113,1.57L0.959,1.544C0.918,1.561 0.879,1.583 0.842,1.609C0.792,1.646 0.745,1.687 0.702,1.732L0.667,1.767C0.648,1.791 0.624,1.811 0.596,1.823C0.578,1.83 0.56,1.834 0.541,1.836C0.571,1.84 0.602,1.838 0.631,1.829Z" style="fill:rgb(255,200,30);fill-rule:nonzero;"/>
    </g>
    <g transform="matrix(25.0567,0,0,25.0567,0,0)">
        <path d="M1.098,0.702L1.112,0.722C1.15,0.772 1.186,0.825 1.219,0.88C1.249,0.934 1.274,0.991 1.294,1.05C1.302,1.071 1.309,1.092 1.315,1.113L1.341,0.959C1.323,0.918 1.301,0.879 1.275,0.843C1.238,0.793 1.197,0.746 1.153,0.702L1.117,0.667C1.093,0.648 1.074,0.624 1.061,0.596C1.054,0.579 1.05,0.56 1.049,0.542C1.044,0.572 1.047,0.602 1.056,0.631C1.066,0.657 1.08,0.681 1.098,0.702Z" style="fill:rgb(255,200,30);fill-rule:nonzero;"/>
    </g>
    <g transform="matrix(25.0567,0,0,25.0567,0,0)">
        <path d="M1.442,1.629C1.452,1.629 1.462,1.628 1.472,1.627C1.481,1.626 1.491,1.624 1.5,1.622C1.52,1.617 1.539,1.61 1.558,1.602C1.549,1.597 1.539,1.594 1.53,1.591C1.521,1.587 1.511,1.586 1.502,1.586L1.488,1.587L1.459,1.597L1.442,1.599C1.436,1.599 1.431,1.599 1.425,1.598L1.409,1.593L1.395,1.59C1.391,1.589 1.386,1.589 1.382,1.589C1.362,1.59 1.342,1.596 1.325,1.605C1.343,1.613 1.363,1.619 1.383,1.624C1.402,1.628 1.422,1.63 1.442,1.629Z" style="fill:rgb(255,200,30);fill-rule:nonzero;"/>
    </g>
    <g transform="matrix(25.0567,0,0,25.0567,0,0)">
        <path d="M1.437,1.097L1.437,0.452L1.325,1.117C1.361,1.104 1.399,1.098 1.437,1.097Z" style="fill:rgb(255,200,30);fill-rule:nonzero;"/>
    </g>
    <g transform="matrix(25.0567,0,0,25.0567,0,0)">
        <path d="M1.315,1.331C1.329,1.334 1.34,1.347 1.34,1.362C1.34,1.377 1.329,1.39 1.315,1.393C1.351,1.392 1.375,1.376 1.375,1.362C1.375,1.348 1.351,1.333 1.315,1.331Z" style="fill:rgb(255,200,30);fill-rule:nonzero;"/>
    </g>
    <g transform="matrix(25.0567,0,0,25.0567,0,0)">
        <path d="M1.767,1.559L2.433,1.448L1.787,1.448C1.787,1.486 1.78,1.524 1.767,1.559Z" style="fill:rgb(255,200,30);fill-rule:nonzero;"/>
    </g>
    <g transform="matrix(25.0567,0,0,25.0567,0,0)">
        <path d="M1.777,1.442C1.777,1.442 1.777,1.442 1.777,1.442C1.777,1.259 1.626,1.108 1.442,1.108C1.258,1.108 1.107,1.259 1.107,1.442C1.107,1.626 1.258,1.777 1.442,1.777C1.442,1.777 1.442,1.777 1.442,1.777C1.626,1.777 1.776,1.626 1.777,1.442ZM1.526,1.284C1.542,1.273 1.561,1.267 1.581,1.265L1.596,1.265L1.61,1.267C1.62,1.269 1.629,1.272 1.638,1.276C1.656,1.284 1.671,1.296 1.682,1.311C1.667,1.302 1.651,1.294 1.633,1.289L1.621,1.286L1.608,1.284C1.599,1.283 1.591,1.283 1.582,1.284L1.576,1.284L1.57,1.285L1.557,1.288L1.532,1.297C1.516,1.305 1.501,1.314 1.487,1.326C1.496,1.309 1.509,1.294 1.526,1.284ZM1.424,1.514C1.426,1.52 1.431,1.525 1.436,1.527C1.441,1.529 1.446,1.529 1.451,1.527C1.456,1.525 1.461,1.521 1.463,1.515C1.466,1.509 1.471,1.504 1.478,1.501C1.484,1.501 1.49,1.502 1.495,1.505L1.502,1.507C1.505,1.506 1.508,1.498 1.507,1.492C1.505,1.485 1.501,1.479 1.495,1.476L1.493,1.469L1.5,1.466C1.509,1.471 1.516,1.48 1.518,1.49C1.52,1.501 1.515,1.512 1.506,1.518C1.501,1.519 1.495,1.518 1.49,1.515L1.48,1.512L1.472,1.521C1.468,1.528 1.462,1.535 1.455,1.538L1.444,1.54L1.432,1.538C1.424,1.534 1.418,1.528 1.415,1.52L1.408,1.513L1.402,1.516C1.397,1.521 1.391,1.523 1.385,1.523C1.374,1.519 1.366,1.51 1.365,1.498C1.364,1.486 1.37,1.474 1.38,1.467L1.388,1.468L1.386,1.475C1.379,1.48 1.376,1.488 1.376,1.497C1.377,1.503 1.382,1.511 1.387,1.512L1.395,1.508C1.399,1.503 1.404,1.501 1.41,1.502C1.417,1.503 1.421,1.509 1.424,1.515ZM1.201,1.311C1.212,1.296 1.227,1.283 1.245,1.275C1.254,1.271 1.263,1.269 1.273,1.267L1.287,1.265L1.302,1.265C1.312,1.266 1.322,1.268 1.331,1.271C1.34,1.274 1.349,1.278 1.358,1.284C1.374,1.294 1.387,1.308 1.396,1.325C1.382,1.314 1.367,1.304 1.351,1.296L1.326,1.287L1.314,1.285L1.307,1.284L1.301,1.283C1.292,1.282 1.284,1.282 1.275,1.283L1.262,1.285L1.25,1.289C1.233,1.294 1.216,1.301 1.201,1.311ZM1.232,1.362L1.234,1.354L1.222,1.366L1.217,1.368L1.214,1.367L1.213,1.36L1.227,1.346C1.246,1.33 1.27,1.321 1.295,1.321L1.309,1.32C1.352,1.32 1.386,1.338 1.386,1.362C1.386,1.385 1.352,1.404 1.309,1.404C1.266,1.404 1.232,1.386 1.232,1.362ZM1.462,1.688L1.416,1.688L1.415,1.685C1.415,1.68 1.429,1.677 1.439,1.677C1.449,1.677 1.463,1.68 1.464,1.685L1.462,1.688ZM1.558,1.602C1.542,1.617 1.524,1.628 1.504,1.635C1.494,1.639 1.484,1.642 1.473,1.644L1.466,1.645L1.458,1.646L1.441,1.647C1.42,1.648 1.399,1.644 1.378,1.637C1.358,1.63 1.34,1.619 1.324,1.605C1.332,1.597 1.34,1.591 1.349,1.586C1.359,1.58 1.369,1.576 1.38,1.574C1.386,1.574 1.391,1.574 1.397,1.574L1.413,1.578C1.422,1.58 1.432,1.582 1.441,1.582C1.45,1.581 1.46,1.58 1.468,1.576L1.485,1.572C1.49,1.571 1.496,1.571 1.502,1.572C1.513,1.574 1.523,1.577 1.533,1.583C1.542,1.588 1.55,1.595 1.558,1.603L1.558,1.602ZM1.67,1.367L1.667,1.369L1.662,1.366L1.65,1.354L1.651,1.362C1.651,1.386 1.618,1.404 1.575,1.404C1.532,1.404 1.498,1.386 1.498,1.362C1.498,1.339 1.532,1.32 1.575,1.32L1.588,1.321C1.613,1.321 1.638,1.33 1.657,1.346L1.67,1.36L1.67,1.367Z" style="fill:rgb(255,200,30);fill-rule:nonzero;"/>
    </g>
    <g transform="matrix(25.0567,0,0,25.0567,0,0)">
        <path d="M2.288,1.743C2.263,1.731 2.237,1.725 2.209,1.722L2.186,1.719C2.122,1.71 2.06,1.698 1.998,1.683C1.938,1.666 1.88,1.643 1.824,1.616C1.804,1.606 1.784,1.596 1.765,1.586L1.856,1.713C1.897,1.729 1.94,1.741 1.984,1.749C2.046,1.758 2.108,1.762 2.17,1.761C2.19,1.761 2.206,1.761 2.22,1.761C2.251,1.757 2.282,1.761 2.31,1.772C2.327,1.779 2.343,1.789 2.358,1.802C2.339,1.777 2.316,1.757 2.288,1.743Z" style="fill:rgb(255,200,30);fill-rule:nonzero;"/>
    </g>
    <g transform="matrix(25.0567,0,0,25.0567,0,0)">
        <path d="M1.787,1.437L2.433,1.437L1.767,1.325C1.78,1.361 1.787,1.399 1.787,1.437Z" style="fill:rgb(255,200,30);fill-rule:nonzero;"/>
    </g>
    <g transform="matrix(25.0567,0,0,25.0567,0,0)">
        <path d="M1.147,1.011L1.306,1.125L1.307,1.125C1.3,1.101 1.293,1.077 1.284,1.053C1.265,0.995 1.24,0.939 1.21,0.885C1.177,0.831 1.141,0.778 1.103,0.728L1.089,0.708C1.07,0.686 1.056,0.662 1.046,0.635C1.038,0.612 1.035,0.588 1.036,0.564C1.024,0.608 1.026,0.654 1.039,0.698C1.048,0.722 1.06,0.744 1.076,0.765C1.095,0.79 1.111,0.819 1.122,0.848C1.142,0.9 1.151,0.956 1.147,1.011Z" style="fill:rgb(255,200,30);fill-rule:nonzero;"/>
    </g>
    <g transform="matrix(25.0567,0,0,25.0567,0,0)">
        <path d="M1.277,1.362C1.277,1.347 1.288,1.334 1.302,1.331L1.295,1.332C1.264,1.335 1.243,1.349 1.243,1.362C1.243,1.375 1.267,1.391 1.302,1.393C1.288,1.39 1.277,1.377 1.277,1.362Z" style="fill:rgb(255,200,30);fill-rule:nonzero;"/>
    </g>
    <g transform="matrix(25.0567,0,0,25.0567,0,0)">
        <path d="M1.588,1.332L1.582,1.331C1.596,1.334 1.607,1.347 1.607,1.362C1.607,1.377 1.596,1.39 1.582,1.393C1.617,1.391 1.641,1.376 1.641,1.362C1.641,1.348 1.62,1.335 1.588,1.332Z" style="fill:rgb(255,200,30);fill-rule:nonzero;"/>
    </g>
    <g transform="matrix(25.0567,0,0,25.0567,0,0)">
        <path d="M2.253,1.056C2.227,1.066 2.203,1.08 2.183,1.098L2.163,1.112C2.112,1.151 2.059,1.186 2.004,1.219C1.95,1.249 1.893,1.275 1.834,1.295C1.814,1.302 1.792,1.309 1.771,1.315L1.925,1.341C1.966,1.323 2.005,1.301 2.041,1.275C2.091,1.238 2.138,1.197 2.181,1.152L2.216,1.117C2.235,1.093 2.259,1.074 2.287,1.061C2.305,1.054 2.324,1.05 2.343,1.049C2.313,1.045 2.282,1.047 2.253,1.056Z" style="fill:rgb(255,200,30);fill-rule:nonzero;"/>
    </g>
    <g transform="matrix(25.0567,0,0,25.0567,0,0)">
        <path d="M1.544,1.362C1.544,1.347 1.554,1.334 1.569,1.331C1.533,1.333 1.509,1.348 1.509,1.362C1.509,1.376 1.533,1.392 1.569,1.393C1.554,1.39 1.544,1.377 1.544,1.362Z" style="fill:rgb(255,200,30);fill-rule:nonzero;"/>
    </g>
    <g transform="matrix(25.0567,0,0,25.0567,0,0)">
        <path d="M1.682,1.194L2.139,0.738L1.589,1.13C1.623,1.146 1.655,1.168 1.682,1.194Z" style="fill:rgb(255,200,30);fill-rule:nonzero;"/>
    </g>
    <g transform="matrix(25.0567,0,0,25.0567,0,0)">
        <path d="M1.097,1.448L0.451,1.448L1.117,1.559C1.104,1.524 1.097,1.486 1.097,1.448Z" style="fill:rgb(255,200,30);fill-rule:nonzero;"/>
    </g>
    <g transform="matrix(25.0567,0,0,25.0567,0,0)">
        <path d="M1.755,1.295L2.147,0.745L1.69,1.202C1.716,1.229 1.738,1.261 1.755,1.295Z" style="fill:rgb(255,200,30);fill-rule:nonzero;"/>
    </g>
    <g transform="matrix(25.0567,0,0,25.0567,0,0)">
        <path d="M1.763,1.571L1.763,1.572C1.784,1.584 1.807,1.595 1.829,1.606C1.884,1.633 1.942,1.655 2.001,1.672C2.062,1.687 2.125,1.699 2.187,1.708L2.211,1.712C2.24,1.714 2.267,1.721 2.293,1.733C2.315,1.744 2.334,1.759 2.35,1.776C2.327,1.737 2.294,1.705 2.253,1.684C2.23,1.673 2.205,1.666 2.18,1.663C2.148,1.658 2.117,1.649 2.088,1.637C2.037,1.614 1.992,1.58 1.956,1.539L1.763,1.571Z" style="fill:rgb(255,200,30);fill-rule:nonzero;"/>
    </g>
    <g transform="matrix(25.0567,0,0,25.0567,0,0)">
        <path d="M1.437,2.433L1.437,1.788C1.399,1.787 1.361,1.78 1.325,1.768L1.437,2.433Z" style="fill:rgb(255,200,30);fill-rule:nonzero;"/>
    </g>
    <g transform="matrix(25.0567,0,0,25.0567,0,0)">
        <path d="M1.117,1.325L0.451,1.437L1.097,1.437C1.097,1.399 1.104,1.361 1.117,1.325Z" style="fill:rgb(255,200,30);fill-rule:nonzero;"/>
    </g>
    <g transform="matrix(25.0567,0,0,25.0567,0,0)">
        <path d="M1.448,1.788L1.448,2.433L1.559,1.767C1.523,1.78 1.486,1.787 1.448,1.788Z" style="fill:rgb(255,200,30);fill-rule:nonzero;"/>
    </g>
    <g transform="matrix(25.0567,0,0,25.0567,0,0)">
        <path d="M1.194,1.202L0.738,0.746L1.13,1.296C1.146,1.261 1.168,1.229 1.194,1.202Z" style="fill:rgb(255,200,30);fill-rule:nonzero;"/>
    </g>
    <g transform="matrix(25.0567,0,0,25.0567,0,0)">
        <path d="M1.313,1.763C1.301,1.784 1.289,1.807 1.278,1.829C1.251,1.885 1.229,1.942 1.212,2.001C1.197,2.063 1.185,2.125 1.176,2.188L1.172,2.211C1.17,2.24 1.163,2.267 1.152,2.293C1.141,2.315 1.126,2.334 1.108,2.351C1.147,2.328 1.179,2.294 1.2,2.254C1.211,2.23 1.218,2.205 1.222,2.18C1.226,2.148 1.235,2.117 1.248,2.088C1.271,2.037 1.304,1.992 1.346,1.956L1.313,1.763L1.313,1.763Z" style="fill:rgb(255,200,30);fill-rule:nonzero;"/>
    </g>
    <g transform="matrix(25.0567,0,0,25.0567,0,0)">
        <path d="M1.76,1.307L1.76,1.307C1.784,1.301 1.808,1.293 1.831,1.285C1.89,1.265 1.946,1.24 2,1.21C2.054,1.177 2.107,1.142 2.157,1.104L2.177,1.089C2.199,1.071 2.223,1.056 2.25,1.046C2.273,1.039 2.297,1.035 2.321,1.036C2.277,1.025 2.231,1.026 2.187,1.04C2.163,1.049 2.141,1.061 2.12,1.076C2.095,1.095 2.067,1.111 2.037,1.123C1.985,1.143 1.929,1.151 1.874,1.147L1.76,1.307Z" style="fill:rgb(255,200,30);fill-rule:nonzero;"/>
    </g>
    <g transform="matrix(25.0567,0,0,25.0567,0,0)">
        <path d="M1.162,2.21L1.166,2.186C1.174,2.123 1.186,2.06 1.202,1.999C1.219,1.939 1.241,1.881 1.269,1.825C1.279,1.805 1.289,1.785 1.299,1.766L1.172,1.856C1.155,1.898 1.143,1.941 1.136,1.985C1.126,2.046 1.122,2.109 1.123,2.171L1.123,2.221C1.127,2.251 1.123,2.282 1.112,2.311C1.105,2.328 1.095,2.344 1.082,2.358C1.107,2.34 1.127,2.316 1.141,2.289C1.152,2.264 1.159,2.237 1.162,2.21Z" style="fill:rgb(255,200,30);fill-rule:nonzero;"/>
    </g>
    <g transform="matrix(25.0567,0,0,25.0567,0,0)">
        <path d="M1.202,1.69L0.745,2.147L1.295,1.755C1.261,1.738 1.229,1.716 1.202,1.69Z" style="fill:rgb(255,200,30);fill-rule:nonzero;"/>
    </g>
    <g transform="matrix(25.0567,0,0,25.0567,0,0)">
        <path d="M1.722,0.675L1.718,0.699C1.71,0.762 1.698,0.825 1.682,0.887C1.665,0.946 1.643,1.004 1.616,1.06C1.606,1.08 1.595,1.1 1.585,1.119L1.712,1.029C1.729,0.987 1.741,0.944 1.748,0.9C1.758,0.839 1.762,0.776 1.761,0.714L1.761,0.664C1.757,0.634 1.761,0.603 1.772,0.574C1.779,0.557 1.789,0.541 1.802,0.527C1.777,0.545 1.757,0.569 1.743,0.596C1.732,0.621 1.725,0.648 1.722,0.675Z" style="fill:rgb(255,200,30);fill-rule:nonzero;"/>
    </g>
    <g transform="matrix(25.0567,0,0,25.0567,0,0)">
        <path d="M1.571,1.122C1.583,1.1 1.595,1.078 1.606,1.055C1.633,1 1.655,0.943 1.672,0.884C1.687,0.822 1.699,0.76 1.708,0.697L1.712,0.673C1.714,0.645 1.721,0.617 1.733,0.591C1.744,0.57 1.758,0.55 1.776,0.534C1.737,0.557 1.705,0.591 1.684,0.631C1.673,0.654 1.666,0.679 1.663,0.704C1.658,0.736 1.649,0.767 1.636,0.796C1.614,0.847 1.58,0.892 1.538,0.929L1.571,1.122L1.571,1.122Z" style="fill:rgb(255,200,30);fill-rule:nonzero;"/>
    </g>
    <g transform="matrix(25.0567,0,0,25.0567,0,0)">
        <path d="M1.295,1.13L0.745,0.738L1.202,1.195C1.229,1.168 1.261,1.146 1.295,1.13Z" style="fill:rgb(255,200,30);fill-rule:nonzero;"/>
    </g>
    <g transform="matrix(25.0567,0,0,25.0567,0,0)">
        <path d="M1.945,1.344C1.981,1.327 2.016,1.307 2.048,1.284C2.099,1.247 2.146,1.206 2.19,1.16L2.225,1.125C2.243,1.102 2.266,1.084 2.293,1.071C2.327,1.058 2.365,1.056 2.401,1.063L2.407,1.06L2.404,1.053L2.402,1.053C2.335,1.018 2.256,1.009 2.183,1.03C2.158,1.039 2.135,1.052 2.113,1.068C2.088,1.086 2.061,1.102 2.032,1.113C1.983,1.131 1.932,1.14 1.88,1.137L2.211,0.673L1.728,1.018C1.742,0.98 1.752,0.942 1.759,0.902C1.768,0.84 1.773,0.777 1.772,0.714L1.771,0.664C1.768,0.635 1.771,0.606 1.781,0.579C1.796,0.545 1.821,0.517 1.852,0.497L1.854,0.49L1.847,0.487L1.845,0.488C1.773,0.511 1.712,0.56 1.674,0.626C1.663,0.651 1.656,0.676 1.652,0.703C1.647,0.733 1.639,0.764 1.626,0.793C1.605,0.84 1.575,0.882 1.536,0.917L1.442,0.354L1.344,0.94C1.327,0.904 1.307,0.869 1.284,0.837C1.247,0.786 1.205,0.738 1.16,0.694L1.125,0.66C1.102,0.642 1.083,0.619 1.071,0.592C1.058,0.558 1.055,0.52 1.063,0.484L1.06,0.478L1.053,0.481L1.052,0.482C1.017,0.55 1.009,0.628 1.029,0.701C1.038,0.726 1.051,0.75 1.067,0.771C1.086,0.796 1.101,0.824 1.113,0.853C1.131,0.901 1.139,0.952 1.137,1.004L0.673,0.673L1.017,1.156C0.98,1.143 0.941,1.132 0.902,1.125C0.84,1.116 0.777,1.112 0.714,1.113L0.664,1.113C0.635,1.117 0.606,1.113 0.578,1.103C0.545,1.088 0.516,1.063 0.496,1.032L0.489,1.031L0.487,1.037L0.488,1.039C0.51,1.112 0.56,1.173 0.626,1.21C0.65,1.221 0.676,1.229 0.702,1.232C0.733,1.237 0.763,1.246 0.792,1.258C0.839,1.279 0.881,1.31 0.916,1.348L0.354,1.442L0.939,1.54C0.903,1.557 0.869,1.577 0.836,1.6C0.785,1.637 0.738,1.679 0.694,1.724L0.659,1.76C0.641,1.783 0.618,1.801 0.592,1.813C0.557,1.827 0.52,1.829 0.484,1.822L0.477,1.825L0.48,1.831C0.526,1.853 0.577,1.866 0.628,1.867C0.653,1.867 0.677,1.863 0.701,1.855C0.726,1.846 0.75,1.833 0.771,1.817C0.796,1.799 0.823,1.783 0.852,1.772C0.901,1.753 0.952,1.745 1.004,1.748L0.673,2.212L1.156,1.867C1.143,1.905 1.132,1.943 1.126,1.983C1.116,2.045 1.112,2.108 1.113,2.171L1.113,2.221C1.117,2.249 1.113,2.279 1.103,2.306C1.088,2.34 1.063,2.368 1.032,2.388L1.03,2.395L1.035,2.398L1.037,2.398L1.039,2.397C1.111,2.375 1.172,2.325 1.21,2.259C1.221,2.235 1.228,2.209 1.232,2.183C1.237,2.152 1.245,2.121 1.258,2.093C1.279,2.046 1.309,2.003 1.348,1.968L1.442,2.531L1.54,1.945C1.557,1.981 1.577,2.016 1.6,2.048C1.637,2.099 1.679,2.146 1.724,2.19L1.76,2.225C1.783,2.243 1.801,2.266 1.813,2.293C1.826,2.327 1.829,2.365 1.821,2.401L1.825,2.407L1.826,2.407L1.831,2.404L1.832,2.402C1.867,2.335 1.875,2.257 1.855,2.183C1.846,2.158 1.833,2.135 1.817,2.114C1.798,2.089 1.783,2.061 1.772,2.032C1.753,1.984 1.745,1.933 1.747,1.881L2.212,2.212L1.867,1.728C1.904,1.742 1.943,1.752 1.982,1.759C2.044,1.768 2.107,1.773 2.17,1.772L2.22,1.772C2.249,1.768 2.278,1.772 2.306,1.782C2.339,1.797 2.368,1.822 2.388,1.853L2.393,1.855L2.395,1.855L2.398,1.848L2.397,1.846C2.374,1.774 2.324,1.712 2.258,1.675C2.234,1.664 2.208,1.657 2.182,1.653C2.151,1.648 2.121,1.64 2.092,1.627C2.045,1.606 2.003,1.576 1.968,1.537L2.53,1.442L1.945,1.344ZM2.433,1.437L1.787,1.437C1.787,1.399 1.78,1.361 1.767,1.325L2.433,1.437ZM2.288,1.061C2.26,1.074 2.236,1.093 2.217,1.117L2.182,1.153C2.139,1.198 2.092,1.239 2.042,1.276C2.006,1.301 1.967,1.323 1.926,1.341L1.772,1.315C1.793,1.309 1.815,1.302 1.835,1.295C1.894,1.275 1.951,1.25 2.006,1.22C2.06,1.187 2.113,1.151 2.164,1.113L2.184,1.099C2.204,1.081 2.228,1.067 2.254,1.057C2.283,1.048 2.314,1.045 2.344,1.05C2.325,1.051 2.306,1.055 2.288,1.061ZM2.036,1.123C2.066,1.111 2.094,1.096 2.12,1.076C2.14,1.061 2.163,1.049 2.187,1.04C2.23,1.026 2.276,1.025 2.32,1.036C2.296,1.035 2.272,1.039 2.249,1.046C2.222,1.056 2.198,1.071 2.176,1.09L2.156,1.104C2.106,1.142 2.054,1.177 2,1.21C1.946,1.24 1.89,1.265 1.832,1.285C1.808,1.293 1.784,1.301 1.76,1.308L1.76,1.307L1.874,1.148C1.929,1.151 1.984,1.143 2.036,1.123ZM1.755,1.295C1.738,1.261 1.716,1.229 1.69,1.202L2.147,0.746L1.755,1.295ZM2.139,0.738L1.682,1.195C1.655,1.168 1.624,1.146 1.589,1.13L2.139,0.738ZM1.801,0.527C1.789,0.541 1.778,0.557 1.771,0.575C1.76,0.603 1.756,0.634 1.76,0.665L1.76,0.715C1.761,0.777 1.757,0.839 1.748,0.9C1.741,0.944 1.729,0.987 1.712,1.029L1.585,1.119C1.596,1.1 1.606,1.08 1.615,1.06C1.643,1.004 1.665,0.946 1.682,0.887C1.698,0.825 1.71,0.762 1.719,0.699L1.722,0.675C1.724,0.648 1.731,0.621 1.742,0.596C1.756,0.569 1.776,0.545 1.801,0.527ZM1.636,0.796C1.649,0.767 1.658,0.736 1.663,0.705C1.666,0.679 1.673,0.654 1.684,0.631C1.705,0.591 1.737,0.557 1.776,0.534C1.758,0.55 1.744,0.57 1.733,0.591C1.721,0.617 1.714,0.645 1.712,0.673L1.708,0.697C1.699,0.76 1.687,0.822 1.672,0.884C1.655,0.943 1.633,1 1.606,1.055C1.595,1.078 1.583,1.1 1.571,1.122L1.571,1.122L1.538,0.929C1.58,0.892 1.614,0.847 1.636,0.796ZM1.448,0.452L1.559,1.117C1.523,1.105 1.486,1.098 1.448,1.097L1.448,0.452ZM1.437,0.452L1.437,1.097C1.399,1.097 1.361,1.104 1.325,1.117L1.437,0.452ZM1.049,0.542C1.05,0.56 1.054,0.579 1.061,0.596C1.074,0.624 1.093,0.648 1.117,0.667L1.153,0.702C1.197,0.746 1.238,0.793 1.275,0.843C1.301,0.879 1.323,0.918 1.341,0.959L1.315,1.113C1.309,1.092 1.302,1.07 1.294,1.049C1.274,0.991 1.249,0.934 1.219,0.879C1.186,0.825 1.15,0.772 1.112,0.721L1.098,0.701C1.08,0.681 1.066,0.657 1.056,0.631C1.047,0.602 1.044,0.572 1.049,0.542ZM1.123,0.848C1.111,0.819 1.095,0.79 1.076,0.765C1.061,0.744 1.048,0.722 1.039,0.698C1.026,0.654 1.024,0.608 1.036,0.564C1.035,0.588 1.038,0.612 1.046,0.635C1.056,0.662 1.071,0.686 1.089,0.708L1.103,0.728C1.142,0.778 1.177,0.831 1.21,0.885C1.24,0.938 1.265,0.995 1.285,1.053C1.293,1.077 1.301,1.101 1.307,1.124L1.307,1.124L1.148,1.011C1.151,0.956 1.142,0.9 1.123,0.848ZM1.295,1.13C1.261,1.146 1.229,1.168 1.202,1.195L0.745,0.738L1.295,1.13ZM0.738,0.746L1.194,1.202C1.168,1.229 1.146,1.261 1.13,1.295L0.738,0.746ZM0.574,1.113C0.603,1.124 0.634,1.128 0.664,1.124C0.678,1.124 0.694,1.124 0.714,1.124C0.776,1.123 0.839,1.127 0.9,1.136C0.944,1.144 0.987,1.156 1.028,1.172L1.119,1.299C1.099,1.289 1.08,1.278 1.06,1.269C1.004,1.242 0.946,1.219 0.886,1.202C0.824,1.187 0.762,1.175 0.699,1.166L0.675,1.162C0.647,1.16 0.621,1.153 0.596,1.142C0.569,1.128 0.545,1.108 0.527,1.083C0.541,1.096 0.557,1.106 0.574,1.113ZM0.796,1.248C0.767,1.236 0.736,1.227 0.704,1.222C0.679,1.218 0.654,1.211 0.631,1.201C0.591,1.18 0.557,1.148 0.534,1.109C0.55,1.126 0.57,1.141 0.591,1.152C0.617,1.163 0.645,1.171 0.673,1.173L0.697,1.177C0.76,1.185 0.822,1.197 0.883,1.212C0.942,1.229 1,1.252 1.055,1.279C1.078,1.289 1.1,1.301 1.122,1.313L1.122,1.314L0.929,1.346C0.892,1.304 0.847,1.271 0.796,1.248ZM1.117,1.325C1.104,1.361 1.097,1.399 1.097,1.437L0.451,1.437L1.117,1.325ZM0.451,1.448L1.097,1.448C1.097,1.486 1.104,1.524 1.117,1.559L0.451,1.448ZM0.596,1.823C0.624,1.811 0.648,1.791 0.667,1.767L0.702,1.732C0.745,1.687 0.792,1.646 0.842,1.609C0.879,1.583 0.918,1.561 0.959,1.544L1.112,1.57C1.091,1.576 1.07,1.583 1.049,1.59C0.99,1.61 0.933,1.635 0.879,1.666C0.825,1.698 0.772,1.734 0.721,1.773L0.701,1.787C0.68,1.805 0.656,1.819 0.631,1.829C0.602,1.838 0.571,1.84 0.541,1.836C0.56,1.834 0.578,1.83 0.596,1.823ZM0.848,1.762C0.818,1.774 0.79,1.789 0.764,1.808C0.744,1.824 0.721,1.836 0.698,1.845C0.654,1.859 0.608,1.86 0.564,1.849L0.572,1.849C0.593,1.849 0.614,1.845 0.635,1.839C0.661,1.828 0.686,1.814 0.708,1.795L0.728,1.781C0.778,1.743 0.831,1.707 0.885,1.675C0.938,1.645 0.995,1.62 1.053,1.6C1.076,1.592 1.1,1.584 1.124,1.577L1.011,1.737C0.955,1.733 0.9,1.742 0.848,1.762ZM1.13,1.589C1.146,1.624 1.168,1.655 1.195,1.683L0.738,2.139L1.13,1.589ZM0.746,2.147L1.202,1.69C1.229,1.716 1.261,1.738 1.295,1.755L0.746,2.147ZM1.084,2.358C1.096,2.343 1.106,2.327 1.114,2.31C1.124,2.282 1.128,2.251 1.124,2.22C1.124,2.206 1.124,2.19 1.124,2.17C1.124,2.108 1.128,2.046 1.137,1.984C1.145,1.94 1.157,1.897 1.173,1.856L1.3,1.765C1.289,1.785 1.279,1.804 1.27,1.824C1.243,1.88 1.22,1.938 1.203,1.998C1.188,2.06 1.176,2.122 1.167,2.186L1.162,2.21C1.16,2.237 1.153,2.264 1.142,2.289C1.128,2.316 1.108,2.339 1.083,2.358L1.084,2.358ZM1.248,2.088C1.236,2.118 1.227,2.149 1.222,2.18C1.218,2.206 1.211,2.23 1.2,2.254C1.179,2.294 1.147,2.328 1.108,2.351C1.126,2.334 1.14,2.315 1.151,2.293C1.163,2.267 1.17,2.24 1.172,2.211L1.176,2.188C1.185,2.125 1.197,2.063 1.212,2.001C1.229,1.942 1.251,1.885 1.278,1.829C1.289,1.807 1.3,1.784 1.312,1.763L1.313,1.763L1.345,1.955C1.304,1.992 1.271,2.038 1.248,2.088L1.248,2.088ZM1.437,2.433L1.326,1.767C1.361,1.78 1.399,1.787 1.437,1.787L1.437,2.433ZM1.108,1.442C1.108,1.442 1.108,1.442 1.108,1.442C1.108,1.259 1.259,1.108 1.442,1.108C1.626,1.108 1.777,1.259 1.777,1.442C1.777,1.626 1.626,1.777 1.443,1.777C1.259,1.777 1.108,1.626 1.107,1.442L1.108,1.442ZM1.448,2.433L1.448,1.788C1.486,1.787 1.524,1.78 1.559,1.768L1.448,2.433ZM1.836,2.343C1.834,2.324 1.83,2.306 1.823,2.289C1.811,2.261 1.791,2.236 1.767,2.217L1.732,2.182C1.687,2.139 1.646,2.092 1.609,2.042C1.583,2.006 1.561,1.967 1.544,1.926L1.57,1.772C1.576,1.794 1.583,1.815 1.59,1.836C1.61,1.895 1.635,1.951 1.666,2.006C1.698,2.06 1.734,2.113 1.773,2.164L1.787,2.184C1.805,2.205 1.819,2.228 1.829,2.254C1.838,2.283 1.84,2.313 1.835,2.343L1.836,2.343ZM1.762,2.036C1.774,2.066 1.789,2.094 1.808,2.12C1.824,2.14 1.836,2.163 1.845,2.187C1.859,2.23 1.86,2.277 1.849,2.321C1.849,2.296 1.846,2.272 1.839,2.25C1.828,2.223 1.814,2.198 1.795,2.177L1.781,2.157C1.743,2.106 1.707,2.054 1.675,2C1.645,1.946 1.62,1.89 1.6,1.832C1.592,1.808 1.584,1.784 1.577,1.76L1.578,1.76L1.737,1.874C1.733,1.929 1.742,1.985 1.762,2.037L1.762,2.036ZM1.589,1.755C1.624,1.738 1.655,1.717 1.682,1.69L2.139,2.147L1.589,1.755ZM2.147,2.139L1.69,1.683C1.716,1.655 1.738,1.624 1.755,1.589L2.147,2.139ZM2.31,1.771C2.281,1.761 2.25,1.757 2.22,1.761C2.206,1.761 2.19,1.761 2.17,1.761C2.108,1.762 2.045,1.758 1.984,1.749C1.94,1.741 1.897,1.729 1.855,1.713L1.765,1.586C1.784,1.596 1.804,1.606 1.824,1.616C1.88,1.643 1.938,1.665 1.998,1.682C2.06,1.698 2.122,1.71 2.185,1.719L2.209,1.722C2.236,1.724 2.263,1.731 2.288,1.742C2.315,1.756 2.339,1.776 2.357,1.801C2.343,1.789 2.327,1.779 2.31,1.771ZM2.088,1.637C2.117,1.649 2.148,1.658 2.18,1.663C2.205,1.666 2.23,1.673 2.253,1.684C2.294,1.705 2.327,1.737 2.35,1.776C2.334,1.759 2.315,1.744 2.293,1.733C2.267,1.721 2.239,1.714 2.211,1.712L2.187,1.708C2.125,1.699 2.062,1.687 2.001,1.672C1.942,1.655 1.884,1.633 1.829,1.606C1.807,1.595 1.784,1.584 1.762,1.572L1.762,1.571L1.955,1.539C1.992,1.58 2.037,1.614 2.088,1.637ZM1.767,1.559C1.78,1.524 1.787,1.486 1.787,1.448L2.433,1.448L1.767,1.559Z" style="fill-rule:nonzero;"/>
    </g>
    <g transform="matrix(25.0567,0,0,25.0567,0,0)">
        <path d="M1.262,1.286L1.275,1.284C1.284,1.283 1.292,1.283 1.301,1.284L1.307,1.284L1.314,1.285L1.326,1.288L1.351,1.297C1.367,1.304 1.382,1.314 1.396,1.326C1.387,1.309 1.374,1.295 1.358,1.284C1.349,1.279 1.34,1.275 1.331,1.271C1.322,1.268 1.312,1.267 1.302,1.266L1.288,1.266L1.273,1.267C1.263,1.269 1.254,1.272 1.245,1.276C1.227,1.284 1.212,1.296 1.201,1.312C1.216,1.302 1.232,1.294 1.25,1.289L1.262,1.286Z" style="fill-rule:nonzero;"/>
    </g>
    <g transform="matrix(25.0567,0,0,25.0567,0,0)">
        <path d="M1.557,1.288L1.57,1.285L1.576,1.284L1.583,1.283C1.591,1.283 1.6,1.283 1.608,1.283L1.621,1.285L1.634,1.288C1.651,1.293 1.668,1.301 1.683,1.311C1.672,1.295 1.656,1.283 1.639,1.275C1.63,1.271 1.621,1.268 1.611,1.267L1.596,1.265L1.581,1.265C1.561,1.266 1.542,1.272 1.526,1.283C1.509,1.294 1.496,1.308 1.487,1.325C1.501,1.313 1.516,1.303 1.532,1.296L1.557,1.288Z" style="fill-rule:nonzero;"/>
    </g>
    <g transform="matrix(25.0567,0,0,25.0567,0,0)">
        <path d="M1.386,1.362C1.386,1.339 1.352,1.32 1.309,1.32L1.295,1.321C1.27,1.321 1.246,1.33 1.227,1.346L1.213,1.36L1.214,1.368L1.217,1.369L1.222,1.367L1.234,1.354L1.232,1.362C1.232,1.386 1.266,1.404 1.309,1.404C1.352,1.404 1.386,1.386 1.386,1.362ZM1.243,1.362C1.243,1.349 1.263,1.335 1.295,1.332L1.302,1.332C1.288,1.335 1.277,1.347 1.277,1.362C1.277,1.377 1.288,1.39 1.302,1.393C1.267,1.391 1.243,1.376 1.243,1.362ZM1.315,1.393C1.329,1.39 1.34,1.377 1.34,1.362C1.34,1.347 1.329,1.334 1.315,1.331C1.351,1.333 1.375,1.348 1.375,1.362C1.375,1.376 1.351,1.392 1.315,1.393Z" style="fill-rule:nonzero;"/>
    </g>
    <g transform="matrix(25.0567,0,0,25.0567,0,0)">
        <path d="M1.657,1.346C1.638,1.33 1.614,1.321 1.589,1.321L1.575,1.32C1.532,1.32 1.498,1.338 1.498,1.362C1.498,1.385 1.532,1.404 1.575,1.404C1.618,1.404 1.652,1.385 1.652,1.362L1.65,1.354L1.662,1.366L1.666,1.369L1.67,1.367L1.671,1.36L1.657,1.346ZM1.509,1.362C1.509,1.348 1.533,1.333 1.569,1.331C1.554,1.334 1.544,1.347 1.544,1.362C1.544,1.377 1.554,1.39 1.569,1.393C1.533,1.392 1.509,1.376 1.509,1.362ZM1.581,1.393C1.596,1.39 1.607,1.377 1.607,1.362C1.607,1.347 1.596,1.334 1.581,1.331L1.588,1.332C1.62,1.335 1.641,1.349 1.641,1.362C1.641,1.374 1.617,1.391 1.581,1.393Z" style="fill-rule:nonzero;"/>
    </g>
    <g transform="matrix(25.0567,0,0,25.0567,0,0)">
        <path d="M1.387,1.512C1.382,1.511 1.377,1.503 1.376,1.497C1.375,1.488 1.379,1.48 1.386,1.475L1.387,1.468L1.38,1.467C1.37,1.474 1.364,1.486 1.366,1.498C1.367,1.51 1.375,1.519 1.386,1.523C1.392,1.523 1.398,1.521 1.402,1.516L1.409,1.512L1.415,1.52C1.419,1.528 1.425,1.534 1.432,1.537L1.445,1.54L1.455,1.538C1.463,1.535 1.469,1.528 1.473,1.521L1.48,1.512L1.49,1.515C1.495,1.519 1.501,1.52 1.507,1.518C1.515,1.512 1.52,1.501 1.517,1.49C1.516,1.48 1.509,1.471 1.5,1.466L1.493,1.469L1.495,1.476C1.501,1.479 1.506,1.485 1.507,1.492C1.508,1.499 1.505,1.506 1.502,1.508L1.495,1.506C1.49,1.502 1.484,1.501 1.478,1.502C1.471,1.504 1.466,1.509 1.463,1.516C1.461,1.521 1.457,1.525 1.451,1.528C1.446,1.529 1.441,1.529 1.436,1.528C1.431,1.525 1.427,1.52 1.424,1.515C1.421,1.509 1.418,1.503 1.41,1.502C1.404,1.501 1.399,1.504 1.395,1.508L1.387,1.512Z" style="fill-rule:nonzero;"/>
    </g>
    <g transform="matrix(25.0567,0,0,25.0567,0,0)">
        <path d="M1.502,1.572C1.497,1.571 1.491,1.571 1.485,1.572L1.469,1.576C1.46,1.579 1.451,1.581 1.442,1.581C1.432,1.581 1.423,1.58 1.414,1.577L1.397,1.574C1.392,1.573 1.386,1.573 1.38,1.574C1.37,1.576 1.359,1.579 1.35,1.585C1.34,1.59 1.332,1.596 1.325,1.604C1.342,1.595 1.362,1.589 1.382,1.588C1.386,1.588 1.391,1.588 1.395,1.589L1.425,1.597C1.43,1.598 1.436,1.599 1.442,1.599L1.459,1.597L1.488,1.587L1.501,1.585C1.511,1.585 1.521,1.587 1.53,1.59C1.539,1.593 1.549,1.597 1.558,1.602C1.539,1.61 1.52,1.617 1.5,1.622C1.491,1.624 1.481,1.626 1.471,1.627C1.461,1.628 1.451,1.629 1.441,1.629C1.421,1.629 1.401,1.627 1.382,1.623C1.362,1.618 1.343,1.612 1.324,1.604C1.34,1.618 1.358,1.629 1.378,1.636C1.398,1.643 1.42,1.647 1.441,1.646L1.457,1.646L1.465,1.645L1.473,1.643C1.484,1.641 1.494,1.638 1.504,1.635C1.524,1.627 1.542,1.616 1.557,1.601C1.55,1.594 1.542,1.587 1.533,1.581C1.523,1.576 1.513,1.573 1.502,1.572Z" style="fill-rule:nonzero;"/>
    </g>
    <g transform="matrix(25.0567,0,0,25.0567,0,0)">
        <path d="M1.439,1.677C1.429,1.677 1.415,1.68 1.415,1.685L1.416,1.688L1.462,1.688L1.464,1.685C1.464,1.68 1.45,1.677 1.439,1.677Z" style="fill-rule:nonzero;"/>
    </g>
</svg>
